<svg xmlns="http://www.w3.org/2000/svg" width="58.224" height="11" viewBox="0 0 58.224155 11" enable-background="new 0 0 81.875 15"><g><path d="M0 0v10.72h5.593S9 10.836 9 7.56c0 0 .158-2.656-2-2.656 0 0 1.625-.14 1.625-2.062C8.625.924 7.29 0 5.595 0H-.002zm18.125 0v10.72h2.188V6.374c0-.945.208-1.938 1.468-1.938 1.36 0 1.376.844 1.376.844v.44h.032v5h2.125V5.374c0-1.312-.775-2.656-2.625-2.656-1.357 0-2.082.86-2.375 1.31V0h-2.188zM11.22.625V1.97h4.436V.624H11.22zm-8.75 1.28h3.124s.75.01.75 1.126c0 1.117-.43 1.283-.938 1.283H2.47V1.905zm11.06.814c-4.123 0-4.124 4.124-4.124 4.124s-.28 4.125 4.125 4.125c0 0 3.69.19 3.69-2.876h-1.907s.063 1.156-1.72 1.156c0 0-1.874.12-1.874-1.875h5.56c.002 0 .6-4.656-3.75-4.656zm16.47 0c-3.454 0-3.668 1.745-3.688 2.78h2.313S28.54 4.125 30 4.125c0 0 1.22-.085 1.22 1.156 0 0-.003.8-1.126.876-1.13.075-3.97.048-3.97 2.375 0 0-.066 2.47 2.564 2.47 0 0 1.773.046 2.53-1.063v.782h2.407s-.406-.195-.406-1.47V4.656S33.45 2.72 30 2.72zm8.906 0c-1.383 0-2.093.9-2.375 1.342V2.845h-2.186v7.875h2.187V6.56c.005-.007 0-.07 0-.187 0-.945.24-1.938 1.5-1.938 1.36 0 1.345.844 1.345.844v.44h.03v5h2.126V5.374c0-1.312-.776-2.656-2.624-2.656zm7.47 0c-3.63 0-4.032 2.944-4.032 4.124 0 1.18.623 4.156 3.968 4.156C49.66 11 50 8.302 50 7.687h-2.28s.072 1.594-1.407 1.594c-1.477 0-1.876-1.59-1.876-2.5 0-.907.316-2.436 1.907-2.436 1.59 0 1.53 1.375 1.53 1.375h1.97s.153-3-3.47-3zm8.093 0c-4.126 0-4.126 4.124-4.126 4.124s-.282 4.125 4.125 4.125c0 0 3.655.19 3.655-2.876H56.25s.063 1.156-1.72 1.156c0 0-1.905.12-1.905-1.875h5.563s.628-4.656-3.72-4.656zM13.593 4.31c1.655 0 1.625 1.657 1.625 1.657h-3.533s.247-1.657 1.907-1.657zm40.906 0c1.66 0 1.625 1.657 1.625 1.657h-3.5s.216-1.657 1.875-1.657zM2.47 5.97h3.124S6.72 5.947 6.72 7.437c0 1.116-.665 1.33-1.126 1.375H2.47V5.97zm28.75.905v1.438S31.04 9.5 29.47 9.5c0 0-1.314.044-1.314-1.063 0 0-.09-.847 1.72-1.124.72-.056 1.047-.1 1.343-.438z" fill="#9f9ea4"/></g></svg>