<?xml version="1.0" encoding="UTF-8" standalone="no"?>
<!-- Generator: Adobe Illustrator 16.0.0, SVG Export Plug-In . SVG Version: 6.00 Build 0)  -->

<svg
   xmlns:dc="http://purl.org/dc/elements/1.1/"
   xmlns:cc="http://creativecommons.org/ns#"
   xmlns:rdf="http://www.w3.org/1999/02/22-rdf-syntax-ns#"
   xmlns:svg="http://www.w3.org/2000/svg"
   xmlns="http://www.w3.org/2000/svg"
   xmlns:sodipodi="http://sodipodi.sourceforge.net/DTD/sodipodi-0.dtd"
   xmlns:inkscape="http://www.inkscape.org/namespaces/inkscape"
   version="1.1"
   id="Capa_1"
   x="0px"
   y="0px"
   width="311.54095"
   height="226.42282"
   viewBox="0 0 311.54095 226.42282"
   enable-background="new 0 0 400 280"
   xml:space="preserve"
   inkscape:version="0.48.5 r10040"
   sodipodi:docname="logo-01.svg"><metadata
     id="metadata249"><rdf:RDF><cc:Work
         rdf:about=""><dc:format>image/svg+xml</dc:format><dc:type
           rdf:resource="http://purl.org/dc/dcmitype/StillImage" /><dc:title></dc:title></cc:Work></rdf:RDF></metadata><defs
     id="defs247" /><sodipodi:namedview
     pagecolor="#ffffff"
     bordercolor="#666666"
     borderopacity="1"
     objecttolerance="10"
     gridtolerance="10"
     guidetolerance="10"
     inkscape:pageopacity="0"
     inkscape:pageshadow="2"
     inkscape:window-width="1366"
     inkscape:window-height="718"
     id="namedview245"
     showgrid="false"
     fit-margin-top="0"
     fit-margin-left="0"
     fit-margin-right="0"
     fit-margin-bottom="0"
     inkscape:zoom="1.6857143"
     inkscape:cx="171.79116"
     inkscape:cy="112.07641"
     inkscape:window-x="-3"
     inkscape:window-y="27"
     inkscape:window-maximized="1"
     inkscape:current-layer="Capa_1" /><g
     id="g3"
     transform="matrix(1.0863516,0,0,1.0863516,-62.403006,-47.199804)"><g
       id="g5"><g
         id="g7"><path
           d="m 60.146,192.728 c 0,-2.312 -0.124,-2.906 -1.531,-3.032 l -1,-0.094 c -0.25,-0.186 -0.218,-0.655 0.032,-0.78 1.688,-0.156 3.813,-0.252 6.72,-0.252 1.969,0 3.845,0.158 5.251,0.876 1.344,0.657 2.375,1.907 2.375,3.909 0,2.249 -1.312,3.405 -3.188,4.281 0,0.312 0.25,0.407 0.595,0.469 1.687,0.313 4.188,1.875 4.188,5.221 0,3.625 -2.688,6.063 -8.314,6.063 -0.907,0 -2.438,-0.092 -3.75,-0.092 -1.377,0 -2.439,0.062 -3.595,0.092 -0.188,-0.092 -0.25,-0.593 -0.063,-0.781 l 0.563,-0.094 c 1.657,-0.281 1.719,-0.624 1.719,-3.906 v -11.88 z m 2.563,4.158 c 0,0.874 0.032,0.938 1.626,0.874 3.188,-0.124 4.906,-1.062 4.906,-4 0,-3.063 -2.281,-4.22 -4.657,-4.22 -0.688,0 -1.156,0.062 -1.437,0.188 -0.313,0.094 -0.438,0.249 -0.438,0.813 v 6.345 z m 0,7.25 c 0,1.128 0.063,2.721 0.656,3.407 0.594,0.721 1.532,0.876 2.469,0.876 2.784,0 4.909,-1.249 4.909,-4.375 0,-2.47 -1.25,-5.346 -6.221,-5.346 -1.688,0 -1.813,0.188 -1.813,0.814 v 4.624 z"
           id="path9"
           inkscape:connector-curvature="0"
           style="fill:#434142" /></g><g
         id="g11"><path
           d="m 85.666,200.64 c 0,-5.358 4.019,-9.457 9.539,-9.457 6.19,0 9.297,4.475 9.297,9.189 0,5.411 -4.126,9.352 -9.297,9.352 -5.95,0 -9.539,-4.261 -9.539,-9.084 z m 16.156,0.562 c 0,-4.42 -1.956,-9.189 -7.074,-9.189 -2.786,0 -6.403,1.902 -6.403,7.771 0,3.965 1.93,9.11 7.208,9.11 3.215,0 6.269,-2.413 6.269,-7.692 z"
           id="path13"
           inkscape:connector-curvature="0"
           style="fill:#434142" /></g><g
         id="g15"><path
           d="m 117.198,195.657 c 0,-2.546 -0.08,-3.002 -1.179,-3.135 l -0.857,-0.108 c -0.188,-0.133 -0.188,-0.563 0.027,-0.669 1.5,-0.135 3.349,-0.214 5.975,-0.214 1.661,0 3.241,0.133 4.474,0.804 1.287,0.669 2.224,1.874 2.224,3.75 0,2.546 -2.009,3.938 -3.349,4.476 -0.134,0.16 0,0.428 0.133,0.642 2.144,3.457 3.564,5.601 5.386,7.129 0.456,0.401 1.125,0.695 1.849,0.75 0.134,0.054 0.161,0.268 0.026,0.374 -0.241,0.081 -0.669,0.134 -1.178,0.134 -2.278,0 -3.645,-0.669 -5.546,-3.375 -0.697,-0.991 -1.796,-2.841 -2.626,-4.047 -0.401,-0.589 -0.831,-0.856 -1.902,-0.856 -1.205,0 -1.26,0.026 -1.26,0.59 v 3.375 c 0,2.813 0.055,3.135 1.608,3.35 l 0.563,0.079 c 0.161,0.135 0.108,0.592 -0.053,0.671 -1.207,-0.055 -2.117,-0.079 -3.189,-0.079 -1.125,0 -2.089,0.024 -3.349,0.079 -0.162,-0.079 -0.215,-0.481 -0.054,-0.671 l 0.67,-0.079 c 1.553,-0.188 1.607,-0.537 1.607,-3.35 v -9.62 z m 2.197,3.83 c 0,0.483 0,0.777 0.08,0.885 0.08,0.08 0.482,0.135 1.85,0.135 0.964,0 1.982,-0.107 2.759,-0.697 0.723,-0.563 1.34,-1.501 1.34,-3.322 0,-2.117 -1.314,-4.126 -4.289,-4.126 -1.661,0 -1.741,0.105 -1.741,0.856 v 6.269 z"
           id="path17"
           inkscape:connector-curvature="0"
           style="fill:#434142" /></g><g
         id="g19"><path
           d="m 142.516,195.684 c 0,-2.841 -0.053,-3.296 -1.634,-3.431 l -0.67,-0.053 c -0.161,-0.108 -0.106,-0.59 0.054,-0.669 1.339,0.053 2.251,0.079 3.376,0.079 1.072,0 1.982,-0.026 3.322,-0.079 0.161,0.079 0.213,0.561 0.053,0.669 l -0.669,0.053 c -1.581,0.135 -1.634,0.59 -1.634,3.431 v 9.539 c 0,2.839 0.053,3.214 1.634,3.402 l 0.669,0.079 c 0.16,0.108 0.108,0.592 -0.053,0.671 -1.34,-0.055 -2.25,-0.079 -3.322,-0.079 -1.125,0 -2.037,0.024 -3.376,0.079 -0.16,-0.079 -0.215,-0.508 -0.054,-0.671 l 0.67,-0.079 c 1.581,-0.188 1.634,-0.563 1.634,-3.402 v -9.539 z"
           id="path21"
           inkscape:connector-curvature="0"
           style="fill:#434142" /></g><g
         id="g23"><path
           d="m 162.18,209.724 c -2.25,0 -3.67,-0.697 -4.179,-0.991 -0.322,-0.589 -0.67,-2.492 -0.723,-3.751 0.133,-0.188 0.536,-0.242 0.643,-0.081 0.402,1.366 1.501,3.993 4.608,3.993 2.251,0 3.35,-1.475 3.35,-3.083 0,-1.178 -0.243,-2.491 -2.198,-3.749 l -2.545,-1.662 c -1.34,-0.886 -2.894,-2.411 -2.894,-4.608 0,-2.547 1.983,-4.608 5.467,-4.608 0.831,0 1.794,0.16 2.492,0.349 0.348,0.107 0.723,0.161 0.938,0.161 0.241,0.643 0.482,2.142 0.482,3.268 -0.107,0.16 -0.536,0.242 -0.669,0.081 -0.349,-1.287 -1.072,-3.028 -3.645,-3.028 -2.626,0 -3.189,1.741 -3.189,2.974 0,1.556 1.287,2.68 2.278,3.296 l 2.144,1.34 c 1.687,1.044 3.349,2.601 3.349,5.144 -0.001,2.946 -2.224,4.955 -5.709,4.955 z"
           id="path25"
           inkscape:connector-curvature="0"
           style="fill:#434142" /></g><g
         id="g27"><path
           d="m 195.178,191.977 c -0.719,-1.748 -1.188,-2.405 -2.533,-2.561 l -0.562,-0.064 c -0.218,-0.188 -0.189,-0.624 0.062,-0.782 0.908,0.063 1.907,0.096 3.251,0.096 1.375,0 2.469,-0.032 3.782,-0.096 0.218,0.126 0.281,0.595 0.062,0.782 l -0.468,0.064 c -1.188,0.155 -1.437,0.343 -1.469,0.593 0.062,0.313 0.593,2 1.563,4.375 1.438,3.627 2.876,7.223 4.438,10.784 0.969,-2.063 2.281,-5.282 3,-6.939 0.906,-2.124 2.378,-5.657 2.907,-7 0.25,-0.657 0.282,-1 0.282,-1.22 0,-0.218 -0.313,-0.469 -1.406,-0.593 l -0.563,-0.064 c -0.219,-0.188 -0.156,-0.656 0.063,-0.782 0.876,0.063 2.063,0.096 3.251,0.096 1.032,0 2.001,-0.032 3.032,-0.096 0.22,0.126 0.22,0.627 0.063,0.782 l -0.938,0.064 c -0.751,0.062 -1.221,0.437 -1.626,1.094 -0.875,1.467 -2.094,4 -3.5,7.188 l -1.689,3.844 c -1.249,2.877 -2.719,6.504 -3.25,8.159 -0.094,0.062 -0.219,0.094 -0.344,0.094 -0.156,0 -0.313,-0.032 -0.469,-0.094 -0.344,-1.313 -0.907,-2.845 -1.438,-4.156 l -5.501,-13.568 z"
           id="path29"
           inkscape:connector-curvature="0"
           style="fill:#434142" /></g><g
         id="g31"><path
           d="m 233.464,203.077 c -0.189,-0.588 -0.295,-0.669 -1.101,-0.669 h -4.045 c -0.67,0 -0.831,0.081 -1.019,0.643 l -0.938,2.814 c -0.402,1.205 -0.59,1.929 -0.59,2.223 0,0.322 0.135,0.481 0.777,0.537 l 0.885,0.079 c 0.188,0.135 0.188,0.563 -0.054,0.671 -0.697,-0.055 -1.527,-0.055 -2.787,-0.079 -0.884,0 -1.849,0.053 -2.572,0.079 -0.161,-0.107 -0.214,-0.536 -0.054,-0.671 l 0.885,-0.079 c 0.643,-0.056 1.233,-0.349 1.606,-1.313 0.483,-1.232 1.233,-2.974 2.358,-5.975 l 2.733,-7.234 c 0.375,-0.965 0.536,-1.475 0.456,-1.902 0.643,-0.188 1.098,-0.669 1.393,-1.018 0.16,0 0.35,0.053 0.402,0.24 0.349,1.179 0.777,2.411 1.18,3.59 l 3.669,10.771 c 0.779,2.305 1.127,2.709 2.278,2.842 l 0.724,0.079 c 0.188,0.135 0.134,0.563 0,0.671 -1.099,-0.055 -2.036,-0.079 -3.242,-0.079 -1.285,0 -2.305,0.053 -3.081,0.079 -0.215,-0.107 -0.24,-0.536 -0.055,-0.671 l 0.777,-0.079 c 0.563,-0.056 0.938,-0.215 0.938,-0.481 0,-0.296 -0.134,-0.777 -0.349,-1.422 l -1.174,-3.646 z m -5.307,-2.383 c -0.213,0.616 -0.188,0.643 0.563,0.643 h 3.296 c 0.777,0 0.832,-0.107 0.589,-0.83 l -1.446,-4.368 c -0.214,-0.643 -0.455,-1.367 -0.616,-1.688 h -0.053 c -0.08,0.133 -0.35,0.775 -0.644,1.581 l -1.689,4.662 z"
           id="path33"
           inkscape:connector-curvature="0"
           style="fill:#434142" /></g><g
         id="g35"><path
           d="m 250.716,195.657 c 0,-2.546 -0.081,-3.002 -1.179,-3.135 l -0.858,-0.108 c -0.187,-0.133 -0.187,-0.563 0.027,-0.669 1.501,-0.135 3.349,-0.214 5.975,-0.214 1.662,0 3.242,0.133 4.476,0.804 1.286,0.669 2.224,1.874 2.224,3.75 0,2.546 -2.011,3.938 -3.351,4.476 -0.133,0.16 0,0.428 0.135,0.642 2.144,3.457 3.564,5.601 5.387,7.129 0.455,0.401 1.125,0.695 1.849,0.75 0.134,0.054 0.16,0.268 0.026,0.374 -0.241,0.081 -0.67,0.134 -1.18,0.134 -2.276,0 -3.643,-0.669 -5.546,-3.375 -0.697,-0.991 -1.796,-2.841 -2.627,-4.047 -0.4,-0.589 -0.83,-0.856 -1.9,-0.856 -1.206,0 -1.26,0.026 -1.26,0.59 v 3.375 c 0,2.813 0.054,3.135 1.606,3.35 l 0.563,0.079 c 0.161,0.135 0.108,0.592 -0.053,0.671 -1.205,-0.055 -2.116,-0.079 -3.188,-0.079 -1.125,0 -2.09,0.024 -3.349,0.079 -0.161,-0.079 -0.214,-0.481 -0.053,-0.671 l 0.669,-0.079 c 1.554,-0.188 1.607,-0.537 1.607,-3.35 v -9.62 z m 2.197,3.83 c 0,0.483 0,0.777 0.08,0.885 0.08,0.08 0.481,0.135 1.849,0.135 0.966,0 1.982,-0.107 2.76,-0.697 0.724,-0.563 1.34,-1.501 1.34,-3.322 0,-2.117 -1.313,-4.126 -4.287,-4.126 -1.661,0 -1.741,0.105 -1.741,0.856 v 6.269 z"
           id="path37"
           inkscape:connector-curvature="0"
           style="fill:#434142" /></g><g
         id="g39"><path
           d="m 289.001,206.561 c 0,1.073 0.161,1.716 0.644,1.903 0.079,0.081 0.079,0.24 -0.028,0.322 -0.321,0 -0.803,0.107 -1.313,0.24 -1.418,0.375 -3.35,0.697 -4.796,0.697 -3.188,0 -6.108,-0.885 -8.172,-2.974 -1.607,-1.609 -2.466,-3.726 -2.466,-6.084 0,-2.276 0.75,-4.581 2.412,-6.349 1.795,-1.875 4.448,-3.135 8.494,-3.135 1.527,0 2.948,0.293 3.403,0.401 0.508,0.108 1.339,0.294 1.66,0.241 0,0.883 0.161,2.277 0.402,3.885 -0.08,0.214 -0.563,0.242 -0.724,0.081 -0.75,-2.894 -2.76,-3.806 -5.493,-3.806 -5.197,0 -7.475,3.698 -7.475,7.716 0,5.145 2.652,9.192 8.037,9.192 1.662,0 2.653,-0.349 2.948,-0.806 0.134,-0.188 0.268,-0.669 0.268,-1.527 v -1.07 c 0,-2.25 -0.079,-2.413 -1.741,-2.599 l -1.179,-0.135 c -0.215,-0.106 -0.188,-0.59 0,-0.671 0.776,0.055 2.251,0.081 3.831,0.081 1.045,0 1.955,-0.026 2.84,-0.081 0.188,0.108 0.214,0.51 0.026,0.671 l -0.428,0.055 c -1.126,0.133 -1.152,0.884 -1.152,2.25 v 1.502 z"
           id="path41"
           inkscape:connector-curvature="0"
           style="fill:#434142" /></g><g
         id="g43"><path
           d="m 310.594,203.077 c -0.188,-0.588 -0.294,-0.669 -1.099,-0.669 h -4.045 c -0.671,0 -0.83,0.081 -1.019,0.643 l -0.938,2.814 c -0.401,1.205 -0.589,1.929 -0.589,2.223 0,0.322 0.134,0.481 0.776,0.537 l 0.886,0.079 c 0.187,0.135 0.187,0.563 -0.055,0.671 -0.696,-0.055 -1.527,-0.055 -2.786,-0.079 -0.885,0 -1.85,0.053 -2.573,0.079 -0.159,-0.107 -0.214,-0.536 -0.054,-0.671 l 0.886,-0.079 c 0.642,-0.056 1.231,-0.349 1.606,-1.313 0.481,-1.232 1.232,-2.974 2.358,-5.975 l 2.732,-7.234 c 0.375,-0.965 0.537,-1.475 0.456,-1.902 0.643,-0.188 1.099,-0.669 1.394,-1.018 0.16,0 0.348,0.053 0.4,0.24 0.349,1.179 0.779,2.411 1.181,3.59 l 3.67,10.771 c 0.776,2.305 1.125,2.709 2.277,2.842 l 0.724,0.079 c 0.188,0.135 0.135,0.563 0,0.671 -1.099,-0.055 -2.036,-0.079 -3.242,-0.079 -1.287,0 -2.304,0.053 -3.082,0.079 -0.214,-0.107 -0.24,-0.536 -0.053,-0.671 l 0.777,-0.079 c 0.563,-0.056 0.938,-0.215 0.938,-0.481 0,-0.296 -0.134,-0.777 -0.349,-1.422 l -1.177,-3.646 z m -5.305,-2.383 c -0.215,0.616 -0.188,0.643 0.563,0.643 h 3.295 c 0.777,0 0.831,-0.107 0.59,-0.83 l -1.447,-4.368 c -0.213,-0.643 -0.455,-1.367 -0.616,-1.688 h -0.053 c -0.079,0.133 -0.349,0.775 -0.644,1.581 l -1.688,4.662 z"
           id="path45"
           inkscape:connector-curvature="0"
           style="fill:#434142" /></g><g
         id="g47"><path
           d="m 330.419,209.724 c -2.25,0 -3.671,-0.697 -4.18,-0.991 -0.321,-0.589 -0.671,-2.492 -0.724,-3.751 0.134,-0.188 0.536,-0.242 0.645,-0.081 0.4,1.366 1.499,3.993 4.607,3.993 2.25,0 3.349,-1.475 3.349,-3.083 0,-1.178 -0.241,-2.491 -2.197,-3.749 l -2.544,-1.662 c -1.341,-0.886 -2.895,-2.411 -2.895,-4.608 0,-2.547 1.982,-4.608 5.465,-4.608 0.831,0 1.796,0.16 2.493,0.349 0.348,0.107 0.723,0.161 0.938,0.161 0.241,0.643 0.482,2.142 0.482,3.268 -0.108,0.16 -0.536,0.242 -0.671,0.081 -0.348,-1.287 -1.071,-3.028 -3.645,-3.028 -2.623,0 -3.188,1.741 -3.188,2.974 0,1.556 1.287,2.68 2.278,3.296 l 2.144,1.34 c 1.688,1.044 3.35,2.601 3.35,5.144 0,2.946 -2.224,4.955 -5.707,4.955 z"
           id="path49"
           inkscape:connector-curvature="0"
           style="fill:#434142" /></g></g><g
       id="g51"><rect
         x="186.506"
         y="251.19099"
         width="20.555"
         height="0.68199998"
         id="rect53"
         style="fill:#434142" /></g><g
       id="g55"><g
         id="g57"><path
           d="m 344.22,185.979 c 0,1.38 -1.085,2.467 -2.496,2.467 -1.396,0 -2.51,-1.087 -2.51,-2.467 0,-1.351 1.114,-2.435 2.51,-2.435 1.411,0 2.496,1.084 2.496,2.435 z m -4.382,0 c 0,1.087 0.803,1.946 1.9,1.946 1.069,0 1.855,-0.859 1.855,-1.931 0,-1.083 -0.786,-1.96 -1.87,-1.96 -1.082,0 -1.885,0.877 -1.885,1.945 z m 1.5,1.277 h -0.564 v -2.436 c 0.222,-0.044 0.533,-0.074 0.937,-0.074 0.459,0 0.667,0.074 0.845,0.179 0.135,0.104 0.239,0.298 0.239,0.535 0,0.267 -0.209,0.476 -0.505,0.566 v 0.028 c 0.233,0.088 0.37,0.267 0.444,0.593 0.074,0.371 0.119,0.521 0.177,0.608 h -0.607 c -0.075,-0.088 -0.12,-0.31 -0.192,-0.593 -0.046,-0.269 -0.194,-0.386 -0.507,-0.386 h -0.266 v 0.98 z m 0.014,-1.381 h 0.267 c 0.313,0 0.564,-0.104 0.564,-0.355 0,-0.223 -0.163,-0.371 -0.519,-0.371 -0.148,0 -0.251,0.014 -0.313,0.029 v 0.697 z"
           id="path59"
           inkscape:connector-curvature="0"
           style="fill:#434142" /></g></g><g
       id="g61"><g
         id="g63"><g
           id="g65"><g
             id="g67"><path
               d="m 168.753,101.007 c 5.005,0.379 6.729,2.601 6.729,4.77 0,3.372 -2.797,5.188 -7.383,5.188 -0.836,0 -2.495,-0.079 -4.77,-0.079 -1.581,0 -3.214,0.026 -4.116,0.079 v -0.536 c 1.698,-0.079 1.999,-0.353 1.999,-2.301 V 94.853 c 0,-1.948 -0.313,-2.222 -1.999,-2.301 v -0.535 c 0.901,0.052 2.561,0.078 4.063,0.078 1.751,0 3.529,-0.052 4.208,-0.052 4.417,0 6.612,1.738 6.612,4.208 0,1.895 -1.607,4.012 -5.344,4.704 v 0.052 z m -2.13,-0.104 c 2.522,0 3.136,-2.038 3.136,-4.364 0,-2.627 -0.732,-3.986 -2.626,-3.986 -1.373,0 -1.66,0.458 -1.66,2.301 v 6.05 h 1.15 z m -1.15,7.226 c 0,1.87 0.313,2.222 1.842,2.222 2.614,0 3.725,-1.686 3.725,-4.691 0,-2.718 -1.267,-4.299 -4.443,-4.299 h -1.123 v 6.768 z"
               id="path69"
               inkscape:connector-curvature="0"
               style="fill:#434142" /></g></g><g
           id="g71"><path
             d="m 228.983,91.991 c 1.203,0.052 2.223,0.079 3.333,0.079 0.784,0 1.503,-0.026 2.039,-0.079 v 0.536 c -0.771,0.301 -1.725,1.176 -2.443,3.175 l -5.659,15.29 c -0.288,-0.012 -0.613,-0.026 -0.929,-0.026 -0.325,0 -0.639,0.014 -0.927,0.026 l -6.822,-16.753 c -0.508,-1.281 -1.163,-1.686 -1.686,-1.712 v -0.536 c 1.071,0.052 2.601,0.079 4.077,0.079 1.646,0 3.189,-0.026 4.064,-0.079 v 0.536 c -1.241,0.052 -1.882,0.223 -1.882,0.993 0,0.301 0.104,0.72 0.314,1.255 l 4.729,11.983 3.294,-8.886 c 0.51,-1.386 0.744,-2.444 0.744,-3.241 0,-1.49 -0.822,-2.066 -2.248,-2.105 v -0.535 z"
             id="path73"
             inkscape:connector-curvature="0"
             style="fill:#434142" /></g><g
           id="g75"><g
             id="g77"><g
               id="g79"><g
                 id="g81"><rect
                   x="196.285"
                   y="62.666"
                   transform="matrix(-0.7061,0.7081,-0.7081,-0.7061,407.6823,34.1263)"
                   width="0.94800001"
                   height="78.010002"
                   id="rect83"
                   style="fill:#434142" /></g></g><g
               id="g85"><g
                 id="g87"><polygon
                   points="169.016,73.992 169.115,68.3 169.922,68.314 169.808,74.813 163.5,74.707 163.513,73.901 "
                   id="polygon89"
                   style="fill:#434142" /></g></g><g
               id="g91"><g
                 id="g93"><polygon
                   points="173.329,78.295 173.429,72.602 174.235,72.615 174.122,79.114 167.813,79.008 167.827,78.203 "
                   id="polygon95"
                   style="fill:#434142" /></g></g><g
               id="g97"><g
                 id="g99"><polygon
                   points="177.44,82.394 177.54,76.703 178.347,76.717 178.232,83.214 171.924,83.109 171.937,82.302 "
                   id="polygon101"
                   style="fill:#434142" /></g></g><g
               id="g103"><g
                 id="g105"><polygon
                   points="220.738,130.514 223.893,128.796 225.601,125.637 229.527,134.416 "
                   id="polygon107"
                   style="fill:#434142" /></g></g></g><g
             id="g109"><g
               id="g111"><g
                 id="g113"><rect
                   x="195.839"
                   y="62.306"
                   transform="matrix(0.7063,0.7079,-0.7079,0.7063,129.3668,-109.2142)"
                   width="0.94800001"
                   height="78.010002"
                   id="rect115"
                   style="fill:#434142" /></g></g><g
               id="g117"><g
                 id="g119"><polygon
                   points="224.056,73.633 223.956,67.94 223.151,67.955 223.265,74.453 229.572,74.347 229.559,73.541 "
                   id="polygon121"
                   style="fill:#434142" /></g></g><g
               id="g123"><g
                 id="g125"><polygon
                   points="219.743,77.935 219.644,72.243 218.836,72.256 218.95,78.755 225.258,78.65 225.245,77.843 "
                   id="polygon127"
                   style="fill:#434142" /></g></g><g
               id="g129"><g
                 id="g131"><polygon
                   points="215.633,82.035 215.532,76.342 214.726,76.357 214.841,82.855 221.148,82.75 221.134,81.943 "
                   id="polygon133"
                   style="fill:#434142" /></g></g><g
               id="g135"><g
                 id="g137"><polygon
                   points="172.333,130.153 169.178,128.437 167.471,125.277 163.543,134.056 "
                   id="polygon139"
                   style="fill:#434142" /></g></g></g></g></g><g
         id="g141"><path
           d="m 196.784,158.906 c -31.832,0 -57.729,-25.897 -57.729,-57.729 0,-31.832 25.897,-57.729 57.729,-57.729 31.831,0 57.729,25.897 57.729,57.729 0,31.832 -25.898,57.729 -57.729,57.729 z m 0,-114.093 c -31.08,0 -56.365,25.286 -56.365,56.365 0,31.08 25.285,56.365 56.365,56.365 31.079,0 56.365,-25.285 56.365,-56.365 0,-31.08 -25.286,-56.365 -56.365,-56.365 z"
           id="path143"
           inkscape:connector-curvature="0"
           style="fill:#434142" /></g><g
         id="g145"><path
           d="m 208.049,132.28 c 0.076,-0.076 0.17,-0.228 0.246,-0.342 0.076,-0.114 0.076,-0.19 0.133,-0.228 0.058,-0.038 0,-0.266 -0.057,-0.342 -0.057,-0.076 -0.152,-0.076 -0.475,-0.322 -0.323,-0.248 -0.588,-0.76 -0.684,-0.93 -0.095,-0.171 -0.076,-0.343 -0.342,-0.571 -0.266,-0.227 -0.493,-0.322 -0.626,-0.398 -0.134,-0.076 -0.305,-0.36 -0.4,-0.418 -0.094,-0.057 -0.189,-0.095 -0.189,-0.208 0,-0.114 -0.038,-0.59 -0.133,-0.646 -0.096,-0.058 -0.189,-0.095 -0.284,-0.076 -0.096,0.019 -0.267,0.019 -0.267,0.019 l -0.228,0.038 -0.189,-0.095 c 0,0 0.076,-0.284 -0.037,-0.341 -0.115,-0.058 -0.19,-0.114 -0.286,-0.134 -0.095,-0.019 -0.228,0.038 -0.228,0.038 0,0 -0.152,0.058 -0.229,0.096 -0.076,0.038 -0.285,0.095 -0.285,0.095 0,0 -0.493,-0.115 -0.626,-0.115 -0.133,0 -0.779,0 -1.045,0 -0.266,0 -0.209,-0.19 -0.512,-0.208 -0.304,-0.02 -0.646,-0.19 -0.855,-0.19 -0.208,0 -0.474,-0.038 -0.684,-0.038 -0.208,0 -0.303,0 -0.493,0.057 -0.189,0.057 -0.494,0.189 -0.95,0.189 -0.456,0 -0.854,0 -1.271,-0.038 -0.418,-0.038 -0.666,-0.17 -0.894,-0.17 -0.228,0 -0.284,-0.02 -0.892,-0.02 -0.607,0 -1.519,-0.113 -1.804,-0.132 -0.285,-0.02 -0.55,-0.076 -0.892,0 -0.342,0.076 -0.912,0.304 -1.045,0.322 -0.132,0.02 -0.606,0.306 -0.892,0.532 -0.285,0.228 -0.93,0.627 -1.177,0.912 -0.247,0.285 -0.874,0.741 -1.006,1.082 -0.132,0.342 -0.684,1.045 -0.912,1.311 -0.228,0.265 -0.304,0.057 -0.398,0.626 -0.096,0.569 -0.228,0.626 -0.342,1.405 -0.114,0.778 -0.438,1.292 -0.57,1.671 -0.132,0.379 -0.361,1.119 -0.456,1.423 -0.095,0.304 -0.172,0.837 -0.38,1.007 -0.21,0.17 -0.361,0.417 -0.229,0.702 0.133,0.285 0.114,0.38 0.21,0.607 0.094,0.228 0.247,0.532 0.36,0.741 0.114,0.208 0.095,0.38 0.247,0.399 0.152,0.018 0.275,0.085 0.56,0.085 0.285,0 0.47,-0.011 0.646,-0.019 0.208,-0.01 0.693,0.009 0.789,0.009 0.094,0 0.217,-0.076 0.217,-0.076 0,0 -0.076,-0.38 -0.208,-0.456 -0.134,-0.076 -0.465,-0.247 -0.617,-0.247 -0.152,0 -0.418,-0.286 -0.38,-0.438 0.038,-0.151 0.027,-0.218 0.047,-0.274 0.075,-0.226 0.085,-0.39 0.275,-0.503 0.19,-0.114 0.55,-0.114 0.722,-0.38 0.17,-0.266 0.362,-0.284 0.664,-0.835 0.304,-0.551 0.894,-1.158 0.988,-1.33 0.096,-0.17 0.608,-0.702 0.608,-0.702 0,0 0.36,0.285 0.417,0.398 0.056,0.115 0.322,0.893 0.589,1.063 0.266,0.17 0.778,0.703 1.024,0.912 0.248,0.209 0.532,0.512 0.626,0.816 0.095,0.304 0.095,0.266 0.114,0.627 0.02,0.36 0.058,0.626 0.286,0.798 0.228,0.17 0.404,0.302 0.607,0.455 0.389,0.295 0.256,0.152 0.95,0.171 0.152,0.004 0.532,0.038 0.684,0.038 0.152,0 0.588,-0.038 0.779,-0.038 0.189,0 0.502,-0.02 0.502,-0.02 0.005,-0.045 0.285,-0.37 -0.284,-0.606 -0.261,-0.109 -0.513,-0.248 -0.76,-0.276 -0.111,-0.012 -0.085,0.02 -0.256,-0.094 -0.17,-0.114 -0.209,-0.096 -0.304,-0.228 -0.094,-0.133 -0.17,-0.199 -0.094,-0.39 0.076,-0.189 0.038,-0.607 -0.02,-0.987 -0.057,-0.38 -0.114,-0.703 -0.209,-1.082 -0.095,-0.379 -0.133,-0.646 -0.133,-0.912 0,-0.266 0.152,-0.36 0.152,-0.36 0,0 1.234,-0.874 1.481,-0.989 0.246,-0.113 0.36,0.172 0.284,0.305 -0.076,0.132 -0.114,0.246 -0.208,0.437 -0.094,0.19 -0.113,0.436 -0.094,0.644 0.019,0.21 -0.019,0.571 0.227,1.065 0.248,0.493 0.437,1.063 0.494,1.519 0.057,0.456 -0.076,0.722 0.076,0.969 0.152,0.246 0.247,0.265 0.532,0.437 0.284,0.17 0.589,0.398 0.76,0.569 0.17,0.17 0.228,0.248 0.418,0.248 0.19,0 0.588,-0.02 0.797,0 0.208,0.019 0.493,0.033 0.664,0.019 0.456,-0.038 0.599,0.076 0.409,-0.324 -0.116,-0.242 -0.561,-0.465 -0.637,-0.465 -0.076,0 -0.436,-0.056 -0.569,-0.094 -0.133,-0.038 -0.361,0 -0.38,-0.304 -0.019,-0.304 -0.152,-0.921 -0.152,-0.921 0,0 -0.057,-0.722 -0.037,-1.025 0.019,-0.304 0.019,-0.666 0.113,-0.874 0.094,-0.208 0.228,-0.607 0.228,-0.607 0,0 0.171,0.38 0.665,0.684 0.494,0.304 0.741,0.589 1.026,0.893 0.285,0.303 1.159,0.702 1.159,0.702 0,0 0.55,-0.02 0.55,0.114 0,0.132 0,0.588 -0.114,0.626 -0.113,0.038 -0.303,-0.019 -0.113,0.228 0.19,0.247 0.143,0.228 0.104,0.36 -0.038,0.134 0.123,0.475 0.275,0.456 0.151,-0.018 0.493,-0.189 0.588,-0.398 0.096,-0.208 0.285,-0.513 0.323,-0.816 0.038,-0.304 0.056,-0.02 0.114,-0.684 0.057,-0.666 0.133,-0.684 -0.114,-0.949 -0.247,-0.266 -0.684,-0.779 -0.892,-1.006 -0.21,-0.228 -0.646,-0.799 -0.78,-0.988 -0.132,-0.19 -0.284,-0.324 -0.132,-0.684 0.151,-0.36 0.38,-0.551 0.417,-0.874 0.039,-0.323 -0.019,-0.494 0.057,-0.665 0.076,-0.17 0.361,-0.342 0.457,-0.361 0.094,-0.019 0.303,-0.094 0.303,-0.094 l 0.343,-0.019 c 0,0 0.418,0.094 0.588,0.094 0.172,0 0.134,-0.076 0.438,0.057 0.303,0.133 0.393,0.158 0.64,0.273 0.247,0.113 0.075,0.025 0.341,0.12 0.266,0.094 0.248,0.139 0.569,0.214 0.323,0.077 0.342,0.146 0.627,0.241 0.285,0.095 0.398,0.158 0.514,0.158 0.113,0 0.271,-0.095 0.31,-0.171 0.037,-0.076 0.113,-0.208 0.113,-0.208 0,0 0.229,-0.265 0.305,-0.341 z"
           id="path147"
           inkscape:connector-curvature="0"
           style="fill:#434142" /></g><g
         id="g149"><g
           id="g151"><g
             id="g153"><path
               clip-rule="evenodd"
               d="m 197.465,64.041 c 0.006,-0.352 0.035,-0.667 -0.031,-0.979 -0.071,-0.335 -0.321,-0.603 -0.44,-0.907 -0.123,-0.313 -0.181,-0.678 -0.321,-0.979 -0.098,0.332 -0.111,0.695 -0.187,0.993 -0.086,0.337 -0.166,0.644 -0.204,0.951 -0.042,0.337 -0.174,0.722 -0.131,1.04 0.272,-0.037 0.856,-0.404 1.314,-0.119 z"
               id="path155"
               inkscape:connector-curvature="0"
               style="fill:#434142;fill-rule:evenodd" /></g></g><g
           id="g157"><g
             id="g159"><path
               clip-rule="evenodd"
               d="m 201.548,65.654 c -0.004,-0.314 0.017,-0.563 -0.052,-0.843 -0.071,-0.299 -0.235,-0.558 -0.374,-0.817 -0.143,-0.262 -0.266,-0.543 -0.472,-0.768 -0.197,-0.215 -0.499,-0.449 -0.75,-0.632 0.103,0.305 0.349,0.642 0.44,0.953 0.089,0.302 0.092,0.635 0.131,0.965 0.036,0.303 0.029,0.618 -0.008,0.962 0.308,-0.097 0.77,-0.002 1.085,0.18 z"
               id="path161"
               inkscape:connector-curvature="0"
               style="fill:#434142;fill-rule:evenodd" /></g></g><g
           id="g163"><g
             id="g165"><path
               clip-rule="evenodd"
               d="m 193.704,65.305 c -0.075,-0.293 -0.204,-0.701 -0.19,-1.046 0.014,-0.306 0.131,-0.624 0.192,-0.957 0.057,-0.309 0.095,-0.612 0.173,-0.935 -0.213,0.161 -0.418,0.359 -0.605,0.626 -0.165,0.234 -0.348,0.49 -0.469,0.775 -0.116,0.274 -0.065,0.603 -0.121,0.896 -0.057,0.299 -0.144,0.525 -0.117,0.817 0.345,-0.153 0.661,-0.252 1.137,-0.176 z"
               id="path167"
               inkscape:connector-curvature="0"
               style="fill:#434142;fill-rule:evenodd" /></g></g><g
           id="g169"><g
             id="g171"><path
               clip-rule="evenodd"
               d="m 196.952,64.383 c -0.359,-0.022 -0.67,0.173 -0.857,0.369 -0.212,0.221 -0.333,0.465 -0.438,0.748 -0.106,0.279 -0.161,0.553 -0.177,0.854 -0.014,0.305 -10e-4,0.591 0.063,0.88 0.068,0.308 0.181,0.57 0.321,0.814 0.167,0.291 0.308,0.547 0.548,0.672 0.311,0.16 0.59,0.19 0.845,0.117 0.274,-0.081 0.574,-0.218 0.761,-0.463 0.178,-0.229 0.277,-0.546 0.359,-0.824 0.089,-0.302 0.047,-0.647 0.044,-0.989 -0.003,-0.334 0.005,-0.67 -0.091,-0.978 -0.106,-0.333 -0.299,-0.6 -0.522,-0.821 -0.229,-0.229 -0.494,-0.357 -0.856,-0.379 z"
               id="path173"
               inkscape:connector-curvature="0"
               style="fill:#434142;fill-rule:evenodd" /></g></g><g
           id="g175"><g
             id="g177"><path
               clip-rule="evenodd"
               d="m 200.692,65.716 c -0.333,-0.026 -0.591,0.105 -0.853,0.298 -0.24,0.178 -0.516,0.36 -0.682,0.656 -0.15,0.269 -0.199,0.599 -0.277,0.914 -0.079,0.313 -0.238,0.628 -0.236,0.939 0.002,0.336 0.208,0.63 0.319,0.906 0.126,0.311 0.257,0.588 0.539,0.738 0.167,0.089 0.365,0.223 0.54,0.23 0.318,0.013 0.66,-0.111 0.911,-0.308 0.228,-0.177 0.321,-0.518 0.48,-0.807 0.144,-0.261 0.264,-0.538 0.342,-0.844 0.076,-0.303 0.153,-0.604 0.154,-0.907 0.001,-0.325 0.025,-0.658 -0.071,-0.933 -0.108,-0.309 -0.335,-0.555 -0.588,-0.724 -0.199,-0.133 -0.423,-0.145 -0.578,-0.158 z"
               id="path179"
               inkscape:connector-curvature="0"
               style="fill:#434142;fill-rule:evenodd" /></g></g><g
           id="g181"><g
             id="g183"><path
               clip-rule="evenodd"
               d="m 203.988,69.431 c 0.032,-0.32 0.035,-0.542 0.005,-0.825 -0.036,-0.313 -0.069,-0.611 -0.175,-0.883 -0.11,-0.282 -0.237,-0.562 -0.413,-0.807 -0.171,-0.24 -0.417,-0.467 -0.641,-0.677 0.052,0.317 0.211,0.633 0.27,0.947 0.057,0.303 0.101,0.627 0.096,0.964 -0.004,0.29 -0.148,0.624 -0.243,0.967 0.398,0.03 0.876,0.097 1.101,0.314 z"
               id="path185"
               inkscape:connector-curvature="0"
               style="fill:#434142;fill-rule:evenodd" /></g></g><g
           id="g187"><g
             id="g189"><path
               clip-rule="evenodd"
               d="m 192.23,68.941 c 0.127,0.296 0.301,0.572 0.5,0.757 0.238,0.222 0.556,0.302 0.828,0.334 0.29,0.036 0.601,-0.008 0.846,-0.223 0.19,-0.163 0.264,-0.458 0.381,-0.792 0.101,-0.285 0.301,-0.563 0.311,-0.869 0.011,-0.307 -0.047,-0.63 -0.114,-0.922 -0.07,-0.31 -0.238,-0.586 -0.379,-0.835 -0.164,-0.292 -0.331,-0.589 -0.568,-0.728 -0.186,-0.11 -0.526,-0.186 -0.609,-0.192 -0.378,-0.026 -0.643,0.257 -0.86,0.532 -0.19,0.243 -0.322,0.551 -0.397,0.912 -0.07,0.326 -0.086,0.669 -0.065,1.008 0.022,0.369 0.009,0.74 0.126,1.018 z"
               id="path191"
               inkscape:connector-curvature="0"
               style="fill:#434142;fill-rule:evenodd" /></g></g><g
           id="g193"><g
             id="g195"><path
               clip-rule="evenodd"
               d="m 190.814,68.285 c -0.052,-0.293 -0.086,-0.684 -0.071,-1.018 0.016,-0.31 0.058,-0.627 0.119,-0.944 0.06,-0.315 0.119,-0.626 0.211,-0.924 -0.225,0.138 -0.41,0.366 -0.602,0.628 -0.165,0.225 -0.426,0.43 -0.547,0.712 -0.116,0.268 -0.204,0.572 -0.262,0.863 -0.061,0.294 -0.007,0.618 0.007,0.906 0.362,-0.109 0.671,-0.314 1.145,-0.223 z"
               id="path197"
               inkscape:connector-curvature="0"
               style="fill:#434142;fill-rule:evenodd" /></g></g><g
           id="g199"><g
             id="g201"><path
               clip-rule="evenodd"
               d="m 202.506,73.533 c 0.33,0.036 0.568,-0.134 0.813,-0.334 0.225,-0.183 0.548,-0.339 0.688,-0.641 0.126,-0.273 0.1,-0.624 0.148,-0.935 0.049,-0.314 0.155,-0.638 0.114,-0.936 -0.046,-0.331 -0.217,-0.626 -0.385,-0.86 -0.184,-0.25 -0.435,-0.487 -0.774,-0.532 -0.339,-0.044 -0.59,0.198 -0.843,0.393 -0.233,0.182 -0.42,0.402 -0.568,0.707 -0.133,0.276 -0.228,0.567 -0.278,0.884 -0.051,0.32 -0.042,0.625 0.002,0.927 0.05,0.334 0.063,0.67 0.247,0.902 0.192,0.243 0.482,0.386 0.836,0.425 z"
               id="path203"
               inkscape:connector-curvature="0"
               style="fill:#434142;fill-rule:evenodd" /></g></g><g
           id="g205"><g
             id="g207"><path
               clip-rule="evenodd"
               d="m 203.584,76.104 c 0.058,-0.451 -0.168,-1.042 -0.473,-1.345 -0.214,-0.213 -0.562,-0.3 -0.874,-0.445 -0.297,-0.138 -0.552,-0.35 -0.798,-0.547 -0.302,-0.239 -0.485,-0.492 -0.638,-0.78 -0.166,-0.309 -0.333,-0.605 -0.446,-0.932 -0.112,-0.327 -0.268,-0.628 -0.451,-0.929 -0.155,-0.253 -0.319,-0.561 -0.613,-0.778 -0.248,-0.183 -0.54,-0.379 -0.866,-0.51 -0.292,-0.117 -0.652,-0.077 -0.993,-0.133 -0.349,-0.057 -0.724,-0.111 -1.108,-0.074 -0.382,0.035 -0.732,0.182 -1.066,0.299 -0.407,0.142 -0.717,0.304 -0.913,0.547 -0.165,0.205 -0.314,0.493 -0.435,0.825 -0.117,0.32 -0.301,0.607 -0.465,0.827 -0.199,0.263 -0.396,0.533 -0.689,0.683 -0.285,0.145 -0.607,0.244 -0.912,0.357 -0.314,0.121 -0.627,0.214 -0.887,0.382 -0.273,0.176 -0.515,0.384 -0.639,0.709 -0.101,0.269 -0.037,0.543 0.004,0.82 0.04,0.273 0.084,0.544 0.211,0.791 0.133,0.261 0.293,0.497 0.46,0.692 0.184,0.217 0.349,0.493 0.595,0.683 0.233,0.177 0.53,0.286 0.811,0.41 0.268,0.118 0.556,0.218 0.859,0.26 0.329,0.046 0.659,-0.004 0.991,-0.042 0.324,-0.038 0.669,-0.008 0.997,-0.086 0.32,-0.076 0.614,-0.284 0.936,-0.359 0.325,-0.076 0.663,-0.094 0.99,-0.131 0.329,-0.037 0.664,-0.065 0.995,-0.023 0.261,0.033 0.518,0.203 0.813,0.302 0.265,0.089 0.558,0.138 0.832,0.235 0.279,0.1 0.546,0.237 0.815,0.303 0.302,0.073 0.601,0.032 0.867,0.004 0.294,-0.032 0.615,-0.168 0.932,-0.381 0.276,-0.184 0.587,-0.376 0.788,-0.663 0.195,-0.284 0.325,-0.624 0.37,-0.971 z"
               id="path209"
               inkscape:connector-curvature="0"
               style="fill:#434142;fill-rule:evenodd" /></g></g><g
           id="g211"><g
             id="g213"><path
               clip-rule="evenodd"
               d="m 191.773,72.508 c 0.31,-0.212 0.579,-0.417 0.666,-0.741 0.084,-0.319 0.042,-0.683 -0.02,-1.031 -0.064,-0.341 -0.203,-0.669 -0.345,-0.963 -0.181,-0.373 -0.393,-0.669 -0.583,-0.828 -0.199,-0.167 -0.63,-0.396 -0.949,-0.414 -0.417,-0.023 -0.833,0.193 -0.993,0.422 -0.172,0.244 -0.217,0.577 -0.251,0.886 -0.033,0.291 0.042,0.589 0.108,0.892 0.062,0.295 0.187,0.563 0.322,0.829 0.143,0.28 0.274,0.55 0.477,0.75 0.232,0.231 0.463,0.494 0.74,0.549 0.279,0.055 0.539,-0.155 0.828,-0.351 z"
               id="path215"
               inkscape:connector-curvature="0"
               style="fill:#434142;fill-rule:evenodd" /></g></g></g></g><g
       id="g217"><path
         d="m 148.588,235.043 c -0.381,0.119 -0.796,0.179 -1.25,0.179 -0.538,0 -1.022,-0.083 -1.453,-0.249 -0.432,-0.165 -0.802,-0.398 -1.107,-0.699 -0.305,-0.298 -0.542,-0.657 -0.705,-1.078 -0.166,-0.418 -0.248,-0.88 -0.248,-1.383 0,-0.51 0.079,-0.974 0.24,-1.393 0.159,-0.42 0.387,-0.779 0.682,-1.08 0.295,-0.297 0.654,-0.531 1.076,-0.695 0.423,-0.165 0.896,-0.248 1.417,-0.248 0.264,0 0.51,0.02 0.736,0.061 0.227,0.038 0.436,0.094 0.628,0.166 0.192,0.072 0.371,0.163 0.536,0.266 0.164,0.104 0.317,0.223 0.462,0.353 l -0.256,0.41 c -0.042,0.063 -0.093,0.101 -0.156,0.12 -0.064,0.015 -0.135,0 -0.214,-0.048 -0.073,-0.04 -0.158,-0.096 -0.256,-0.157 -0.095,-0.062 -0.213,-0.122 -0.35,-0.179 -0.139,-0.059 -0.302,-0.106 -0.489,-0.146 -0.188,-0.041 -0.412,-0.061 -0.669,-0.061 -0.375,0 -0.716,0.062 -1.021,0.183 -0.305,0.123 -0.563,0.299 -0.778,0.527 -0.215,0.228 -0.378,0.504 -0.494,0.828 -0.117,0.326 -0.173,0.69 -0.173,1.094 0,0.418 0.06,0.793 0.181,1.124 0.119,0.331 0.29,0.612 0.512,0.843 0.222,0.231 0.491,0.409 0.809,0.529 0.316,0.122 0.671,0.183 1.067,0.183 0.154,0 0.3,-0.011 0.435,-0.028 0.136,-0.019 0.265,-0.045 0.388,-0.076 0.126,-0.032 0.245,-0.074 0.359,-0.122 0.115,-0.048 0.232,-0.104 0.349,-0.165 v -1.471 h -1.038 c -0.058,0 -0.106,-0.018 -0.142,-0.054 -0.036,-0.033 -0.053,-0.076 -0.053,-0.125 v -0.512 h 2.05 v 2.562 c -0.336,0.24 -0.694,0.423 -1.075,0.541 z"
         id="path219"
         inkscape:connector-curvature="0"
         style="fill:#211915" /><path
         d="m 154.275,232.361 v 2.786 h -0.9 v -6.675 h 1.887 c 0.421,0 0.788,0.042 1.095,0.127 0.306,0.085 0.561,0.209 0.761,0.37 0.199,0.163 0.349,0.356 0.444,0.586 0.096,0.227 0.146,0.483 0.146,0.765 0,0.237 -0.038,0.457 -0.112,0.662 -0.075,0.205 -0.183,0.39 -0.323,0.553 -0.142,0.164 -0.314,0.303 -0.518,0.421 -0.204,0.115 -0.435,0.2 -0.692,0.257 0.119,0.074 0.218,0.168 0.299,0.283 l 1.947,2.651 h -0.803 c -0.163,0 -0.285,-0.062 -0.361,-0.191 l -1.734,-2.384 c -0.054,-0.076 -0.11,-0.13 -0.17,-0.161 -0.06,-0.032 -0.154,-0.05 -0.282,-0.05 h -0.684 z m 0,-0.656 h 0.95 c 0.26,0 0.491,-0.03 0.692,-0.096 0.2,-0.063 0.366,-0.154 0.501,-0.27 0.136,-0.116 0.237,-0.257 0.305,-0.418 0.068,-0.16 0.104,-0.34 0.104,-0.534 0,-0.398 -0.13,-0.699 -0.391,-0.901 -0.262,-0.201 -0.653,-0.302 -1.174,-0.302 h -0.987 v 2.521 z"
         id="path221"
         inkscape:connector-curvature="0"
         style="fill:#211915" /><path
         d="m 166.969,235.147 h -0.698 c -0.083,0 -0.147,-0.02 -0.196,-0.061 -0.051,-0.04 -0.088,-0.092 -0.112,-0.153 l -0.624,-1.611 h -2.996 l -0.624,1.611 c -0.019,0.057 -0.054,0.104 -0.106,0.148 -0.054,0.044 -0.12,0.065 -0.195,0.065 h -0.7 l 2.669,-6.675 h 0.914 l 2.668,6.676 z m -4.374,-2.478 h 2.493 l -1.049,-2.717 c -0.034,-0.079 -0.067,-0.172 -0.1,-0.279 -0.032,-0.104 -0.064,-0.218 -0.1,-0.338 -0.032,0.12 -0.063,0.235 -0.096,0.341 -0.032,0.106 -0.067,0.2 -0.1,0.28 l -1.048,2.713 z"
         id="path223"
         inkscape:connector-curvature="0"
         style="fill:#211915" /><path
         d="m 171.077,232.65 v 2.497 h -0.897 v -6.675 h 1.97 c 0.421,0 0.79,0.046 1.102,0.146 0.313,0.098 0.57,0.237 0.777,0.416 0.204,0.181 0.355,0.398 0.457,0.653 0.101,0.253 0.153,0.536 0.153,0.854 0,0.31 -0.054,0.593 -0.164,0.852 -0.108,0.256 -0.268,0.479 -0.478,0.667 -0.209,0.186 -0.469,0.331 -0.778,0.434 -0.309,0.104 -0.665,0.156 -1.069,0.156 h -1.073 z m 0,-0.717 h 1.073 c 0.259,0 0.484,-0.035 0.683,-0.103 0.197,-0.067 0.364,-0.164 0.498,-0.284 0.135,-0.124 0.237,-0.271 0.305,-0.441 0.068,-0.17 0.104,-0.357 0.104,-0.563 0,-0.427 -0.131,-0.76 -0.396,-0.999 -0.26,-0.238 -0.66,-0.358 -1.194,-0.358 h -1.073 v 2.748 z"
         id="path225"
         inkscape:connector-curvature="0"
         style="fill:#211915" /><path
         d="m 183.512,235.147 h -0.903 v -3.037 h -3.601 v 3.037 h -0.905 v -6.675 h 0.905 v 2.976 h 3.601 v -2.976 h 0.903 v 6.675 z"
         id="path227"
         inkscape:connector-curvature="0"
         style="fill:#211915" /><path
         d="m 188.451,235.147 h -0.905 v -6.675 h 0.905 v 6.675 z"
         id="path229"
         inkscape:connector-curvature="0"
         style="fill:#211915" /><path
         d="m 197.171,233.769 c 0.05,0 0.093,0.021 0.13,0.061 l 0.36,0.388 c -0.274,0.316 -0.605,0.563 -0.996,0.739 -0.39,0.178 -0.861,0.266 -1.413,0.266 -0.478,0 -0.914,-0.083 -1.305,-0.249 -0.391,-0.165 -0.726,-0.398 -1.003,-0.699 -0.275,-0.298 -0.488,-0.657 -0.642,-1.078 -0.152,-0.418 -0.228,-0.88 -0.228,-1.383 0,-0.504 0.08,-0.965 0.237,-1.384 0.158,-0.42 0.383,-0.781 0.669,-1.08 0.287,-0.303 0.631,-0.536 1.031,-0.703 0.401,-0.164 0.844,-0.249 1.327,-0.249 0.476,0 0.895,0.078 1.259,0.229 0.363,0.152 0.683,0.359 0.959,0.619 l -0.297,0.416 c -0.019,0.03 -0.044,0.057 -0.074,0.076 -0.028,0.021 -0.069,0.03 -0.118,0.03 -0.055,0 -0.124,-0.03 -0.204,-0.091 -0.08,-0.06 -0.186,-0.127 -0.317,-0.203 -0.131,-0.072 -0.294,-0.142 -0.489,-0.203 -0.197,-0.059 -0.438,-0.089 -0.723,-0.089 -0.345,0 -0.66,0.061 -0.947,0.179 -0.285,0.118 -0.53,0.292 -0.737,0.519 -0.206,0.229 -0.367,0.505 -0.482,0.828 -0.115,0.328 -0.173,0.697 -0.173,1.106 0,0.414 0.06,0.786 0.18,1.113 0.119,0.326 0.282,0.603 0.489,0.827 0.207,0.224 0.451,0.396 0.731,0.515 0.281,0.119 0.586,0.177 0.912,0.177 0.198,0 0.378,-0.01 0.538,-0.033 0.16,-0.024 0.307,-0.062 0.443,-0.111 0.134,-0.05 0.26,-0.111 0.376,-0.189 0.117,-0.074 0.233,-0.166 0.348,-0.272 0.053,-0.049 0.106,-0.072 0.159,-0.072 z"
         id="path231"
         inkscape:connector-curvature="0"
         style="fill:#211915" /><path
         d="m 211.538,231.813 c 0,0.499 -0.078,0.954 -0.237,1.365 -0.158,0.41 -0.382,0.761 -0.67,1.053 -0.29,0.292 -0.637,0.517 -1.041,0.678 -0.406,0.159 -0.854,0.239 -1.345,0.239 h -2.493 v -6.675 h 2.493 c 0.491,0 0.938,0.079 1.345,0.24 0.404,0.158 0.751,0.387 1.041,0.68 0.288,0.292 0.512,0.645 0.67,1.056 0.159,0.407 0.237,0.864 0.237,1.364 z m -0.927,0 c 0,-0.409 -0.057,-0.777 -0.168,-1.101 -0.11,-0.322 -0.27,-0.595 -0.476,-0.818 -0.204,-0.225 -0.453,-0.395 -0.745,-0.513 -0.291,-0.119 -0.618,-0.178 -0.978,-0.178 h -1.589 v 5.215 h 1.589 c 0.359,0 0.687,-0.062 0.978,-0.179 0.292,-0.118 0.541,-0.286 0.745,-0.51 0.206,-0.223 0.365,-0.495 0.476,-0.817 0.112,-0.324 0.168,-0.69 0.168,-1.099 z"
         id="path233"
         inkscape:connector-curvature="0"
         style="fill:#211915" /><path
         d="m 219.281,228.473 v 0.736 h -3.211 v 2.216 h 2.601 v 0.708 h -2.601 v 2.278 h 3.215 l -0.004,0.736 h -4.113 v -6.675 h 4.113 z"
         id="path235"
         inkscape:connector-curvature="0"
         style="fill:#211915" /><path
         d="m 226.292,229.515 c -0.027,0.047 -0.058,0.082 -0.091,0.104 -0.032,0.025 -0.071,0.036 -0.117,0.036 -0.055,0 -0.117,-0.027 -0.186,-0.08 -0.073,-0.051 -0.163,-0.109 -0.271,-0.174 -0.105,-0.063 -0.234,-0.122 -0.386,-0.175 -0.151,-0.052 -0.333,-0.08 -0.548,-0.08 -0.201,0 -0.379,0.028 -0.532,0.082 -0.153,0.053 -0.283,0.129 -0.387,0.223 -0.104,0.092 -0.183,0.202 -0.236,0.328 -0.052,0.125 -0.079,0.26 -0.079,0.406 0,0.187 0.048,0.34 0.138,0.464 0.093,0.122 0.215,0.229 0.364,0.313 0.151,0.089 0.322,0.165 0.512,0.227 0.191,0.063 0.387,0.131 0.586,0.2 0.202,0.067 0.397,0.144 0.588,0.23 0.193,0.085 0.363,0.192 0.514,0.322 0.149,0.131 0.271,0.29 0.362,0.481 0.093,0.188 0.139,0.421 0.139,0.698 0,0.291 -0.052,0.565 -0.15,0.822 -0.1,0.256 -0.243,0.479 -0.436,0.667 -0.189,0.191 -0.425,0.34 -0.705,0.447 -0.275,0.11 -0.593,0.163 -0.946,0.163 -0.435,0 -0.828,-0.078 -1.182,-0.235 -0.355,-0.155 -0.658,-0.368 -0.91,-0.636 l 0.262,-0.428 c 0.024,-0.034 0.057,-0.063 0.09,-0.087 0.035,-0.023 0.076,-0.033 0.118,-0.033 0.041,0 0.087,0.014 0.139,0.047 0.051,0.034 0.109,0.075 0.175,0.124 0.064,0.05 0.14,0.104 0.224,0.163 0.084,0.059 0.18,0.113 0.286,0.163 0.107,0.05 0.229,0.092 0.366,0.124 0.137,0.033 0.291,0.049 0.461,0.049 0.215,0 0.405,-0.029 0.573,-0.09 0.168,-0.059 0.31,-0.142 0.427,-0.248 0.115,-0.107 0.204,-0.237 0.268,-0.386 0.062,-0.148 0.094,-0.313 0.094,-0.497 0,-0.202 -0.047,-0.366 -0.138,-0.496 -0.092,-0.129 -0.212,-0.237 -0.361,-0.323 -0.149,-0.087 -0.32,-0.161 -0.514,-0.222 -0.191,-0.061 -0.388,-0.124 -0.586,-0.186 -0.2,-0.064 -0.395,-0.139 -0.587,-0.222 -0.193,-0.085 -0.363,-0.192 -0.513,-0.327 -0.15,-0.135 -0.269,-0.301 -0.361,-0.501 -0.092,-0.2 -0.138,-0.448 -0.138,-0.742 0,-0.236 0.046,-0.465 0.138,-0.685 0.093,-0.222 0.226,-0.416 0.402,-0.588 0.175,-0.172 0.39,-0.308 0.646,-0.41 0.255,-0.102 0.551,-0.154 0.883,-0.154 0.373,0 0.712,0.061 1.018,0.179 0.307,0.117 0.575,0.288 0.808,0.512 l -0.221,0.431 z"
         id="path237"
         inkscape:connector-curvature="0"
         style="fill:#211915" /><path
         d="m 231.165,235.147 h -0.903 v -6.675 h 0.903 v 6.675 z"
         id="path239"
         inkscape:connector-curvature="0"
         style="fill:#211915" /><path
         d="m 239.548,235.043 c -0.38,0.119 -0.797,0.179 -1.25,0.179 -0.537,0 -1.022,-0.083 -1.454,-0.249 -0.431,-0.165 -0.801,-0.398 -1.106,-0.699 -0.305,-0.298 -0.54,-0.657 -0.706,-1.078 -0.165,-0.418 -0.245,-0.88 -0.245,-1.383 0,-0.51 0.078,-0.974 0.238,-1.393 0.161,-0.42 0.387,-0.779 0.683,-1.08 0.296,-0.297 0.655,-0.531 1.078,-0.695 0.421,-0.165 0.892,-0.248 1.415,-0.248 0.263,0 0.509,0.02 0.736,0.061 0.227,0.038 0.435,0.094 0.628,0.166 0.193,0.072 0.371,0.163 0.538,0.266 0.161,0.104 0.316,0.223 0.46,0.353 l -0.255,0.41 c -0.044,0.063 -0.093,0.101 -0.159,0.12 -0.063,0.015 -0.133,0 -0.211,-0.048 -0.074,-0.04 -0.16,-0.096 -0.257,-0.157 -0.098,-0.062 -0.214,-0.122 -0.351,-0.179 -0.14,-0.059 -0.303,-0.106 -0.49,-0.146 -0.188,-0.041 -0.409,-0.061 -0.669,-0.061 -0.375,0 -0.715,0.062 -1.02,0.183 -0.305,0.123 -0.563,0.299 -0.779,0.527 -0.213,0.229 -0.378,0.504 -0.493,0.828 -0.113,0.326 -0.172,0.69 -0.172,1.094 0,0.418 0.061,0.793 0.181,1.124 0.118,0.331 0.288,0.612 0.512,0.843 0.223,0.231 0.492,0.409 0.808,0.529 0.318,0.122 0.673,0.183 1.066,0.183 0.157,0 0.303,-0.011 0.436,-0.028 0.137,-0.019 0.267,-0.045 0.39,-0.076 0.124,-0.032 0.245,-0.074 0.359,-0.122 0.114,-0.048 0.229,-0.104 0.349,-0.165 v -1.471 h -1.037 c -0.061,0 -0.108,-0.018 -0.145,-0.054 -0.034,-0.033 -0.053,-0.076 -0.053,-0.125 v -0.512 h 2.05 v 2.562 c -0.335,0.24 -0.694,0.423 -1.075,0.541 z"
         id="path241"
         inkscape:connector-curvature="0"
         style="fill:#211915" /><path
         d="m 244.902,228.479 c 0.029,0.006 0.055,0.013 0.076,0.023 0.021,0.009 0.044,0.026 0.065,0.046 0.021,0.02 0.045,0.046 0.069,0.076 l 3.861,5.026 c -0.006,-0.079 -0.012,-0.157 -0.015,-0.235 -0.005,-0.074 -0.008,-0.148 -0.008,-0.216 v -4.728 h 0.792 v 6.675 h -0.451 c -0.071,0 -0.133,-0.013 -0.18,-0.035 -0.049,-0.025 -0.096,-0.069 -0.143,-0.128 l -3.863,-5.028 c 0.009,0.079 0.013,0.155 0.016,0.229 0.002,0.076 0.004,0.142 0.004,0.206 v 4.756 h -0.792 v -6.675 h 0.465 c 0.044,0.002 0.078,0.004 0.104,0.008 z"
         id="path243"
         inkscape:connector-curvature="0"
         style="fill:#211915" /></g></g></svg>