<?xml version="1.0" encoding="UTF-8" standalone="no"?>
<!-- Generator: Adobe Illustrator 16.0.0, SVG Export Plug-In . SVG Version: 6.00 Build 0)  -->

<svg
   xmlns:dc="http://purl.org/dc/elements/1.1/"
   xmlns:cc="http://creativecommons.org/ns#"
   xmlns:rdf="http://www.w3.org/1999/02/22-rdf-syntax-ns#"
   xmlns:svg="http://www.w3.org/2000/svg"
   xmlns="http://www.w3.org/2000/svg"
   xmlns:sodipodi="http://sodipodi.sourceforge.net/DTD/sodipodi-0.dtd"
   xmlns:inkscape="http://www.inkscape.org/namespaces/inkscape"
   version="1.1"
   id="Capa_1"
   x="0px"
   y="0px"
   width="70"
   height="70"
   viewBox="0 0 70 70"
   enable-background="new 0 0 100 100"
   xml:space="preserve"
   inkscape:version="0.48.5 r10040"
   sodipodi:docname="logo-light-v2.svg"><metadata
     id="metadata163"><rdf:RDF><cc:Work
         rdf:about=""><dc:format>image/svg+xml</dc:format><dc:type
           rdf:resource="http://purl.org/dc/dcmitype/StillImage" /><dc:title /></cc:Work></rdf:RDF></metadata><defs
     id="defs161" /><sodipodi:namedview
     pagecolor="#ffffff"
     bordercolor="#666666"
     borderopacity="1"
     objecttolerance="10"
     gridtolerance="10"
     guidetolerance="10"
     inkscape:pageopacity="0"
     inkscape:pageshadow="2"
     inkscape:window-width="1366"
     inkscape:window-height="718"
     id="namedview159"
     showgrid="false"
     inkscape:zoom="4"
     inkscape:cx="56.913596"
     inkscape:cy="31.242399"
     inkscape:window-x="-3"
     inkscape:window-y="27"
     inkscape:window-maximized="1"
     inkscape:current-layer="Capa_1"
     fit-margin-top="0"
     fit-margin-left="0"
     fit-margin-right="0"
     fit-margin-bottom="0" /><g
     id="g3"
     transform="matrix(0.7690533,0,0,0.7690533,-3.4530493,-3.4530493)"><g
       id="g5"><g
         id="g7"><g
           id="g9"><path
             d="m 27.902,49.867 c 3.946,0.298 5.306,2.049 5.306,3.76 0,2.657 -2.204,4.089 -5.82,4.089 -0.659,0 -1.967,-0.061 -3.761,-0.061 -1.246,0 -2.534,0.021 -3.245,0.061 v -0.422 c 1.339,-0.063 1.576,-0.277 1.576,-1.813 V 45.015 c 0,-1.535 -0.246,-1.752 -1.576,-1.814 v -0.422 c 0.711,0.042 2.02,0.063 3.203,0.063 1.382,0 2.783,-0.042 3.318,-0.042 3.481,0 5.213,1.37 5.213,3.317 0,1.494 -1.267,3.164 -4.214,3.708 v 0.042 z m -1.678,-0.082 c 1.988,0 2.472,-1.608 2.472,-3.442 0,-2.07 -0.576,-3.142 -2.069,-3.142 -1.082,0 -1.31,0.362 -1.31,1.814 v 4.77 h 0.907 z m -0.908,5.696 c 0,1.474 0.247,1.75 1.452,1.75 2.062,0 2.936,-1.328 2.936,-3.698 0,-2.143 -0.998,-3.39 -3.502,-3.39 h -0.886 v 5.338 z"
             id="path11"
             inkscape:connector-curvature="0"
             style="fill:#e1e2e3" /></g></g><g
         id="g13"><path
           d="m 75.385,42.757 c 0.947,0.042 1.754,0.063 2.628,0.063 0.618,0 1.186,-0.021 1.608,-0.063 v 0.423 c -0.609,0.237 -1.36,0.928 -1.926,2.503 l -4.463,12.054 c -0.227,-0.011 -0.483,-0.021 -0.73,-0.021 -0.259,0 -0.505,0.011 -0.732,0.021 L 66.393,44.529 c -0.402,-1.01 -0.917,-1.328 -1.328,-1.349 v -0.423 c 0.841,0.042 2.049,0.063 3.213,0.063 1.298,0 2.514,-0.021 3.205,-0.063 v 0.423 c -0.979,0.041 -1.484,0.175 -1.484,0.782 0,0.238 0.082,0.567 0.247,0.989 l 3.729,9.45 2.597,-7.006 c 0.401,-1.092 0.587,-1.927 0.587,-2.555 0,-1.174 -0.648,-1.63 -1.773,-1.659 v -0.424 z"
           id="path15"
           inkscape:connector-curvature="0"
           style="fill:#e1e2e3" /></g><g
         id="g17"><g
           id="g19"><g
             id="g21"><g
               id="g23"><rect
                 x="49.608002"
                 y="19.639"
                 transform="matrix(-0.7045,0.7097,-0.7097,-0.7045,120.9553,50.4163)"
                 width="0.74699998"
                 height="61.500999"
                 id="rect25"
                 style="fill:#e1e2e3" /></g></g><g
             id="g27"><g
               id="g29"><polygon
                 points="28.187,24.082 28.824,24.092 28.734,29.216 23.763,29.132 23.771,28.498 28.109,28.569 "
                 id="polygon31"
                 style="fill:#e1e2e3" /></g></g><g
             id="g33"><g
               id="g35"><polygon
                 points="31.589,27.475 32.225,27.484 32.135,32.606 27.16,32.524 27.173,31.888 31.51,31.959 "
                 id="polygon37"
                 style="fill:#e1e2e3" /></g></g><g
             id="g39"><g
               id="g41"><polygon
                 points="34.829,30.706 35.465,30.718 35.376,35.84 30.402,35.755 30.412,35.119 34.751,35.192 "
                 id="polygon43"
                 style="fill:#e1e2e3" /></g></g><g
             id="g45"><g
               id="g47"><polygon
                 points="71.372,71.773 72.718,69.284 75.813,76.203 68.884,73.125 "
                 id="polygon49"
                 style="fill:#e1e2e3" /></g></g></g><g
           id="g51"><g
             id="g53"><g
               id="g55"><rect
                 x="49.256001"
                 y="19.355"
                 transform="matrix(0.7032,0.711,-0.711,0.7032,50.3579,-20.4139)"
                 width="0.74599999"
                 height="61.501999"
                 id="rect57"
                 style="fill:#e1e2e3" /></g></g><g
             id="g59"><g
               id="g61"><polygon
                 points="71.422,23.798 70.787,23.81 70.878,28.932 75.849,28.849 75.839,28.212 71.5,28.285 "
                 id="polygon63"
                 style="fill:#e1e2e3" /></g></g><g
             id="g65"><g
               id="g67"><polygon
                 points="68.021,27.191 67.386,27.2 67.477,32.323 72.447,32.241 72.438,31.604 68.1,31.676 "
                 id="polygon69"
                 style="fill:#e1e2e3" /></g></g><g
             id="g71"><g
               id="g73"><polygon
                 points="64.782,30.422 64.147,30.433 64.234,35.557 69.207,35.472 69.197,34.835 64.859,34.91 "
                 id="polygon75"
                 style="fill:#e1e2e3" /></g></g><g
             id="g77"><g
               id="g79"><polygon
                 points="28.237,71.489 26.893,69.001 23.796,75.919 30.725,72.844 "
                 id="polygon81"
                 style="fill:#e1e2e3" /></g></g></g></g></g><g
       id="g83"><path
         d="M 50.002,95.511 C 24.907,95.511 4.49,75.094 4.49,50 4.49,24.906 24.907,4.49 50.002,4.49 c 25.092,0 45.509,20.416 45.509,45.51 0,25.094 -20.417,45.511 -45.509,45.511 z m 0,-89.946 C 25.499,5.565 5.564,25.5 5.564,50 5.564,74.5 25.499,94.434 50.002,94.434 74.502,94.434 94.436,74.5 94.436,50 94.436,25.5 74.502,5.565 50.002,5.565 z"
         id="path85"
         inkscape:connector-curvature="0"
         style="fill:#e1e2e3" /></g><g
       id="g87"><path
         d="m 58.88,74.52 c 0.061,-0.061 0.137,-0.181 0.196,-0.268 0.06,-0.093 0.06,-0.151 0.104,-0.181 0.044,-0.031 0,-0.212 -0.045,-0.271 -0.044,-0.059 -0.119,-0.059 -0.375,-0.254 -0.253,-0.196 -0.464,-0.6 -0.538,-0.731 -0.074,-0.136 -0.062,-0.274 -0.271,-0.451 -0.208,-0.181 -0.389,-0.255 -0.492,-0.313 -0.105,-0.062 -0.238,-0.286 -0.315,-0.332 -0.074,-0.044 -0.147,-0.073 -0.147,-0.164 0,-0.09 -0.031,-0.464 -0.105,-0.509 -0.076,-0.045 -0.151,-0.074 -0.226,-0.061 -0.074,0.016 -0.209,0.016 -0.209,0.016 l -0.18,0.028 -0.148,-0.073 c 0,0 0.059,-0.224 -0.031,-0.271 -0.09,-0.043 -0.149,-0.088 -0.225,-0.104 -0.074,-0.016 -0.181,0.029 -0.181,0.029 0,0 -0.119,0.045 -0.178,0.074 -0.061,0.032 -0.226,0.076 -0.226,0.076 0,0 -0.389,-0.09 -0.495,-0.09 -0.104,0 -0.611,0 -0.822,0 -0.21,0 -0.164,-0.15 -0.404,-0.164 -0.238,-0.016 -0.51,-0.151 -0.675,-0.151 -0.164,0 -0.374,-0.028 -0.538,-0.028 -0.165,0 -0.24,0 -0.39,0.044 -0.148,0.046 -0.39,0.149 -0.747,0.149 -0.359,0 -0.673,0 -1.002,-0.029 -0.332,-0.029 -0.525,-0.136 -0.705,-0.136 -0.181,0 -0.226,-0.016 -0.704,-0.016 -0.478,0 -1.198,-0.091 -1.422,-0.103 -0.223,-0.017 -0.434,-0.062 -0.704,0 -0.27,0.061 -0.719,0.237 -0.821,0.254 -0.105,0.016 -0.48,0.24 -0.704,0.419 -0.226,0.18 -0.734,0.492 -0.931,0.718 -0.192,0.226 -0.688,0.583 -0.793,0.854 -0.104,0.268 -0.538,0.825 -0.719,1.033 -0.179,0.21 -0.238,0.043 -0.313,0.493 -0.074,0.449 -0.179,0.493 -0.27,1.108 -0.088,0.616 -0.345,1.018 -0.449,1.317 -0.104,0.3 -0.284,0.883 -0.358,1.121 -0.075,0.242 -0.136,0.661 -0.301,0.796 -0.165,0.135 -0.283,0.329 -0.179,0.554 0.104,0.223 0.091,0.3 0.165,0.477 0.074,0.182 0.194,0.422 0.283,0.586 0.091,0.165 0.076,0.3 0.195,0.315 0.12,0.014 0.218,0.067 0.441,0.067 0.227,0 0.371,-0.009 0.509,-0.017 0.165,-0.008 0.548,0.008 0.622,0.008 0.075,0 0.171,-0.059 0.171,-0.059 0,0 -0.059,-0.299 -0.163,-0.359 -0.105,-0.062 -0.366,-0.194 -0.486,-0.194 -0.12,0 -0.329,-0.226 -0.299,-0.348 0.029,-0.118 0.021,-0.169 0.036,-0.214 0.06,-0.178 0.066,-0.308 0.217,-0.397 0.151,-0.09 0.435,-0.09 0.569,-0.3 0.134,-0.21 0.285,-0.223 0.522,-0.657 0.239,-0.436 0.704,-0.915 0.78,-1.05 0.074,-0.136 0.479,-0.555 0.479,-0.555 0,0 0.283,0.226 0.328,0.315 0.045,0.091 0.255,0.703 0.466,0.838 0.209,0.136 0.612,0.555 0.806,0.722 0.195,0.164 0.42,0.402 0.495,0.641 0.074,0.239 0.074,0.21 0.09,0.493 0.015,0.286 0.045,0.496 0.224,0.632 0.181,0.135 0.32,0.235 0.48,0.357 0.307,0.233 0.202,0.119 0.748,0.135 0.122,0.003 0.42,0.029 0.538,0.029 0.121,0 0.464,-0.029 0.614,-0.029 0.149,0 0.397,-0.016 0.397,-0.016 0.003,-0.034 0.226,-0.292 -0.226,-0.477 -0.205,-0.088 -0.403,-0.196 -0.598,-0.219 -0.089,-0.01 -0.067,0.014 -0.203,-0.073 -0.134,-0.091 -0.164,-0.077 -0.239,-0.181 -0.074,-0.105 -0.135,-0.159 -0.074,-0.307 0.06,-0.151 0.03,-0.478 -0.017,-0.777 -0.044,-0.302 -0.088,-0.556 -0.164,-0.855 -0.074,-0.298 -0.104,-0.507 -0.104,-0.719 0,-0.21 0.119,-0.284 0.119,-0.284 0,0 0.973,-0.689 1.168,-0.779 0.194,-0.087 0.284,0.136 0.224,0.242 -0.06,0.104 -0.089,0.193 -0.163,0.344 -0.075,0.149 -0.09,0.342 -0.075,0.509 0.015,0.164 -0.015,0.448 0.179,0.838 0.194,0.387 0.346,0.837 0.389,1.198 0.046,0.358 -0.058,0.567 0.061,0.764 0.118,0.193 0.196,0.21 0.418,0.342 0.226,0.136 0.468,0.315 0.601,0.45 0.135,0.133 0.182,0.197 0.329,0.197 0.149,0 0.463,-0.017 0.629,0 0.164,0.012 0.388,0.023 0.524,0.012 0.358,-0.028 0.471,0.062 0.321,-0.254 -0.09,-0.19 -0.442,-0.366 -0.5,-0.366 -0.062,0 -0.346,-0.044 -0.451,-0.074 -0.105,-0.031 -0.284,0 -0.299,-0.24 -0.015,-0.239 -0.121,-0.727 -0.121,-0.727 0,0 -0.044,-0.567 -0.028,-0.806 0.015,-0.242 0.015,-0.528 0.09,-0.692 0.074,-0.164 0.18,-0.478 0.18,-0.478 0,0 0.135,0.298 0.523,0.538 0.39,0.239 0.585,0.465 0.808,0.705 0.226,0.239 0.915,0.552 0.915,0.552 0,0 0.434,-0.013 0.434,0.09 0,0.106 0,0.465 -0.089,0.493 -0.092,0.032 -0.239,-0.014 -0.092,0.184 0.149,0.19 0.112,0.178 0.084,0.284 -0.032,0.103 0.097,0.373 0.217,0.357 0.12,-0.014 0.389,-0.149 0.462,-0.313 0.076,-0.164 0.227,-0.403 0.256,-0.644 0.03,-0.241 0.046,-0.016 0.089,-0.539 0.045,-0.524 0.105,-0.537 -0.089,-0.75 -0.192,-0.209 -0.54,-0.611 -0.704,-0.793 -0.165,-0.18 -0.507,-0.627 -0.614,-0.779 -0.104,-0.147 -0.224,-0.254 -0.104,-0.537 0.12,-0.284 0.299,-0.435 0.329,-0.689 0.031,-0.254 -0.015,-0.39 0.045,-0.521 0.061,-0.136 0.283,-0.271 0.36,-0.286 0.073,-0.014 0.237,-0.075 0.237,-0.075 l 0.271,-0.013 c 0,0 0.33,0.074 0.465,0.074 0.135,0 0.104,-0.062 0.344,0.042 0.238,0.105 0.309,0.124 0.505,0.215 0.192,0.09 0.059,0.021 0.267,0.096 0.212,0.074 0.195,0.108 0.451,0.169 0.255,0.062 0.27,0.114 0.493,0.191 0.226,0.074 0.314,0.124 0.403,0.124 0.092,0 0.217,-0.076 0.245,-0.136 0.031,-0.061 0.09,-0.164 0.09,-0.164 0,0 0.182,-0.206 0.24,-0.266 z"
         id="path89"
         inkscape:connector-curvature="0"
         style="fill:#e1e2e3" /></g><g
       id="g91"><g
         id="g93"><g
           id="g95"><path
             clip-rule="evenodd"
             d="m 50.538,20.724 c 0.006,-0.278 0.027,-0.526 -0.024,-0.773 -0.057,-0.264 -0.254,-0.474 -0.349,-0.716 -0.096,-0.246 -0.142,-0.534 -0.253,-0.771 -0.076,0.262 -0.087,0.548 -0.146,0.785 -0.068,0.265 -0.132,0.506 -0.16,0.75 -0.032,0.263 -0.139,0.567 -0.104,0.817 0.214,-0.028 0.673,-0.317 1.036,-0.092 z"
             id="path97"
             inkscape:connector-curvature="0"
             style="fill:#e1e2e3;fill-rule:evenodd" /></g></g><g
         id="g99"><g
           id="g101"><path
             clip-rule="evenodd"
             d="m 53.756,21.995 c -0.002,-0.247 0.014,-0.444 -0.04,-0.664 -0.059,-0.236 -0.186,-0.44 -0.296,-0.646 -0.111,-0.205 -0.208,-0.428 -0.37,-0.604 -0.155,-0.17 -0.394,-0.355 -0.591,-0.499 0.08,0.241 0.273,0.506 0.345,0.751 0.07,0.237 0.073,0.5 0.104,0.761 0.029,0.239 0.023,0.486 -0.006,0.757 0.242,-0.073 0.606,0.001 0.854,0.144 z"
             id="path103"
             inkscape:connector-curvature="0"
             style="fill:#e1e2e3;fill-rule:evenodd" /></g></g><g
         id="g105"><g
           id="g107"><path
             clip-rule="evenodd"
             d="m 47.572,21.72 c -0.06,-0.23 -0.16,-0.553 -0.15,-0.824 0.011,-0.242 0.104,-0.492 0.152,-0.754 0.045,-0.243 0.075,-0.482 0.137,-0.737 -0.168,0.129 -0.33,0.282 -0.478,0.495 -0.13,0.184 -0.273,0.386 -0.37,0.611 -0.091,0.215 -0.053,0.475 -0.095,0.707 -0.047,0.234 -0.113,0.414 -0.093,0.645 0.272,-0.125 0.522,-0.203 0.897,-0.143 z"
             id="path109"
             inkscape:connector-curvature="0"
             style="fill:#e1e2e3;fill-rule:evenodd" /></g></g><g
         id="g111"><g
           id="g113"><path
             clip-rule="evenodd"
             d="m 50.132,20.993 c -0.281,-0.017 -0.526,0.137 -0.674,0.292 -0.167,0.173 -0.263,0.367 -0.346,0.588 -0.084,0.22 -0.126,0.436 -0.14,0.673 -0.012,0.241 -0.001,0.467 0.05,0.694 0.054,0.243 0.143,0.45 0.253,0.642 0.132,0.228 0.243,0.432 0.434,0.53 0.243,0.127 0.464,0.148 0.666,0.092 0.215,-0.064 0.449,-0.172 0.599,-0.366 0.14,-0.18 0.219,-0.431 0.284,-0.649 0.069,-0.238 0.036,-0.511 0.033,-0.78 -10e-4,-0.263 0.005,-0.528 -0.071,-0.771 -0.083,-0.263 -0.237,-0.474 -0.411,-0.649 -0.181,-0.179 -0.39,-0.28 -0.677,-0.296 z"
             id="path115"
             inkscape:connector-curvature="0"
             style="fill:#e1e2e3;fill-rule:evenodd" /></g></g><g
         id="g117"><g
           id="g119"><path
             clip-rule="evenodd"
             d="m 53.083,22.043 c -0.263,-0.019 -0.467,0.085 -0.674,0.236 -0.188,0.141 -0.405,0.284 -0.536,0.517 -0.118,0.212 -0.158,0.472 -0.22,0.721 -0.062,0.247 -0.188,0.496 -0.185,0.741 10e-4,0.266 0.163,0.497 0.25,0.714 0.1,0.245 0.202,0.464 0.426,0.582 0.132,0.07 0.287,0.176 0.425,0.182 0.251,0.011 0.521,-0.087 0.717,-0.243 0.179,-0.142 0.256,-0.408 0.38,-0.638 0.113,-0.205 0.21,-0.422 0.271,-0.664 0.059,-0.24 0.12,-0.475 0.12,-0.714 0.002,-0.257 0.021,-0.52 -0.054,-0.736 -0.087,-0.242 -0.266,-0.439 -0.464,-0.571 -0.158,-0.106 -0.334,-0.115 -0.456,-0.127 z"
             id="path121"
             inkscape:connector-curvature="0"
             style="fill:#e1e2e3;fill-rule:evenodd" /></g></g><g
         id="g123"><g
           id="g125"><path
             clip-rule="evenodd"
             d="m 55.68,24.972 c 0.026,-0.252 0.028,-0.425 0.006,-0.65 -0.029,-0.247 -0.055,-0.481 -0.138,-0.695 -0.088,-0.223 -0.188,-0.443 -0.325,-0.636 -0.136,-0.189 -0.332,-0.368 -0.509,-0.534 0.043,0.249 0.168,0.5 0.215,0.748 0.044,0.238 0.078,0.496 0.075,0.761 -0.005,0.228 -0.116,0.49 -0.189,0.761 0.31,0.022 0.688,0.075 0.865,0.245 z"
             id="path127"
             inkscape:connector-curvature="0"
             style="fill:#e1e2e3;fill-rule:evenodd" /></g></g><g
         id="g129"><g
           id="g131"><path
             clip-rule="evenodd"
             d="m 46.41,24.586 c 0.101,0.232 0.237,0.451 0.395,0.596 0.188,0.175 0.438,0.239 0.652,0.264 0.229,0.028 0.474,-0.005 0.667,-0.175 0.149,-0.128 0.208,-0.361 0.3,-0.624 0.08,-0.224 0.238,-0.444 0.245,-0.685 0.01,-0.242 -0.036,-0.496 -0.088,-0.727 -0.057,-0.245 -0.188,-0.461 -0.299,-0.66 -0.131,-0.228 -0.262,-0.464 -0.447,-0.572 -0.147,-0.086 -0.415,-0.146 -0.481,-0.151 -0.298,-0.02 -0.507,0.201 -0.678,0.419 -0.151,0.19 -0.254,0.435 -0.313,0.718 -0.055,0.258 -0.068,0.529 -0.053,0.795 0.018,0.291 0.008,0.582 0.1,0.802 z"
             id="path133"
             inkscape:connector-curvature="0"
             style="fill:#e1e2e3;fill-rule:evenodd" /></g></g><g
         id="g135"><g
           id="g137"><path
             clip-rule="evenodd"
             d="m 45.294,24.068 c -0.04,-0.229 -0.068,-0.538 -0.055,-0.801 0.012,-0.244 0.044,-0.493 0.092,-0.745 0.048,-0.248 0.096,-0.493 0.168,-0.729 -0.177,0.108 -0.323,0.289 -0.474,0.496 -0.131,0.176 -0.337,0.339 -0.432,0.562 -0.092,0.21 -0.16,0.451 -0.206,0.682 -0.049,0.23 -0.007,0.485 0.005,0.713 0.285,-0.086 0.528,-0.248 0.902,-0.178 z"
             id="path139"
             inkscape:connector-curvature="0"
             style="fill:#e1e2e3;fill-rule:evenodd" /></g></g><g
         id="g141"><g
           id="g143"><path
             clip-rule="evenodd"
             d="m 54.511,28.206 c 0.262,0.03 0.449,-0.104 0.643,-0.262 0.178,-0.145 0.432,-0.268 0.541,-0.506 0.101,-0.215 0.08,-0.491 0.119,-0.736 0.035,-0.248 0.122,-0.505 0.089,-0.74 -0.037,-0.261 -0.172,-0.495 -0.304,-0.678 -0.144,-0.195 -0.343,-0.383 -0.61,-0.417 -0.267,-0.036 -0.465,0.155 -0.664,0.309 -0.186,0.144 -0.332,0.318 -0.447,0.558 -0.106,0.219 -0.183,0.447 -0.221,0.697 -0.041,0.252 -0.034,0.494 0.001,0.73 0.041,0.264 0.05,0.529 0.195,0.712 0.15,0.19 0.38,0.304 0.658,0.333 z"
             id="path145"
             inkscape:connector-curvature="0"
             style="fill:#e1e2e3;fill-rule:evenodd" /></g></g><g
         id="g147"><g
           id="g149"><path
             clip-rule="evenodd"
             d="m 55.362,30.234 c 0.045,-0.355 -0.133,-0.822 -0.374,-1.06 -0.167,-0.167 -0.442,-0.237 -0.689,-0.352 -0.233,-0.107 -0.435,-0.274 -0.628,-0.431 -0.238,-0.188 -0.381,-0.388 -0.503,-0.615 -0.131,-0.244 -0.263,-0.477 -0.352,-0.735 -0.089,-0.257 -0.211,-0.495 -0.356,-0.732 -0.121,-0.2 -0.253,-0.443 -0.483,-0.613 -0.193,-0.145 -0.427,-0.3 -0.683,-0.403 -0.231,-0.092 -0.515,-0.061 -0.782,-0.105 -0.276,-0.045 -0.57,-0.087 -0.872,-0.059 -0.303,0.028 -0.58,0.145 -0.844,0.236 -0.319,0.111 -0.564,0.24 -0.718,0.431 -0.131,0.162 -0.249,0.388 -0.344,0.649 -0.093,0.253 -0.237,0.479 -0.366,0.652 -0.157,0.208 -0.313,0.42 -0.543,0.538 -0.226,0.116 -0.479,0.192 -0.718,0.283 -0.249,0.094 -0.497,0.168 -0.701,0.301 -0.216,0.139 -0.406,0.302 -0.503,0.559 -0.081,0.212 -0.029,0.429 0.003,0.646 0.032,0.217 0.066,0.428 0.166,0.625 0.105,0.205 0.232,0.392 0.362,0.546 0.146,0.17 0.277,0.389 0.471,0.539 0.184,0.14 0.417,0.225 0.638,0.323 0.212,0.093 0.44,0.171 0.678,0.204 0.26,0.036 0.521,-0.002 0.783,-0.033 0.254,-0.03 0.526,-0.006 0.783,-0.068 0.254,-0.06 0.485,-0.223 0.739,-0.282 0.257,-0.061 0.522,-0.075 0.779,-0.104 0.26,-0.029 0.524,-0.051 0.787,-0.019 0.203,0.026 0.408,0.16 0.64,0.237 0.21,0.07 0.438,0.108 0.656,0.187 0.22,0.079 0.429,0.186 0.642,0.239 0.237,0.058 0.475,0.023 0.683,0.002 0.23,-0.024 0.484,-0.132 0.736,-0.299 0.215,-0.146 0.461,-0.297 0.619,-0.524 0.157,-0.221 0.258,-0.49 0.294,-0.763 z"
             id="path151"
             inkscape:connector-curvature="0"
             style="fill:#e1e2e3;fill-rule:evenodd" /></g></g><g
         id="g153"><g
           id="g155"><path
             clip-rule="evenodd"
             d="m 46.051,27.398 c 0.243,-0.168 0.456,-0.33 0.524,-0.584 0.066,-0.251 0.033,-0.538 -0.016,-0.812 -0.051,-0.27 -0.159,-0.529 -0.271,-0.76 -0.143,-0.294 -0.312,-0.527 -0.461,-0.652 -0.156,-0.132 -0.497,-0.313 -0.748,-0.327 -0.328,-0.021 -0.655,0.152 -0.782,0.333 -0.137,0.193 -0.171,0.454 -0.198,0.697 -0.026,0.23 0.033,0.465 0.085,0.705 0.049,0.232 0.147,0.443 0.253,0.654 0.113,0.22 0.217,0.434 0.378,0.591 0.183,0.181 0.364,0.388 0.583,0.432 0.219,0.043 0.425,-0.121 0.653,-0.277 z"
             id="path157"
             inkscape:connector-curvature="0"
             style="fill:#e1e2e3;fill-rule:evenodd" /></g></g></g></g></svg>