<?xml version="1.0" encoding="utf-8"?>
<!-- Generator: Adobe Illustrator 16.0.0, SVG Export Plug-In . SVG Version: 6.00 Build 0)  -->
<!DOCTYPE svg PUBLIC "-//W3C//DTD SVG 1.1//EN" "http://www.w3.org/Graphics/SVG/1.1/DTD/svg11.dtd">
<svg version="1.1" id="Capa_1" xmlns="http://www.w3.org/2000/svg" xmlns:xlink="http://www.w3.org/1999/xlink" x="0px" y="0px"
	 width="100px" height="100px" viewBox="0 0 100 100" enable-background="new 0 0 100 100" xml:space="preserve">
<g>
	<g>
		<g>
			<g>
				<path fill="#E1E2E3" d="M27.902,49.867c3.946,0.298,5.306,2.049,5.306,3.76c0,2.657-2.204,4.089-5.82,4.089
					c-0.659,0-1.967-0.061-3.761-0.061c-1.246,0-2.534,0.021-3.245,0.061v-0.422c1.339-0.063,1.576-0.277,1.576-1.813V45.015
					c0-1.535-0.246-1.752-1.576-1.814v-0.422c0.711,0.042,2.02,0.063,3.203,0.063c1.382,0,2.783-0.042,3.318-0.042
					c3.481,0,5.213,1.37,5.213,3.317c0,1.494-1.267,3.164-4.214,3.708V49.867z M26.224,49.785c1.988,0,2.472-1.608,2.472-3.442
					c0-2.07-0.576-3.142-2.069-3.142c-1.082,0-1.31,0.362-1.31,1.814v4.77H26.224z M25.316,55.481c0,1.474,0.247,1.75,1.452,1.75
					c2.062,0,2.936-1.328,2.936-3.698c0-2.143-0.998-3.39-3.502-3.39h-0.886V55.481z"/>
			</g>
		</g>
		<g>
			<path fill="#E1E2E3" d="M75.385,42.757c0.947,0.042,1.754,0.063,2.628,0.063c0.618,0,1.186-0.021,1.608-0.063v0.423
				c-0.609,0.237-1.36,0.928-1.926,2.503l-4.463,12.054c-0.227-0.011-0.483-0.021-0.73-0.021c-0.259,0-0.505,0.011-0.732,0.021
				l-5.377-13.208c-0.402-1.01-0.917-1.328-1.328-1.349v-0.423c0.841,0.042,2.049,0.063,3.213,0.063
				c1.298,0,2.514-0.021,3.205-0.063v0.423c-0.979,0.041-1.484,0.175-1.484,0.782c0,0.238,0.082,0.567,0.247,0.989l3.729,9.45
				l2.597-7.006c0.401-1.092,0.587-1.927,0.587-2.555c0-1.174-0.648-1.63-1.773-1.659V42.757z"/>
		</g>
		<g>
			<g>
				<g>
					<g>
						
							<rect x="49.608" y="19.639" transform="matrix(-0.7045 0.7097 -0.7097 -0.7045 120.9553 50.4163)" fill="#E1E2E3" width="0.747" height="61.501"/>
					</g>
				</g>
				<g>
					<g>
						<polygon fill="#E1E2E3" points="23.771,28.498 28.109,28.569 28.187,24.082 28.824,24.092 28.734,29.216 23.763,29.132 						
							"/>
					</g>
				</g>
				<g>
					<g>
						<polygon fill="#E1E2E3" points="27.173,31.888 31.51,31.959 31.589,27.475 32.225,27.484 32.135,32.606 27.16,32.524 						
							"/>
					</g>
				</g>
				<g>
					<g>
						<polygon fill="#E1E2E3" points="30.412,35.119 34.751,35.192 34.829,30.706 35.465,30.718 35.376,35.84 30.402,35.755 						
							"/>
					</g>
				</g>
				<g>
					<g>
						<polygon fill="#E1E2E3" points="71.372,71.773 72.718,69.284 75.813,76.203 68.884,73.125 						"/>
					</g>
				</g>
			</g>
			<g>
				<g>
					<g>
						
							<rect x="49.256" y="19.355" transform="matrix(0.7032 0.711 -0.711 0.7032 50.3579 -20.4139)" fill="#E1E2E3" width="0.746" height="61.502"/>
					</g>
				</g>
				<g>
					<g>
						<polygon fill="#E1E2E3" points="75.839,28.212 71.5,28.285 71.422,23.798 70.787,23.81 70.878,28.932 75.849,28.849 						"/>
					</g>
				</g>
				<g>
					<g>
						<polygon fill="#E1E2E3" points="72.438,31.604 68.1,31.676 68.021,27.191 67.386,27.2 67.477,32.323 72.447,32.241 						"/>
					</g>
				</g>
				<g>
					<g>
						<polygon fill="#E1E2E3" points="69.197,34.835 64.859,34.91 64.782,30.422 64.147,30.433 64.234,35.557 69.207,35.472 						
							"/>
					</g>
				</g>
				<g>
					<g>
						<polygon fill="#E1E2E3" points="28.237,71.489 26.893,69.001 23.796,75.919 30.725,72.844 						"/>
					</g>
				</g>
			</g>
		</g>
	</g>
	<g>
		<path fill="#E1E2E3" d="M50.002,95.511C24.907,95.511,4.49,75.094,4.49,50C4.49,24.906,24.907,4.49,50.002,4.49
			C75.094,4.49,95.511,24.906,95.511,50C95.511,75.094,75.094,95.511,50.002,95.511z M50.002,5.565
			C25.499,5.565,5.564,25.5,5.564,50c0,24.5,19.935,44.434,44.438,44.434c24.5,0,44.434-19.934,44.434-44.434
			C94.436,25.5,74.502,5.565,50.002,5.565z"/>
	</g>
	<g>
		<path fill="#E1E2E3" d="M58.88,74.52c0.061-0.061,0.137-0.181,0.196-0.268c0.06-0.093,0.06-0.151,0.104-0.181
			c0.044-0.031,0-0.212-0.045-0.271c-0.044-0.059-0.119-0.059-0.375-0.254c-0.253-0.196-0.464-0.6-0.538-0.731
			c-0.074-0.136-0.062-0.274-0.271-0.451c-0.208-0.181-0.389-0.255-0.492-0.313c-0.105-0.062-0.238-0.286-0.315-0.332
			c-0.074-0.044-0.147-0.073-0.147-0.164c0-0.09-0.031-0.464-0.105-0.509c-0.076-0.045-0.151-0.074-0.226-0.061
			c-0.074,0.016-0.209,0.016-0.209,0.016l-0.18,0.028l-0.148-0.073c0,0,0.059-0.224-0.031-0.271
			c-0.09-0.043-0.149-0.088-0.225-0.104c-0.074-0.016-0.181,0.029-0.181,0.029s-0.119,0.045-0.178,0.074
			c-0.061,0.032-0.226,0.076-0.226,0.076s-0.389-0.09-0.495-0.09c-0.104,0-0.611,0-0.822,0c-0.21,0-0.164-0.15-0.404-0.164
			c-0.238-0.016-0.51-0.151-0.675-0.151c-0.164,0-0.374-0.028-0.538-0.028c-0.165,0-0.24,0-0.39,0.044
			c-0.148,0.046-0.39,0.149-0.747,0.149c-0.359,0-0.673,0-1.002-0.029c-0.332-0.029-0.525-0.136-0.705-0.136
			c-0.181,0-0.226-0.016-0.704-0.016s-1.198-0.091-1.422-0.103c-0.223-0.017-0.434-0.062-0.704,0
			c-0.27,0.061-0.719,0.237-0.821,0.254c-0.105,0.016-0.48,0.24-0.704,0.419c-0.226,0.18-0.734,0.492-0.931,0.718
			c-0.192,0.226-0.688,0.583-0.793,0.854c-0.104,0.268-0.538,0.825-0.719,1.033c-0.179,0.21-0.238,0.043-0.313,0.493
			c-0.074,0.449-0.179,0.493-0.27,1.108c-0.088,0.616-0.345,1.018-0.449,1.317c-0.104,0.3-0.284,0.883-0.358,1.121
			c-0.075,0.242-0.136,0.661-0.301,0.796s-0.283,0.329-0.179,0.554c0.104,0.223,0.091,0.3,0.165,0.477
			c0.074,0.182,0.194,0.422,0.283,0.586c0.091,0.165,0.076,0.3,0.195,0.315c0.12,0.014,0.218,0.067,0.441,0.067
			c0.227,0,0.371-0.009,0.509-0.017c0.165-0.008,0.548,0.008,0.622,0.008c0.075,0,0.171-0.059,0.171-0.059s-0.059-0.299-0.163-0.359
			c-0.105-0.062-0.366-0.194-0.486-0.194s-0.329-0.226-0.299-0.348c0.029-0.118,0.021-0.169,0.036-0.214
			c0.06-0.178,0.066-0.308,0.217-0.397c0.151-0.09,0.435-0.09,0.569-0.3c0.134-0.21,0.285-0.223,0.522-0.657
			c0.239-0.436,0.704-0.915,0.78-1.05c0.074-0.136,0.479-0.555,0.479-0.555s0.283,0.226,0.328,0.315
			c0.045,0.091,0.255,0.703,0.466,0.838c0.209,0.136,0.612,0.555,0.806,0.722c0.195,0.164,0.42,0.402,0.495,0.641
			c0.074,0.239,0.074,0.21,0.09,0.493c0.015,0.286,0.045,0.496,0.224,0.632c0.181,0.135,0.32,0.235,0.48,0.357
			c0.307,0.233,0.202,0.119,0.748,0.135c0.122,0.003,0.42,0.029,0.538,0.029c0.121,0,0.464-0.029,0.614-0.029
			c0.149,0,0.397-0.016,0.397-0.016c0.003-0.034,0.226-0.292-0.226-0.477c-0.205-0.088-0.403-0.196-0.598-0.219
			c-0.089-0.01-0.067,0.014-0.203-0.073c-0.134-0.091-0.164-0.077-0.239-0.181c-0.074-0.105-0.135-0.159-0.074-0.307
			c0.06-0.151,0.03-0.478-0.017-0.777c-0.044-0.302-0.088-0.556-0.164-0.855c-0.074-0.298-0.104-0.507-0.104-0.719
			c0-0.21,0.119-0.284,0.119-0.284s0.973-0.689,1.168-0.779c0.194-0.087,0.284,0.136,0.224,0.242
			c-0.06,0.104-0.089,0.193-0.163,0.344c-0.075,0.149-0.09,0.342-0.075,0.509c0.015,0.164-0.015,0.448,0.179,0.838
			c0.194,0.387,0.346,0.837,0.389,1.198c0.046,0.358-0.058,0.567,0.061,0.764c0.118,0.193,0.196,0.21,0.418,0.342
			c0.226,0.136,0.468,0.315,0.601,0.45c0.135,0.133,0.182,0.197,0.329,0.197c0.149,0,0.463-0.017,0.629,0
			c0.164,0.012,0.388,0.023,0.524,0.012c0.358-0.028,0.471,0.062,0.321-0.254c-0.09-0.19-0.442-0.366-0.5-0.366
			c-0.062,0-0.346-0.044-0.451-0.074c-0.105-0.031-0.284,0-0.299-0.24c-0.015-0.239-0.121-0.727-0.121-0.727
			s-0.044-0.567-0.028-0.806c0.015-0.242,0.015-0.528,0.09-0.692c0.074-0.164,0.18-0.478,0.18-0.478s0.135,0.298,0.523,0.538
			c0.39,0.239,0.585,0.465,0.808,0.705c0.226,0.239,0.915,0.552,0.915,0.552s0.434-0.013,0.434,0.09c0,0.106,0,0.465-0.089,0.493
			c-0.092,0.032-0.239-0.014-0.092,0.184c0.149,0.19,0.112,0.178,0.084,0.284c-0.032,0.103,0.097,0.373,0.217,0.357
			c0.12-0.014,0.389-0.149,0.462-0.313c0.076-0.164,0.227-0.403,0.256-0.644c0.03-0.241,0.046-0.016,0.089-0.539
			c0.045-0.524,0.105-0.537-0.089-0.75c-0.192-0.209-0.54-0.611-0.704-0.793c-0.165-0.18-0.507-0.627-0.614-0.779
			c-0.104-0.147-0.224-0.254-0.104-0.537c0.12-0.284,0.299-0.435,0.329-0.689c0.031-0.254-0.015-0.39,0.045-0.521
			c0.061-0.136,0.283-0.271,0.36-0.286c0.073-0.014,0.237-0.075,0.237-0.075l0.271-0.013c0,0,0.33,0.074,0.465,0.074
			s0.104-0.062,0.344,0.042c0.238,0.105,0.309,0.124,0.505,0.215c0.192,0.09,0.059,0.021,0.267,0.096
			c0.212,0.074,0.195,0.108,0.451,0.169c0.255,0.062,0.27,0.114,0.493,0.191c0.226,0.074,0.314,0.124,0.403,0.124
			c0.092,0,0.217-0.076,0.245-0.136c0.031-0.061,0.09-0.164,0.09-0.164S58.822,74.58,58.88,74.52z"/>
	</g>
	<g>
		<g>
			<g>
				<path fill-rule="evenodd" clip-rule="evenodd" fill="#E1E2E3" d="M50.538,20.724c0.006-0.278,0.027-0.526-0.024-0.773
					c-0.057-0.264-0.254-0.474-0.349-0.716c-0.096-0.246-0.142-0.534-0.253-0.771c-0.076,0.262-0.087,0.548-0.146,0.785
					c-0.068,0.265-0.132,0.506-0.16,0.75c-0.032,0.263-0.139,0.567-0.104,0.817C49.716,20.788,50.175,20.499,50.538,20.724z"/>
			</g>
		</g>
		<g>
			<g>
				<path fill-rule="evenodd" clip-rule="evenodd" fill="#E1E2E3" d="M53.756,21.995c-0.002-0.247,0.014-0.444-0.04-0.664
					c-0.059-0.236-0.186-0.44-0.296-0.646c-0.111-0.205-0.208-0.428-0.37-0.604c-0.155-0.17-0.394-0.355-0.591-0.499
					c0.08,0.241,0.273,0.506,0.345,0.751c0.07,0.237,0.073,0.5,0.104,0.761c0.029,0.239,0.023,0.486-0.006,0.757
					C53.144,21.778,53.508,21.852,53.756,21.995z"/>
			</g>
		</g>
		<g>
			<g>
				<path fill-rule="evenodd" clip-rule="evenodd" fill="#E1E2E3" d="M47.572,21.72c-0.06-0.23-0.16-0.553-0.15-0.824
					c0.011-0.242,0.104-0.492,0.152-0.754c0.045-0.243,0.075-0.482,0.137-0.737c-0.168,0.129-0.33,0.282-0.478,0.495
					c-0.13,0.184-0.273,0.386-0.37,0.611c-0.091,0.215-0.053,0.475-0.095,0.707c-0.047,0.234-0.113,0.414-0.093,0.645
					C46.947,21.738,47.197,21.66,47.572,21.72z"/>
			</g>
		</g>
		<g>
			<g>
				<path fill-rule="evenodd" clip-rule="evenodd" fill="#E1E2E3" d="M50.132,20.993c-0.281-0.017-0.526,0.137-0.674,0.292
					c-0.167,0.173-0.263,0.367-0.346,0.588c-0.084,0.22-0.126,0.436-0.14,0.673c-0.012,0.241-0.001,0.467,0.05,0.694
					c0.054,0.243,0.143,0.45,0.253,0.642c0.132,0.228,0.243,0.432,0.434,0.53c0.243,0.127,0.464,0.148,0.666,0.092
					c0.215-0.064,0.449-0.172,0.599-0.366c0.14-0.18,0.219-0.431,0.284-0.649c0.069-0.238,0.036-0.511,0.033-0.78
					c-0.001-0.263,0.005-0.528-0.071-0.771c-0.083-0.263-0.237-0.474-0.411-0.649C50.628,21.11,50.419,21.009,50.132,20.993z"/>
			</g>
		</g>
		<g>
			<g>
				<path fill-rule="evenodd" clip-rule="evenodd" fill="#E1E2E3" d="M53.083,22.043c-0.263-0.019-0.467,0.085-0.674,0.236
					c-0.188,0.141-0.405,0.284-0.536,0.517c-0.118,0.212-0.158,0.472-0.22,0.721c-0.062,0.247-0.188,0.496-0.185,0.741
					c0.001,0.266,0.163,0.497,0.25,0.714c0.1,0.245,0.202,0.464,0.426,0.582c0.132,0.07,0.287,0.176,0.425,0.182
					c0.251,0.011,0.521-0.087,0.717-0.243c0.179-0.142,0.256-0.408,0.38-0.638c0.113-0.205,0.21-0.422,0.271-0.664
					c0.059-0.24,0.12-0.475,0.12-0.714c0.002-0.257,0.021-0.52-0.054-0.736c-0.087-0.242-0.266-0.439-0.464-0.571
					C53.381,22.064,53.205,22.055,53.083,22.043z"/>
			</g>
		</g>
		<g>
			<g>
				<path fill-rule="evenodd" clip-rule="evenodd" fill="#E1E2E3" d="M55.68,24.972c0.026-0.252,0.028-0.425,0.006-0.65
					c-0.029-0.247-0.055-0.481-0.138-0.695c-0.088-0.223-0.188-0.443-0.325-0.636c-0.136-0.189-0.332-0.368-0.509-0.534
					c0.043,0.249,0.168,0.5,0.215,0.748c0.044,0.238,0.078,0.496,0.075,0.761c-0.005,0.228-0.116,0.49-0.189,0.761
					C55.125,24.749,55.503,24.802,55.68,24.972z"/>
			</g>
		</g>
		<g>
			<g>
				<path fill-rule="evenodd" clip-rule="evenodd" fill="#E1E2E3" d="M46.41,24.586c0.101,0.232,0.237,0.451,0.395,0.596
					c0.188,0.175,0.438,0.239,0.652,0.264c0.229,0.028,0.474-0.005,0.667-0.175c0.149-0.128,0.208-0.361,0.3-0.624
					c0.08-0.224,0.238-0.444,0.245-0.685c0.01-0.242-0.036-0.496-0.088-0.727c-0.057-0.245-0.188-0.461-0.299-0.66
					c-0.131-0.228-0.262-0.464-0.447-0.572c-0.147-0.086-0.415-0.146-0.481-0.151c-0.298-0.02-0.507,0.201-0.678,0.419
					c-0.151,0.19-0.254,0.435-0.313,0.718c-0.055,0.258-0.068,0.529-0.053,0.795C46.328,24.075,46.318,24.366,46.41,24.586z"/>
			</g>
		</g>
		<g>
			<g>
				<path fill-rule="evenodd" clip-rule="evenodd" fill="#E1E2E3" d="M45.294,24.068c-0.04-0.229-0.068-0.538-0.055-0.801
					c0.012-0.244,0.044-0.493,0.092-0.745c0.048-0.248,0.096-0.493,0.168-0.729c-0.177,0.108-0.323,0.289-0.474,0.496
					c-0.131,0.176-0.337,0.339-0.432,0.562c-0.092,0.21-0.16,0.451-0.206,0.682c-0.049,0.23-0.007,0.485,0.005,0.713
					C44.677,24.16,44.92,23.998,45.294,24.068z"/>
			</g>
		</g>
		<g>
			<g>
				<path fill-rule="evenodd" clip-rule="evenodd" fill="#E1E2E3" d="M54.511,28.206c0.262,0.03,0.449-0.104,0.643-0.262
					c0.178-0.145,0.432-0.268,0.541-0.506c0.101-0.215,0.08-0.491,0.119-0.736c0.035-0.248,0.122-0.505,0.089-0.74
					c-0.037-0.261-0.172-0.495-0.304-0.678c-0.144-0.195-0.343-0.383-0.61-0.417c-0.267-0.036-0.465,0.155-0.664,0.309
					c-0.186,0.144-0.332,0.318-0.447,0.558c-0.106,0.219-0.183,0.447-0.221,0.697c-0.041,0.252-0.034,0.494,0.001,0.73
					c0.041,0.264,0.05,0.529,0.195,0.712C54.003,28.063,54.233,28.177,54.511,28.206z"/>
			</g>
		</g>
		<g>
			<g>
				<path fill-rule="evenodd" clip-rule="evenodd" fill="#E1E2E3" d="M55.362,30.234c0.045-0.355-0.133-0.822-0.374-1.06
					c-0.167-0.167-0.442-0.237-0.689-0.352c-0.233-0.107-0.435-0.274-0.628-0.431c-0.238-0.188-0.381-0.388-0.503-0.615
					c-0.131-0.244-0.263-0.477-0.352-0.735c-0.089-0.257-0.211-0.495-0.356-0.732c-0.121-0.2-0.253-0.443-0.483-0.613
					c-0.193-0.145-0.427-0.3-0.683-0.403c-0.231-0.092-0.515-0.061-0.782-0.105c-0.276-0.045-0.57-0.087-0.872-0.059
					c-0.303,0.028-0.58,0.145-0.844,0.236c-0.319,0.111-0.564,0.24-0.718,0.431c-0.131,0.162-0.249,0.388-0.344,0.649
					c-0.093,0.253-0.237,0.479-0.366,0.652c-0.157,0.208-0.313,0.42-0.543,0.538c-0.226,0.116-0.479,0.192-0.718,0.283
					c-0.249,0.094-0.497,0.168-0.701,0.301c-0.216,0.139-0.406,0.302-0.503,0.559c-0.081,0.212-0.029,0.429,0.003,0.646
					s0.066,0.428,0.166,0.625c0.105,0.205,0.232,0.392,0.362,0.546c0.146,0.17,0.277,0.389,0.471,0.539
					c0.184,0.14,0.417,0.225,0.638,0.323c0.212,0.093,0.44,0.171,0.678,0.204c0.26,0.036,0.521-0.002,0.783-0.033
					c0.254-0.03,0.526-0.006,0.783-0.068c0.254-0.06,0.485-0.223,0.739-0.282c0.257-0.061,0.522-0.075,0.779-0.104
					c0.26-0.029,0.524-0.051,0.787-0.019c0.203,0.026,0.408,0.16,0.64,0.237c0.21,0.07,0.438,0.108,0.656,0.187
					c0.22,0.079,0.429,0.186,0.642,0.239c0.237,0.058,0.475,0.023,0.683,0.002c0.23-0.024,0.484-0.132,0.736-0.299
					c0.215-0.146,0.461-0.297,0.619-0.524C55.225,30.776,55.326,30.507,55.362,30.234z"/>
			</g>
		</g>
		<g>
			<g>
				<path fill-rule="evenodd" clip-rule="evenodd" fill="#E1E2E3" d="M46.051,27.398c0.243-0.168,0.456-0.33,0.524-0.584
					c0.066-0.251,0.033-0.538-0.016-0.812c-0.051-0.27-0.159-0.529-0.271-0.76c-0.143-0.294-0.312-0.527-0.461-0.652
					c-0.156-0.132-0.497-0.313-0.748-0.327c-0.328-0.021-0.655,0.152-0.782,0.333c-0.137,0.193-0.171,0.454-0.198,0.697
					c-0.026,0.23,0.033,0.465,0.085,0.705c0.049,0.232,0.147,0.443,0.253,0.654c0.113,0.22,0.217,0.434,0.378,0.591
					c0.183,0.181,0.364,0.388,0.583,0.432C45.617,27.718,45.823,27.554,46.051,27.398z"/>
			</g>
		</g>
	</g>
</g>
</svg>
