<svg xmlns="http://www.w3.org/2000/svg" width="59.037" height="11" viewBox="0 0 59.036732 11" enable-background="new 0 0 81.875 15"><g><path d="M54.25 0c-.31.142-.63.22-.906.438-.06-.08.02-.18-.063-.22-.057-.023-.107.06-.155.095-.258.185-.458.41-.656.656-.657.805-1.07 1.758-1.44 2.718-.09.24-.16.263-.343.093-.274-.254-.547-.533-.874-.717-1.24-.702-2.588-1.23-3.907-1.75-.25-.098-.328-.014-.28.25.07.384.258.71.53 1 .206.22.444.42.72.624-.213.035-.4.043-.563.063-.247.033-.31.163-.22.406.154.402.396.708.782.906.227.116.462.206.688.313-.21.092-.405.148-.594.25-.218.116-.295.25-.126.47.192.247.4.432.687.56.298.132.635.147.97.22-.106.086-.178.12-.25.188-.34.324-.275.81.156 1 .126.054.273.084.407.125.07.02.194-.035.218.062.023.084-.1.138-.155.188-1.455 1.258-3.478 1.392-5.094.343-.074-.046-.148-.15-.28-.124.032.054.07.097.094.125 1.54 1.772 3.494 2.645 5.812 2.72 1.145.037 2.274-.145 3.344-.563 2.118-.832 3.726-2.16 4.438-4.406.05-.16.157-.235.312-.25.446-.042.865-.13 1.25-.374.108-.07.228-.13.28-.28-.543.042-1.018-.03-1.5-.22.153-.07.288-.092.44-.125.334-.07.663-.184.905-.436.054-.053.13-.108.094-.188-.048-.1-.154-.043-.22-.03-.343.07-.686.08-1.03.06-.387-.018-.545-.19-.657-.56-.348-1.17-1.066-2.025-2.25-2.438-.29-.102-.596-.096-.938-.125.132-.143.258-.16.375-.188.238-.063.505-.118.72-.25.078-.045.148-.115.124-.22-.024-.112-.133-.08-.22-.093-.228-.032-.45.07-.687.094.04-.158.203-.254.188-.406h-.125zM18.78 1.125c-.637 0-1.05.413-1.06 1.063-.012.548.514 1.063 1.093 1.062.565 0 1.072-.495 1.062-1.063-.006-.6-.484-1.123-1.094-1.062zm-17.53.22c-.623-.064-1.007.24-1.25.78v4.97c.02.063.05.12.063.186.218 1.41 1.36 2.5 2.78 2.657.826.093 1.642.05 2.47.063.107 0 .236-.04.343-.063.504-.11.78-.49.782-1.03.002-.547-.3-.93-.813-1.032-.164-.034-.333-.062-.5-.063-.622-.006-1.225-.013-1.844 0-.344.01-.613-.128-.842-.375-.275-.292-.3-.637-.313-1-.012-.408.053-.468.47-.468.875-.002 1.745.006 2.624 0 .623-.007 1.02-.41 1-1.032-.02-.577-.438-.962-1.095-.97-.876-.007-1.747-.013-2.625 0-.273.003-.383-.11-.375-.374.015-.454.013-.89 0-1.344-.014-.466-.412-.86-.875-.906zm20.25.03c-.485.067-.837.468-.844 1-.01.77 0 1.542 0 2.313 0 .74-.025 1.48 0 2.218.044 1.19.613 2.065 1.625 2.657.22.128.46.212.69.28.228.07.45.135.686.157.237.022.478.012.72 0 .24-.012.476-.03.718-.063.514-.072.808-.493.812-1.03 0-.548-.304-.92-.812-1.032-.42-.094-.828-.046-1.25-.063-.372-.013-.666-.157-.875-.468-.2-.3-.19-.632-.19-.97.004-.37.013-.405.376-.405.52-.005 1.04.01 1.563 0 .14-.004.29-.017.405-.064.344-.14.552-.486.563-.906.012-.604-.408-1.012-1.063-1.03-.51-.02-1.02-.01-1.53 0-.23.002-.32-.082-.314-.314.01-.362.003-.73 0-1.094 0-.177.003-.36-.06-.53-.2-.52-.617-.746-1.22-.657zm5.875 0c-.494.002-.825.196-.97.594-.002.007.004.02 0 .03-.04.126-.06.28-.06.438-.003.748 0 1.5 0 2.25 0 .73-.012 1.457 0 2.187.006.61.154 1.116.436 1.563.006.007-.003.023 0 .03.283.438.69.802 1.19 1.095.215.126.46.212.686.28.228.07.453.134.688.157.47.045.926.002 1.406-.063.515-.07.844-.496.844-1.03 0-.536-.304-.92-.813-1.032-.41-.09-.834-.052-1.25-.063-.513-.016-.9-.312-1.03-.812-.06-.232-.016-.485-.03-.72-.014-.248.074-.317.31-.31.545.008 1.085.01 1.626 0 .268-.007.522-.115.688-.282.165-.168.24-.39.25-.657.004-.152-.016-.31-.063-.436-.05-.134-.116-.217-.218-.313-.185-.183-.45-.303-.78-.31-.504-.014-.998-.012-1.5 0-.247.003-.32-.107-.313-.345.01-.404.002-.784 0-1.188-.006-.667-.434-1.064-1.095-1.062zm-19.53 2.47c-.46.005-.774.228-.907.624-.045.13-.063.3-.063.468-.002.718-.015 1.436 0 2.156.006.258.033.488.094.718.18.692.608 1.247 1.25 1.657.432.276.876.442 1.31.5.146.018.294.035.44.03.144-.005.26-.034.405-.063.29-.056.59-.163.875-.312.142-.074.296-.153.438-.25.15-.1.243-.122.406 0 .668.496 1.412.66 2.25.563 1.36-.155 2.525-1.376 2.562-2.75.01-.385 0-.773 0-1.157-.002-.414.012-.834 0-1.25-.004-.136-.015-.262-.062-.374-.05-.12-.127-.196-.22-.28-.166-.163-.38-.274-.655-.282-.158-.005-.312.015-.44.062-.253.095-.43.29-.53.563-.05.135-.09.295-.094.468-.008.692.013 1.374 0 2.062-.01.53-.426.93-.906.97-.16.012-.34-.023-.5-.095-.46-.204-.585-.6-.594-1.063-.01-.64.003-1.265 0-1.906-.003-.66-.407-1.066-1.03-1.062-.15 0-.287.044-.407.094-.243.098-.406.276-.5.53-.05.128-.093.282-.095.438-.005.672.012 1.33 0 2-.005.448-.248.838-.594 1-.114.054-.242.06-.374.063-.58.006-1.027-.467-1.03-1.095-.006-.65.006-1.29 0-1.938-.005-.676-.41-1.1-1.032-1.093zm10.905 0c-.19.005-.373.07-.563.186-.2.127-.336.284-.406.47-.034.093-.047.18-.06.28-.016.103-.03.208-.032.314-.008 1.21-.006 2.416 0 3.625 0 .148.025.295.062.436.02.07.03.153.063.22.033.065.074.126.125.187.072.09.16.157.25.218.266.186.608.256.906.158.465-.156.772-.543.78-1.032.014-.66 0-1.34 0-2V4.937c-.034-.682-.552-1.113-1.124-1.093zm16.375 0c-.24 0-.476.003-.72.03-.595.067-1.14.262-1.593.688-.75.703-1.034 1.58-.937 2.593.136 1.376 1.098 2.494 2.438 2.75 1.02.198 2.06.11 3.093.063.546-.028.795-.416.75-.97-.04-.463-.34-.717-.875-.72-.592-.002-1.19.03-1.78 0-.457-.02-.933-.016-1.28-.405-.08-.09-.178-.183-.126-.313.05-.127.176-.093.28-.093.536-.003 1.094 0 1.626 0v-.032c.55 0 1.075.015 1.625 0 .5-.013.763-.25.78-.75.042-1-.412-1.738-1.218-2.282-.63-.423-1.346-.564-2.062-.562zm7.563.124c-.344.002-.687.026-1.032.06-.926.097-1.766.65-2.218 1.44-.076.13-.167.262-.22.405-.05.143-.067.285-.093.438-.04.238-.08.478-.094.718-.013.242 0 .48 0 .72.007.483.015.987.032 1.47.01.226.156.42.344.56.19.144.422.234.657.22.508-.03.922-.42.937-.906.01-.323 0-.643 0-.97 0-.344-.015-.687 0-1.03.03-.704.456-1.123 1.156-1.125.463-.005.91.01 1.375 0 .505-.013.937-.386.97-.845.045-.6-.233-1.01-.78-1.094-.34-.05-.69-.065-1.032-.06zm-7.532 1.405c.246-.003.506.058.75.188.092.046.178.14.25.218.06.064.106.128.063.22-.044.1-.136.094-.22.094H34.313c-.212 0-.24-.122-.157-.282.06-.115.166-.195.282-.25.244-.116.472-.184.718-.187z" fill="#9f9ea4" fill-rule="evenodd"/></g></svg>