<?xml version="1.0" encoding="utf-8"?>
<!-- Generator: Adobe Illustrator 16.0.0, SVG Export Plug-In . SVG Version: 6.00 Build 0)  -->
<!DOCTYPE svg PUBLIC "-//W3C//DTD SVG 1.1//EN" "http://www.w3.org/Graphics/SVG/1.1/DTD/svg11.dtd">
<svg version="1.1" id="Capa_1" xmlns="http://www.w3.org/2000/svg" xmlns:xlink="http://www.w3.org/1999/xlink" x="0px" y="0px"
	 width="400px" height="280px" viewBox="0 0 400 280" enable-background="new 0 0 400 280" xml:space="preserve">
<g>
	<g>
		<g>
			<path fill="#434142" d="M60.146,192.728c0-2.312-0.124-2.906-1.531-3.032l-1-0.094c-0.25-0.186-0.218-0.655,0.032-0.78
				c1.688-0.156,3.813-0.252,6.72-0.252c1.969,0,3.845,0.158,5.251,0.876c1.344,0.657,2.375,1.907,2.375,3.909
				c0,2.249-1.312,3.405-3.188,4.281c0,0.312,0.25,0.407,0.595,0.469c1.687,0.313,4.188,1.875,4.188,5.221
				c0,3.625-2.688,6.063-8.314,6.063c-0.907,0-2.438-0.092-3.75-0.092c-1.377,0-2.439,0.062-3.595,0.092
				c-0.188-0.092-0.25-0.593-0.063-0.781l0.563-0.094c1.657-0.281,1.719-0.624,1.719-3.906V192.728z M62.709,196.886
				c0,0.874,0.032,0.938,1.626,0.874c3.188-0.124,4.906-1.062,4.906-4c0-3.063-2.281-4.22-4.657-4.22
				c-0.688,0-1.156,0.062-1.437,0.188c-0.313,0.094-0.438,0.249-0.438,0.813V196.886z M62.709,204.136
				c0,1.128,0.063,2.721,0.656,3.407c0.594,0.721,1.532,0.876,2.469,0.876c2.784,0,4.909-1.249,4.909-4.375
				c0-2.47-1.25-5.346-6.221-5.346c-1.688,0-1.813,0.188-1.813,0.814V204.136z"/>
		</g>
		<g>
			<path fill="#434142" d="M85.666,200.64c0-5.358,4.019-9.457,9.539-9.457c6.19,0,9.297,4.475,9.297,9.189
				c0,5.411-4.126,9.352-9.297,9.352C89.255,209.724,85.666,205.463,85.666,200.64z M101.822,201.202
				c0-4.42-1.956-9.189-7.074-9.189c-2.786,0-6.403,1.902-6.403,7.771c0,3.965,1.93,9.11,7.208,9.11
				C98.768,208.894,101.822,206.481,101.822,201.202z"/>
		</g>
		<g>
			<path fill="#434142" d="M117.198,195.657c0-2.546-0.08-3.002-1.179-3.135l-0.857-0.108c-0.188-0.133-0.188-0.563,0.027-0.669
				c1.5-0.135,3.349-0.214,5.975-0.214c1.661,0,3.241,0.133,4.474,0.804c1.287,0.669,2.224,1.874,2.224,3.75
				c0,2.546-2.009,3.938-3.349,4.476c-0.134,0.16,0,0.428,0.133,0.642c2.144,3.457,3.564,5.601,5.386,7.129
				c0.456,0.401,1.125,0.695,1.849,0.75c0.134,0.054,0.161,0.268,0.026,0.374c-0.241,0.081-0.669,0.134-1.178,0.134
				c-2.278,0-3.645-0.669-5.546-3.375c-0.697-0.991-1.796-2.841-2.626-4.047c-0.401-0.589-0.831-0.856-1.902-0.856
				c-1.205,0-1.26,0.026-1.26,0.59v3.375c0,2.813,0.055,3.135,1.608,3.35l0.563,0.079c0.161,0.135,0.108,0.592-0.053,0.671
				c-1.207-0.055-2.117-0.079-3.189-0.079c-1.125,0-2.089,0.024-3.349,0.079c-0.162-0.079-0.215-0.481-0.054-0.671l0.67-0.079
				c1.553-0.188,1.607-0.537,1.607-3.35V195.657z M119.395,199.487c0,0.483,0,0.777,0.08,0.885c0.08,0.08,0.482,0.135,1.85,0.135
				c0.964,0,1.982-0.107,2.759-0.697c0.723-0.563,1.34-1.501,1.34-3.322c0-2.117-1.314-4.126-4.289-4.126
				c-1.661,0-1.741,0.105-1.741,0.856V199.487z"/>
		</g>
		<g>
			<path fill="#434142" d="M142.516,195.684c0-2.841-0.053-3.296-1.634-3.431l-0.67-0.053c-0.161-0.108-0.106-0.59,0.054-0.669
				c1.339,0.053,2.251,0.079,3.376,0.079c1.072,0,1.982-0.026,3.322-0.079c0.161,0.079,0.213,0.561,0.053,0.669l-0.669,0.053
				c-1.581,0.135-1.634,0.59-1.634,3.431v9.539c0,2.839,0.053,3.214,1.634,3.402l0.669,0.079c0.16,0.108,0.108,0.592-0.053,0.671
				c-1.34-0.055-2.25-0.079-3.322-0.079c-1.125,0-2.037,0.024-3.376,0.079c-0.16-0.079-0.215-0.508-0.054-0.671l0.67-0.079
				c1.581-0.188,1.634-0.563,1.634-3.402V195.684z"/>
		</g>
		<g>
			<path fill="#434142" d="M162.18,209.724c-2.25,0-3.67-0.697-4.179-0.991c-0.322-0.589-0.67-2.492-0.723-3.751
				c0.133-0.188,0.536-0.242,0.643-0.081c0.402,1.366,1.501,3.993,4.608,3.993c2.251,0,3.35-1.475,3.35-3.083
				c0-1.178-0.243-2.491-2.198-3.749l-2.545-1.662c-1.34-0.886-2.894-2.411-2.894-4.608c0-2.547,1.983-4.608,5.467-4.608
				c0.831,0,1.794,0.16,2.492,0.349c0.348,0.107,0.723,0.161,0.938,0.161c0.241,0.643,0.482,2.142,0.482,3.268
				c-0.107,0.16-0.536,0.242-0.669,0.081c-0.349-1.287-1.072-3.028-3.645-3.028c-2.626,0-3.189,1.741-3.189,2.974
				c0,1.556,1.287,2.68,2.278,3.296l2.144,1.34c1.687,1.044,3.349,2.601,3.349,5.144
				C167.888,207.715,165.665,209.724,162.18,209.724z"/>
		</g>
		<g>
			<path fill="#434142" d="M195.178,191.977c-0.719-1.748-1.188-2.405-2.533-2.561l-0.562-0.064
				c-0.218-0.188-0.189-0.624,0.062-0.782c0.908,0.063,1.907,0.096,3.251,0.096c1.375,0,2.469-0.032,3.782-0.096
				c0.218,0.126,0.281,0.595,0.062,0.782l-0.468,0.064c-1.188,0.155-1.437,0.343-1.469,0.593c0.062,0.313,0.593,2,1.563,4.375
				c1.438,3.627,2.876,7.223,4.438,10.784c0.969-2.063,2.281-5.282,3-6.939c0.906-2.124,2.378-5.657,2.907-7
				c0.25-0.657,0.282-1,0.282-1.22c0-0.218-0.313-0.469-1.406-0.593l-0.563-0.064c-0.219-0.188-0.156-0.656,0.063-0.782
				c0.876,0.063,2.063,0.096,3.251,0.096c1.032,0,2.001-0.032,3.032-0.096c0.22,0.126,0.22,0.627,0.063,0.782l-0.938,0.064
				c-0.751,0.062-1.221,0.437-1.626,1.094c-0.875,1.467-2.094,4-3.5,7.188l-1.689,3.844c-1.249,2.877-2.719,6.504-3.25,8.159
				c-0.094,0.062-0.219,0.094-0.344,0.094c-0.156,0-0.313-0.032-0.469-0.094c-0.344-1.313-0.907-2.845-1.438-4.156L195.178,191.977z
				"/>
		</g>
		<g>
			<path fill="#434142" d="M233.464,203.077c-0.189-0.588-0.295-0.669-1.101-0.669h-4.045c-0.67,0-0.831,0.081-1.019,0.643
				l-0.938,2.814c-0.402,1.205-0.59,1.929-0.59,2.223c0,0.322,0.135,0.481,0.777,0.537l0.885,0.079
				c0.188,0.135,0.188,0.563-0.054,0.671c-0.697-0.055-1.527-0.055-2.787-0.079c-0.884,0-1.849,0.053-2.572,0.079
				c-0.161-0.107-0.214-0.536-0.054-0.671l0.885-0.079c0.643-0.056,1.233-0.349,1.606-1.313c0.483-1.232,1.233-2.974,2.358-5.975
				l2.733-7.234c0.375-0.965,0.536-1.475,0.456-1.902c0.643-0.188,1.098-0.669,1.393-1.018c0.16,0,0.35,0.053,0.402,0.24
				c0.349,1.179,0.777,2.411,1.18,3.59l3.669,10.771c0.779,2.305,1.127,2.709,2.278,2.842l0.724,0.079
				c0.188,0.135,0.134,0.563,0,0.671c-1.099-0.055-2.036-0.079-3.242-0.079c-1.285,0-2.305,0.053-3.081,0.079
				c-0.215-0.107-0.24-0.536-0.055-0.671l0.777-0.079c0.563-0.056,0.938-0.215,0.938-0.481c0-0.296-0.134-0.777-0.349-1.422
				L233.464,203.077z M228.157,200.694c-0.213,0.616-0.188,0.643,0.563,0.643h3.296c0.777,0,0.832-0.107,0.589-0.83l-1.446-4.368
				c-0.214-0.643-0.455-1.367-0.616-1.688h-0.053c-0.08,0.133-0.35,0.775-0.644,1.581L228.157,200.694z"/>
		</g>
		<g>
			<path fill="#434142" d="M250.716,195.657c0-2.546-0.081-3.002-1.179-3.135l-0.858-0.108c-0.187-0.133-0.187-0.563,0.027-0.669
				c1.501-0.135,3.349-0.214,5.975-0.214c1.662,0,3.242,0.133,4.476,0.804c1.286,0.669,2.224,1.874,2.224,3.75
				c0,2.546-2.011,3.938-3.351,4.476c-0.133,0.16,0,0.428,0.135,0.642c2.144,3.457,3.564,5.601,5.387,7.129
				c0.455,0.401,1.125,0.695,1.849,0.75c0.134,0.054,0.16,0.268,0.026,0.374c-0.241,0.081-0.67,0.134-1.18,0.134
				c-2.276,0-3.643-0.669-5.546-3.375c-0.697-0.991-1.796-2.841-2.627-4.047c-0.4-0.589-0.83-0.856-1.9-0.856
				c-1.206,0-1.26,0.026-1.26,0.59v3.375c0,2.813,0.054,3.135,1.606,3.35l0.563,0.079c0.161,0.135,0.108,0.592-0.053,0.671
				c-1.205-0.055-2.116-0.079-3.188-0.079c-1.125,0-2.09,0.024-3.349,0.079c-0.161-0.079-0.214-0.481-0.053-0.671l0.669-0.079
				c1.554-0.188,1.607-0.537,1.607-3.35V195.657z M252.913,199.487c0,0.483,0,0.777,0.08,0.885c0.08,0.08,0.481,0.135,1.849,0.135
				c0.966,0,1.982-0.107,2.76-0.697c0.724-0.563,1.34-1.501,1.34-3.322c0-2.117-1.313-4.126-4.287-4.126
				c-1.661,0-1.741,0.105-1.741,0.856V199.487z"/>
		</g>
		<g>
			<path fill="#434142" d="M289.001,206.561c0,1.073,0.161,1.716,0.644,1.903c0.079,0.081,0.079,0.24-0.028,0.322
				c-0.321,0-0.803,0.107-1.313,0.24c-1.418,0.375-3.35,0.697-4.796,0.697c-3.188,0-6.108-0.885-8.172-2.974
				c-1.607-1.609-2.466-3.726-2.466-6.084c0-2.276,0.75-4.581,2.412-6.349c1.795-1.875,4.448-3.135,8.494-3.135
				c1.527,0,2.948,0.293,3.403,0.401c0.508,0.108,1.339,0.294,1.66,0.241c0,0.883,0.161,2.277,0.402,3.885
				c-0.08,0.214-0.563,0.242-0.724,0.081c-0.75-2.894-2.76-3.806-5.493-3.806c-5.197,0-7.475,3.698-7.475,7.716
				c0,5.145,2.652,9.192,8.037,9.192c1.662,0,2.653-0.349,2.948-0.806c0.134-0.188,0.268-0.669,0.268-1.527v-1.07
				c0-2.25-0.079-2.413-1.741-2.599l-1.179-0.135c-0.215-0.106-0.188-0.59,0-0.671c0.776,0.055,2.251,0.081,3.831,0.081
				c1.045,0,1.955-0.026,2.84-0.081c0.188,0.108,0.214,0.51,0.026,0.671l-0.428,0.055c-1.126,0.133-1.152,0.884-1.152,2.25V206.561z
				"/>
		</g>
		<g>
			<path fill="#434142" d="M310.594,203.077c-0.188-0.588-0.294-0.669-1.099-0.669h-4.045c-0.671,0-0.83,0.081-1.019,0.643
				l-0.938,2.814c-0.401,1.205-0.589,1.929-0.589,2.223c0,0.322,0.134,0.481,0.776,0.537l0.886,0.079
				c0.187,0.135,0.187,0.563-0.055,0.671c-0.696-0.055-1.527-0.055-2.786-0.079c-0.885,0-1.85,0.053-2.573,0.079
				c-0.159-0.107-0.214-0.536-0.054-0.671l0.886-0.079c0.642-0.056,1.231-0.349,1.606-1.313c0.481-1.232,1.232-2.974,2.358-5.975
				l2.732-7.234c0.375-0.965,0.537-1.475,0.456-1.902c0.643-0.188,1.099-0.669,1.394-1.018c0.16,0,0.348,0.053,0.4,0.24
				c0.349,1.179,0.779,2.411,1.181,3.59l3.67,10.771c0.776,2.305,1.125,2.709,2.277,2.842l0.724,0.079
				c0.188,0.135,0.135,0.563,0,0.671c-1.099-0.055-2.036-0.079-3.242-0.079c-1.287,0-2.304,0.053-3.082,0.079
				c-0.214-0.107-0.24-0.536-0.053-0.671l0.777-0.079c0.563-0.056,0.938-0.215,0.938-0.481c0-0.296-0.134-0.777-0.349-1.422
				L310.594,203.077z M305.289,200.694c-0.215,0.616-0.188,0.643,0.563,0.643h3.295c0.777,0,0.831-0.107,0.59-0.83l-1.447-4.368
				c-0.213-0.643-0.455-1.367-0.616-1.688h-0.053c-0.079,0.133-0.349,0.775-0.644,1.581L305.289,200.694z"/>
		</g>
		<g>
			<path fill="#434142" d="M330.419,209.724c-2.25,0-3.671-0.697-4.18-0.991c-0.321-0.589-0.671-2.492-0.724-3.751
				c0.134-0.188,0.536-0.242,0.645-0.081c0.4,1.366,1.499,3.993,4.607,3.993c2.25,0,3.349-1.475,3.349-3.083
				c0-1.178-0.241-2.491-2.197-3.749l-2.544-1.662c-1.341-0.886-2.895-2.411-2.895-4.608c0-2.547,1.982-4.608,5.465-4.608
				c0.831,0,1.796,0.16,2.493,0.349c0.348,0.107,0.723,0.161,0.938,0.161c0.241,0.643,0.482,2.142,0.482,3.268
				c-0.108,0.16-0.536,0.242-0.671,0.081c-0.348-1.287-1.071-3.028-3.645-3.028c-2.623,0-3.188,1.741-3.188,2.974
				c0,1.556,1.287,2.68,2.278,3.296l2.144,1.34c1.688,1.044,3.35,2.601,3.35,5.144C336.126,207.715,333.902,209.724,330.419,209.724
				z"/>
		</g>
	</g>
	<g>
		<rect x="186.506" y="251.191" fill="#434142" width="20.555" height="0.682"/>
	</g>
	<g>
		<g>
			<path fill="#434142" d="M344.22,185.979c0,1.38-1.085,2.467-2.496,2.467c-1.396,0-2.51-1.087-2.51-2.467
				c0-1.351,1.114-2.435,2.51-2.435C343.135,183.544,344.22,184.628,344.22,185.979z M339.838,185.979
				c0,1.087,0.803,1.946,1.9,1.946c1.069,0,1.855-0.859,1.855-1.931c0-1.083-0.786-1.96-1.87-1.96
				C340.641,184.034,339.838,184.911,339.838,185.979z M341.338,187.256h-0.564v-2.436c0.222-0.044,0.533-0.074,0.937-0.074
				c0.459,0,0.667,0.074,0.845,0.179c0.135,0.104,0.239,0.298,0.239,0.535c0,0.267-0.209,0.476-0.505,0.566v0.028
				c0.233,0.088,0.37,0.267,0.444,0.593c0.074,0.371,0.119,0.521,0.177,0.608h-0.607c-0.075-0.088-0.12-0.31-0.192-0.593
				c-0.046-0.269-0.194-0.386-0.507-0.386h-0.266V187.256z M341.352,185.875h0.267c0.313,0,0.564-0.104,0.564-0.355
				c0-0.223-0.163-0.371-0.519-0.371c-0.148,0-0.251,0.014-0.313,0.029V185.875z"/>
		</g>
	</g>
	<g>
		<g>
			<g>
				<g>
					<path fill="#434142" d="M168.753,101.007c5.005,0.379,6.729,2.601,6.729,4.77c0,3.372-2.797,5.188-7.383,5.188
						c-0.836,0-2.495-0.079-4.77-0.079c-1.581,0-3.214,0.026-4.116,0.079v-0.536c1.698-0.079,1.999-0.353,1.999-2.301V94.853
						c0-1.948-0.313-2.222-1.999-2.301v-0.535c0.901,0.052,2.561,0.078,4.063,0.078c1.751,0,3.529-0.052,4.208-0.052
						c4.417,0,6.612,1.738,6.612,4.208c0,1.895-1.607,4.012-5.344,4.704V101.007z M166.623,100.903c2.522,0,3.136-2.038,3.136-4.364
						c0-2.627-0.732-3.986-2.626-3.986c-1.373,0-1.66,0.458-1.66,2.301v6.05H166.623z M165.473,108.129
						c0,1.87,0.313,2.222,1.842,2.222c2.614,0,3.725-1.686,3.725-4.691c0-2.718-1.267-4.299-4.443-4.299h-1.123V108.129z"/>
				</g>
			</g>
			<g>
				<path fill="#434142" d="M228.983,91.991c1.203,0.052,2.223,0.079,3.333,0.079c0.784,0,1.503-0.026,2.039-0.079v0.536
					c-0.771,0.301-1.725,1.176-2.443,3.175l-5.659,15.29c-0.288-0.012-0.613-0.026-0.929-0.026c-0.325,0-0.639,0.014-0.927,0.026
					l-6.822-16.753c-0.508-1.281-1.163-1.686-1.686-1.712v-0.536c1.071,0.052,2.601,0.079,4.077,0.079
					c1.646,0,3.189-0.026,4.064-0.079v0.536c-1.241,0.052-1.882,0.223-1.882,0.993c0,0.301,0.104,0.72,0.314,1.255l4.729,11.983
					l3.294-8.886c0.51-1.386,0.744-2.444,0.744-3.241c0-1.49-0.822-2.066-2.248-2.105V91.991z"/>
			</g>
			<g>
				<g>
					<g>
						<g>
							
								<rect x="196.285" y="62.666" transform="matrix(-0.7061 0.7081 -0.7081 -0.7061 407.6823 34.1263)" fill="#434142" width="0.948" height="78.01"/>
						</g>
					</g>
					<g>
						<g>
							<polygon fill="#434142" points="163.513,73.901 169.016,73.992 169.115,68.3 169.922,68.314 169.808,74.813 163.5,74.707 
															"/>
						</g>
					</g>
					<g>
						<g>
							<polygon fill="#434142" points="167.827,78.203 173.329,78.295 173.429,72.602 174.235,72.615 174.122,79.114 
								167.813,79.008 							"/>
						</g>
					</g>
					<g>
						<g>
							<polygon fill="#434142" points="171.937,82.302 177.44,82.394 177.54,76.703 178.347,76.717 178.232,83.214 171.924,83.109 
															"/>
						</g>
					</g>
					<g>
						<g>
							<polygon fill="#434142" points="223.893,128.796 225.601,125.637 229.527,134.416 220.738,130.514 							"/>
						</g>
					</g>
				</g>
				<g>
					<g>
						<g>
							
								<rect x="195.839" y="62.306" transform="matrix(0.7063 0.7079 -0.7079 0.7063 129.3668 -109.2142)" fill="#434142" width="0.948" height="78.01"/>
						</g>
					</g>
					<g>
						<g>
							<polygon fill="#434142" points="229.559,73.541 224.056,73.633 223.956,67.94 223.151,67.955 223.265,74.453 229.572,74.347 
															"/>
						</g>
					</g>
					<g>
						<g>
							<polygon fill="#434142" points="225.245,77.843 219.743,77.935 219.644,72.243 218.836,72.256 218.95,78.755 225.258,78.65 
															"/>
						</g>
					</g>
					<g>
						<g>
							<polygon fill="#434142" points="221.134,81.943 215.633,82.035 215.532,76.342 214.726,76.357 214.841,82.855 221.148,82.75 
															"/>
						</g>
					</g>
					<g>
						<g>
							<polygon fill="#434142" points="169.178,128.437 167.471,125.277 163.543,134.056 172.333,130.153 							"/>
						</g>
					</g>
				</g>
			</g>
		</g>
		<g>
			<path fill="#434142" d="M196.784,158.906c-31.832,0-57.729-25.897-57.729-57.729s25.897-57.729,57.729-57.729
				c31.831,0,57.729,25.897,57.729,57.729S228.615,158.906,196.784,158.906z M196.784,44.813c-31.08,0-56.365,25.286-56.365,56.365
				c0,31.08,25.285,56.365,56.365,56.365c31.079,0,56.365-25.285,56.365-56.365C253.149,70.098,227.863,44.813,196.784,44.813z"/>
		</g>
		<g>
			<path fill="#434142" d="M208.049,132.28c0.076-0.076,0.17-0.228,0.246-0.342c0.076-0.114,0.076-0.19,0.133-0.228
				c0.058-0.038,0-0.266-0.057-0.342s-0.152-0.076-0.475-0.322c-0.323-0.248-0.588-0.76-0.684-0.93
				c-0.095-0.171-0.076-0.343-0.342-0.571c-0.266-0.227-0.493-0.322-0.626-0.398c-0.134-0.076-0.305-0.36-0.4-0.418
				c-0.094-0.057-0.189-0.095-0.189-0.208c0-0.114-0.038-0.59-0.133-0.646c-0.096-0.058-0.189-0.095-0.284-0.076
				c-0.096,0.019-0.267,0.019-0.267,0.019l-0.228,0.038l-0.189-0.095c0,0,0.076-0.284-0.037-0.341
				c-0.115-0.058-0.19-0.114-0.286-0.134c-0.095-0.019-0.228,0.038-0.228,0.038s-0.152,0.058-0.229,0.096
				c-0.076,0.038-0.285,0.095-0.285,0.095s-0.493-0.115-0.626-0.115s-0.779,0-1.045,0s-0.209-0.19-0.512-0.208
				c-0.304-0.02-0.646-0.19-0.855-0.19c-0.208,0-0.474-0.038-0.684-0.038c-0.208,0-0.303,0-0.493,0.057
				c-0.189,0.057-0.494,0.189-0.95,0.189c-0.456,0-0.854,0-1.271-0.038c-0.418-0.038-0.666-0.17-0.894-0.17s-0.284-0.02-0.892-0.02
				c-0.607,0-1.519-0.113-1.804-0.132c-0.285-0.02-0.55-0.076-0.892,0c-0.342,0.076-0.912,0.304-1.045,0.322
				c-0.132,0.02-0.606,0.306-0.892,0.532c-0.285,0.228-0.93,0.627-1.177,0.912c-0.247,0.285-0.874,0.741-1.006,1.082
				c-0.132,0.342-0.684,1.045-0.912,1.311c-0.228,0.265-0.304,0.057-0.398,0.626c-0.096,0.569-0.228,0.626-0.342,1.405
				c-0.114,0.778-0.438,1.292-0.57,1.671c-0.132,0.379-0.361,1.119-0.456,1.423c-0.095,0.304-0.172,0.837-0.38,1.007
				c-0.21,0.17-0.361,0.417-0.229,0.702c0.133,0.285,0.114,0.38,0.21,0.607c0.094,0.228,0.247,0.532,0.36,0.741
				c0.114,0.208,0.095,0.38,0.247,0.399c0.152,0.018,0.275,0.085,0.56,0.085c0.285,0,0.47-0.011,0.646-0.019
				c0.208-0.01,0.693,0.009,0.789,0.009c0.094,0,0.217-0.076,0.217-0.076s-0.076-0.38-0.208-0.456
				c-0.134-0.076-0.465-0.247-0.617-0.247c-0.152,0-0.418-0.286-0.38-0.438c0.038-0.151,0.027-0.218,0.047-0.274
				c0.075-0.226,0.085-0.39,0.275-0.503c0.19-0.114,0.55-0.114,0.722-0.38c0.17-0.266,0.362-0.284,0.664-0.835
				c0.304-0.551,0.894-1.158,0.988-1.33c0.096-0.17,0.608-0.702,0.608-0.702s0.36,0.285,0.417,0.398
				c0.056,0.115,0.322,0.893,0.589,1.063c0.266,0.17,0.778,0.703,1.024,0.912c0.248,0.209,0.532,0.512,0.626,0.816
				c0.095,0.304,0.095,0.266,0.114,0.627c0.02,0.36,0.058,0.626,0.286,0.798c0.228,0.17,0.404,0.302,0.607,0.455
				c0.389,0.295,0.256,0.152,0.95,0.171c0.152,0.004,0.532,0.038,0.684,0.038c0.152,0,0.588-0.038,0.779-0.038
				c0.189,0,0.502-0.02,0.502-0.02c0.005-0.045,0.285-0.37-0.284-0.606c-0.261-0.109-0.513-0.248-0.76-0.276
				c-0.111-0.012-0.085,0.02-0.256-0.094c-0.17-0.114-0.209-0.096-0.304-0.228c-0.094-0.133-0.17-0.199-0.094-0.39
				c0.076-0.189,0.038-0.607-0.02-0.987c-0.057-0.38-0.114-0.703-0.209-1.082c-0.095-0.379-0.133-0.646-0.133-0.912
				s0.152-0.36,0.152-0.36s1.234-0.874,1.481-0.989c0.246-0.113,0.36,0.172,0.284,0.305c-0.076,0.132-0.114,0.246-0.208,0.437
				c-0.094,0.19-0.113,0.436-0.094,0.644c0.019,0.21-0.019,0.571,0.227,1.065c0.248,0.493,0.437,1.063,0.494,1.519
				c0.057,0.456-0.076,0.722,0.076,0.969c0.152,0.246,0.247,0.265,0.532,0.437c0.284,0.17,0.589,0.398,0.76,0.569
				c0.17,0.17,0.228,0.248,0.418,0.248s0.588-0.02,0.797,0c0.208,0.019,0.493,0.033,0.664,0.019
				c0.456-0.038,0.599,0.076,0.409-0.324c-0.116-0.242-0.561-0.465-0.637-0.465c-0.076,0-0.436-0.056-0.569-0.094
				c-0.133-0.038-0.361,0-0.38-0.304c-0.019-0.304-0.152-0.921-0.152-0.921s-0.057-0.722-0.037-1.025
				c0.019-0.304,0.019-0.666,0.113-0.874c0.094-0.208,0.228-0.607,0.228-0.607s0.171,0.38,0.665,0.684
				c0.494,0.304,0.741,0.589,1.026,0.893c0.285,0.303,1.159,0.702,1.159,0.702s0.55-0.02,0.55,0.114c0,0.132,0,0.588-0.114,0.626
				c-0.113,0.038-0.303-0.019-0.113,0.228s0.143,0.228,0.104,0.36c-0.038,0.134,0.123,0.475,0.275,0.456
				c0.151-0.018,0.493-0.189,0.588-0.398c0.096-0.208,0.285-0.513,0.323-0.816c0.038-0.304,0.056-0.02,0.114-0.684
				c0.057-0.666,0.133-0.684-0.114-0.949c-0.247-0.266-0.684-0.779-0.892-1.006c-0.21-0.228-0.646-0.799-0.78-0.988
				c-0.132-0.19-0.284-0.324-0.132-0.684c0.151-0.36,0.38-0.551,0.417-0.874c0.039-0.323-0.019-0.494,0.057-0.665
				c0.076-0.17,0.361-0.342,0.457-0.361c0.094-0.019,0.303-0.094,0.303-0.094l0.343-0.019c0,0,0.418,0.094,0.588,0.094
				c0.172,0,0.134-0.076,0.438,0.057c0.303,0.133,0.393,0.158,0.64,0.273c0.247,0.113,0.075,0.025,0.341,0.12
				c0.266,0.094,0.248,0.139,0.569,0.214c0.323,0.077,0.342,0.146,0.627,0.241c0.285,0.095,0.398,0.158,0.514,0.158
				c0.113,0,0.271-0.095,0.31-0.171c0.037-0.076,0.113-0.208,0.113-0.208S207.973,132.356,208.049,132.28z"/>
		</g>
		<g>
			<g>
				<g>
					<path fill-rule="evenodd" clip-rule="evenodd" fill="#434142" d="M197.465,64.041c0.006-0.352,0.035-0.667-0.031-0.979
						c-0.071-0.335-0.321-0.603-0.44-0.907c-0.123-0.313-0.181-0.678-0.321-0.979c-0.098,0.332-0.111,0.695-0.187,0.993
						c-0.086,0.337-0.166,0.644-0.204,0.951c-0.042,0.337-0.174,0.722-0.131,1.04C196.423,64.123,197.007,63.756,197.465,64.041z"/>
				</g>
			</g>
			<g>
				<g>
					<path fill-rule="evenodd" clip-rule="evenodd" fill="#434142" d="M201.548,65.654c-0.004-0.314,0.017-0.563-0.052-0.843
						c-0.071-0.299-0.235-0.558-0.374-0.817c-0.143-0.262-0.266-0.543-0.472-0.768c-0.197-0.215-0.499-0.449-0.75-0.632
						c0.103,0.305,0.349,0.642,0.44,0.953c0.089,0.302,0.092,0.635,0.131,0.965c0.036,0.303,0.029,0.618-0.008,0.962
						C200.771,65.377,201.233,65.472,201.548,65.654z"/>
				</g>
			</g>
			<g>
				<g>
					<path fill-rule="evenodd" clip-rule="evenodd" fill="#434142" d="M193.704,65.305c-0.075-0.293-0.204-0.701-0.19-1.046
						c0.014-0.306,0.131-0.624,0.192-0.957c0.057-0.309,0.095-0.612,0.173-0.935c-0.213,0.161-0.418,0.359-0.605,0.626
						c-0.165,0.234-0.348,0.49-0.469,0.775c-0.116,0.274-0.065,0.603-0.121,0.896c-0.057,0.299-0.144,0.525-0.117,0.817
						C192.912,65.328,193.228,65.229,193.704,65.305z"/>
				</g>
			</g>
			<g>
				<g>
					<path fill-rule="evenodd" clip-rule="evenodd" fill="#434142" d="M196.952,64.383c-0.359-0.022-0.67,0.173-0.857,0.369
						c-0.212,0.221-0.333,0.465-0.438,0.748c-0.106,0.279-0.161,0.553-0.177,0.854c-0.014,0.305-0.001,0.591,0.063,0.88
						c0.068,0.308,0.181,0.57,0.321,0.814c0.167,0.291,0.308,0.547,0.548,0.672c0.311,0.16,0.59,0.19,0.845,0.117
						c0.274-0.081,0.574-0.218,0.761-0.463c0.178-0.229,0.277-0.546,0.359-0.824c0.089-0.302,0.047-0.647,0.044-0.989
						c-0.003-0.334,0.005-0.67-0.091-0.978c-0.106-0.333-0.299-0.6-0.522-0.821C197.579,64.533,197.314,64.405,196.952,64.383z"/>
				</g>
			</g>
			<g>
				<g>
					<path fill-rule="evenodd" clip-rule="evenodd" fill="#434142" d="M200.692,65.716c-0.333-0.026-0.591,0.105-0.853,0.298
						c-0.24,0.178-0.516,0.36-0.682,0.656c-0.15,0.269-0.199,0.599-0.277,0.914c-0.079,0.313-0.238,0.628-0.236,0.939
						c0.002,0.336,0.208,0.63,0.319,0.906c0.126,0.311,0.257,0.588,0.539,0.738c0.167,0.089,0.365,0.223,0.54,0.23
						c0.318,0.013,0.66-0.111,0.911-0.308c0.228-0.177,0.321-0.518,0.48-0.807c0.144-0.261,0.264-0.538,0.342-0.844
						c0.076-0.303,0.153-0.604,0.154-0.907c0.001-0.325,0.025-0.658-0.071-0.933c-0.108-0.309-0.335-0.555-0.588-0.724
						C201.071,65.741,200.847,65.729,200.692,65.716z"/>
				</g>
			</g>
			<g>
				<g>
					<path fill-rule="evenodd" clip-rule="evenodd" fill="#434142" d="M203.988,69.431c0.032-0.32,0.035-0.542,0.005-0.825
						c-0.036-0.313-0.069-0.611-0.175-0.883c-0.11-0.282-0.237-0.562-0.413-0.807c-0.171-0.24-0.417-0.467-0.641-0.677
						c0.052,0.317,0.211,0.633,0.27,0.947c0.057,0.303,0.101,0.627,0.096,0.964c-0.004,0.29-0.148,0.624-0.243,0.967
						C203.285,69.147,203.763,69.214,203.988,69.431z"/>
				</g>
			</g>
			<g>
				<g>
					<path fill-rule="evenodd" clip-rule="evenodd" fill="#434142" d="M192.23,68.941c0.127,0.296,0.301,0.572,0.5,0.757
						c0.238,0.222,0.556,0.302,0.828,0.334c0.29,0.036,0.601-0.008,0.846-0.223c0.19-0.163,0.264-0.458,0.381-0.792
						c0.101-0.285,0.301-0.563,0.311-0.869c0.011-0.307-0.047-0.63-0.114-0.922c-0.07-0.31-0.238-0.586-0.379-0.835
						c-0.164-0.292-0.331-0.589-0.568-0.728c-0.186-0.11-0.526-0.186-0.609-0.192c-0.378-0.026-0.643,0.257-0.86,0.532
						c-0.19,0.243-0.322,0.551-0.397,0.912c-0.07,0.326-0.086,0.669-0.065,1.008C192.126,68.292,192.113,68.663,192.23,68.941z"/>
				</g>
			</g>
			<g>
				<g>
					<path fill-rule="evenodd" clip-rule="evenodd" fill="#434142" d="M190.814,68.285c-0.052-0.293-0.086-0.684-0.071-1.018
						c0.016-0.31,0.058-0.627,0.119-0.944c0.06-0.315,0.119-0.626,0.211-0.924c-0.225,0.138-0.41,0.366-0.602,0.628
						c-0.165,0.225-0.426,0.43-0.547,0.712c-0.116,0.268-0.204,0.572-0.262,0.863c-0.061,0.294-0.007,0.618,0.007,0.906
						C190.031,68.399,190.34,68.194,190.814,68.285z"/>
				</g>
			</g>
			<g>
				<g>
					<path fill-rule="evenodd" clip-rule="evenodd" fill="#434142" d="M202.506,73.533c0.33,0.036,0.568-0.134,0.813-0.334
						c0.225-0.183,0.548-0.339,0.688-0.641c0.126-0.273,0.1-0.624,0.148-0.935c0.049-0.314,0.155-0.638,0.114-0.936
						c-0.046-0.331-0.217-0.626-0.385-0.86c-0.184-0.25-0.435-0.487-0.774-0.532c-0.339-0.044-0.59,0.198-0.843,0.393
						c-0.233,0.182-0.42,0.402-0.568,0.707c-0.133,0.276-0.228,0.567-0.278,0.884c-0.051,0.32-0.042,0.625,0.002,0.927
						c0.05,0.334,0.063,0.67,0.247,0.902C201.862,73.351,202.152,73.494,202.506,73.533z"/>
				</g>
			</g>
			<g>
				<g>
					<path fill-rule="evenodd" clip-rule="evenodd" fill="#434142" d="M203.584,76.104c0.058-0.451-0.168-1.042-0.473-1.345
						c-0.214-0.213-0.562-0.3-0.874-0.445c-0.297-0.138-0.552-0.35-0.798-0.547c-0.302-0.239-0.485-0.492-0.638-0.78
						c-0.166-0.309-0.333-0.605-0.446-0.932c-0.112-0.327-0.268-0.628-0.451-0.929c-0.155-0.253-0.319-0.561-0.613-0.778
						c-0.248-0.183-0.54-0.379-0.866-0.51c-0.292-0.117-0.652-0.077-0.993-0.133c-0.349-0.057-0.724-0.111-1.108-0.074
						c-0.382,0.035-0.732,0.182-1.066,0.299c-0.407,0.142-0.717,0.304-0.913,0.547c-0.165,0.205-0.314,0.493-0.435,0.825
						c-0.117,0.32-0.301,0.607-0.465,0.827c-0.199,0.263-0.396,0.533-0.689,0.683c-0.285,0.145-0.607,0.244-0.912,0.357
						c-0.314,0.121-0.627,0.214-0.887,0.382c-0.273,0.176-0.515,0.384-0.639,0.709c-0.101,0.269-0.037,0.543,0.004,0.82
						c0.04,0.273,0.084,0.544,0.211,0.791c0.133,0.261,0.293,0.497,0.46,0.692c0.184,0.217,0.349,0.493,0.595,0.683
						c0.233,0.177,0.53,0.286,0.811,0.41c0.268,0.118,0.556,0.218,0.859,0.26c0.329,0.046,0.659-0.004,0.991-0.042
						c0.324-0.038,0.669-0.008,0.997-0.086c0.32-0.076,0.614-0.284,0.936-0.359c0.325-0.076,0.663-0.094,0.99-0.131
						c0.329-0.037,0.664-0.065,0.995-0.023c0.261,0.033,0.518,0.203,0.813,0.302c0.265,0.089,0.558,0.138,0.832,0.235
						c0.279,0.1,0.546,0.237,0.815,0.303c0.302,0.073,0.601,0.032,0.867,0.004c0.294-0.032,0.615-0.168,0.932-0.381
						c0.276-0.184,0.587-0.376,0.788-0.663C203.409,76.791,203.539,76.451,203.584,76.104z"/>
				</g>
			</g>
			<g>
				<g>
					<path fill-rule="evenodd" clip-rule="evenodd" fill="#434142" d="M191.773,72.508c0.31-0.212,0.579-0.417,0.666-0.741
						c0.084-0.319,0.042-0.683-0.02-1.031c-0.064-0.341-0.203-0.669-0.345-0.963c-0.181-0.373-0.393-0.669-0.583-0.828
						c-0.199-0.167-0.63-0.396-0.949-0.414c-0.417-0.023-0.833,0.193-0.993,0.422c-0.172,0.244-0.217,0.577-0.251,0.886
						c-0.033,0.291,0.042,0.589,0.108,0.892c0.062,0.295,0.187,0.563,0.322,0.829c0.143,0.28,0.274,0.55,0.477,0.75
						c0.232,0.231,0.463,0.494,0.74,0.549C191.224,72.914,191.484,72.704,191.773,72.508z"/>
				</g>
			</g>
		</g>
	</g>
	<g>
		<path fill="#211915" d="M148.588,235.043c-0.381,0.119-0.796,0.179-1.25,0.179c-0.538,0-1.022-0.083-1.453-0.249
			c-0.432-0.165-0.802-0.398-1.107-0.699c-0.305-0.298-0.542-0.657-0.705-1.078c-0.166-0.418-0.248-0.88-0.248-1.383
			c0-0.51,0.079-0.974,0.24-1.393c0.159-0.42,0.387-0.779,0.682-1.08c0.295-0.297,0.654-0.531,1.076-0.695
			c0.423-0.165,0.896-0.248,1.417-0.248c0.264,0,0.51,0.02,0.736,0.061c0.227,0.038,0.436,0.094,0.628,0.166
			c0.192,0.072,0.371,0.163,0.536,0.266c0.164,0.104,0.317,0.223,0.462,0.353l-0.256,0.41c-0.042,0.063-0.093,0.101-0.156,0.12
			c-0.064,0.015-0.135,0-0.214-0.048c-0.073-0.04-0.158-0.096-0.256-0.157c-0.095-0.062-0.213-0.122-0.35-0.179
			c-0.139-0.059-0.302-0.106-0.489-0.146c-0.188-0.041-0.412-0.061-0.669-0.061c-0.375,0-0.716,0.062-1.021,0.183
			c-0.305,0.123-0.563,0.299-0.778,0.527s-0.378,0.504-0.494,0.828c-0.117,0.326-0.173,0.69-0.173,1.094
			c0,0.418,0.06,0.793,0.181,1.124c0.119,0.331,0.29,0.612,0.512,0.843c0.222,0.231,0.491,0.409,0.809,0.529
			c0.316,0.122,0.671,0.183,1.067,0.183c0.154,0,0.3-0.011,0.435-0.028c0.136-0.019,0.265-0.045,0.388-0.076
			c0.126-0.032,0.245-0.074,0.359-0.122c0.115-0.048,0.232-0.104,0.349-0.165v-1.471h-1.038c-0.058,0-0.106-0.018-0.142-0.054
			c-0.036-0.033-0.053-0.076-0.053-0.125v-0.512h2.05v2.562C149.327,234.742,148.969,234.925,148.588,235.043z"/>
		<path fill="#211915" d="M154.275,232.361v2.786h-0.9v-6.675h1.887c0.421,0,0.788,0.042,1.095,0.127
			c0.306,0.085,0.561,0.209,0.761,0.37c0.199,0.163,0.349,0.356,0.444,0.586c0.096,0.227,0.146,0.483,0.146,0.765
			c0,0.237-0.038,0.457-0.112,0.662c-0.075,0.205-0.183,0.39-0.323,0.553c-0.142,0.164-0.314,0.303-0.518,0.421
			c-0.204,0.115-0.435,0.2-0.692,0.257c0.119,0.074,0.218,0.168,0.299,0.283l1.947,2.651h-0.803c-0.163,0-0.285-0.062-0.361-0.191
			l-1.734-2.384c-0.054-0.076-0.11-0.13-0.17-0.161c-0.06-0.032-0.154-0.05-0.282-0.05H154.275z M154.275,231.705h0.95
			c0.26,0,0.491-0.03,0.692-0.096c0.2-0.063,0.366-0.154,0.501-0.27c0.136-0.116,0.237-0.257,0.305-0.418
			c0.068-0.16,0.104-0.34,0.104-0.534c0-0.398-0.13-0.699-0.391-0.901c-0.262-0.201-0.653-0.302-1.174-0.302h-0.987V231.705z"/>
		<path fill="#211915" d="M166.969,235.147h-0.698c-0.083,0-0.147-0.02-0.196-0.061c-0.051-0.04-0.088-0.092-0.112-0.153
			l-0.624-1.611h-2.996l-0.624,1.611c-0.019,0.057-0.054,0.104-0.106,0.148c-0.054,0.044-0.12,0.065-0.195,0.065h-0.7l2.669-6.675
			h0.914L166.969,235.147z M162.595,232.669h2.493l-1.049-2.717c-0.034-0.079-0.067-0.172-0.1-0.279
			c-0.032-0.104-0.064-0.218-0.1-0.338c-0.032,0.12-0.063,0.235-0.096,0.341c-0.032,0.106-0.067,0.2-0.1,0.28L162.595,232.669z"/>
		<path fill="#211915" d="M171.077,232.65v2.497h-0.897v-6.675h1.97c0.421,0,0.79,0.046,1.102,0.146
			c0.313,0.098,0.57,0.237,0.777,0.416c0.204,0.181,0.355,0.398,0.457,0.653c0.101,0.253,0.153,0.536,0.153,0.854
			c0,0.31-0.054,0.593-0.164,0.852c-0.108,0.256-0.268,0.479-0.478,0.667c-0.209,0.186-0.469,0.331-0.778,0.434
			c-0.309,0.104-0.665,0.156-1.069,0.156H171.077z M171.077,231.933h1.073c0.259,0,0.484-0.035,0.683-0.103
			c0.197-0.067,0.364-0.164,0.498-0.284c0.135-0.124,0.237-0.271,0.305-0.441c0.068-0.17,0.104-0.357,0.104-0.563
			c0-0.427-0.131-0.76-0.396-0.999c-0.26-0.238-0.66-0.358-1.194-0.358h-1.073V231.933z"/>
		<path fill="#211915" d="M183.512,235.147h-0.903v-3.037h-3.601v3.037h-0.905v-6.675h0.905v2.976h3.601v-2.976h0.903V235.147z"/>
		<path fill="#211915" d="M188.451,235.147h-0.905v-6.675h0.905V235.147z"/>
		<path fill="#211915" d="M197.171,233.769c0.05,0,0.093,0.021,0.13,0.061l0.36,0.388c-0.274,0.316-0.605,0.563-0.996,0.739
			c-0.39,0.178-0.861,0.266-1.413,0.266c-0.478,0-0.914-0.083-1.305-0.249c-0.391-0.165-0.726-0.398-1.003-0.699
			c-0.275-0.298-0.488-0.657-0.642-1.078c-0.152-0.418-0.228-0.88-0.228-1.383c0-0.504,0.08-0.965,0.237-1.384
			c0.158-0.42,0.383-0.781,0.669-1.08c0.287-0.303,0.631-0.536,1.031-0.703c0.401-0.164,0.844-0.249,1.327-0.249
			c0.476,0,0.895,0.078,1.259,0.229c0.363,0.152,0.683,0.359,0.959,0.619l-0.297,0.416c-0.019,0.03-0.044,0.057-0.074,0.076
			c-0.028,0.021-0.069,0.03-0.118,0.03c-0.055,0-0.124-0.03-0.204-0.091c-0.08-0.06-0.186-0.127-0.317-0.203
			c-0.131-0.072-0.294-0.142-0.489-0.203c-0.197-0.059-0.438-0.089-0.723-0.089c-0.345,0-0.66,0.061-0.947,0.179
			c-0.285,0.118-0.53,0.292-0.737,0.519c-0.206,0.229-0.367,0.505-0.482,0.828c-0.115,0.328-0.173,0.697-0.173,1.106
			c0,0.414,0.06,0.786,0.18,1.113c0.119,0.326,0.282,0.603,0.489,0.827s0.451,0.396,0.731,0.515
			c0.281,0.119,0.586,0.177,0.912,0.177c0.198,0,0.378-0.01,0.538-0.033c0.16-0.024,0.307-0.062,0.443-0.111
			c0.134-0.05,0.26-0.111,0.376-0.189c0.117-0.074,0.233-0.166,0.348-0.272C197.065,233.792,197.118,233.769,197.171,233.769z"/>
		<path fill="#211915" d="M211.538,231.813c0,0.499-0.078,0.954-0.237,1.365c-0.158,0.41-0.382,0.761-0.67,1.053
			c-0.29,0.292-0.637,0.517-1.041,0.678c-0.406,0.159-0.854,0.239-1.345,0.239h-2.493v-6.675h2.493c0.491,0,0.938,0.079,1.345,0.24
			c0.404,0.158,0.751,0.387,1.041,0.68c0.288,0.292,0.512,0.645,0.67,1.056C211.46,230.856,211.538,231.313,211.538,231.813z
			 M210.611,231.813c0-0.409-0.057-0.777-0.168-1.101c-0.11-0.322-0.27-0.595-0.476-0.818c-0.204-0.225-0.453-0.395-0.745-0.513
			c-0.291-0.119-0.618-0.178-0.978-0.178h-1.589v5.215h1.589c0.359,0,0.687-0.062,0.978-0.179c0.292-0.118,0.541-0.286,0.745-0.51
			c0.206-0.223,0.365-0.495,0.476-0.817C210.555,232.588,210.611,232.222,210.611,231.813z"/>
		<path fill="#211915" d="M219.281,228.473v0.736h-3.211v2.216h2.601v0.708h-2.601v2.278h3.215l-0.004,0.736h-4.113v-6.675H219.281z
			"/>
		<path fill="#211915" d="M226.292,229.515c-0.027,0.047-0.058,0.082-0.091,0.104c-0.032,0.025-0.071,0.036-0.117,0.036
			c-0.055,0-0.117-0.027-0.186-0.08c-0.073-0.051-0.163-0.109-0.271-0.174c-0.105-0.063-0.234-0.122-0.386-0.175
			c-0.151-0.052-0.333-0.08-0.548-0.08c-0.201,0-0.379,0.028-0.532,0.082c-0.153,0.053-0.283,0.129-0.387,0.223
			c-0.104,0.092-0.183,0.202-0.236,0.328c-0.052,0.125-0.079,0.26-0.079,0.406c0,0.187,0.048,0.34,0.138,0.464
			c0.093,0.122,0.215,0.229,0.364,0.313c0.151,0.089,0.322,0.165,0.512,0.227c0.191,0.063,0.387,0.131,0.586,0.2
			c0.202,0.067,0.397,0.144,0.588,0.23c0.193,0.085,0.363,0.192,0.514,0.322c0.149,0.131,0.271,0.29,0.362,0.481
			c0.093,0.188,0.139,0.421,0.139,0.698c0,0.291-0.052,0.565-0.15,0.822c-0.1,0.256-0.243,0.479-0.436,0.667
			c-0.189,0.191-0.425,0.34-0.705,0.447c-0.275,0.11-0.593,0.163-0.946,0.163c-0.435,0-0.828-0.078-1.182-0.235
			c-0.355-0.155-0.658-0.368-0.91-0.636l0.262-0.428c0.024-0.034,0.057-0.063,0.09-0.087c0.035-0.023,0.076-0.033,0.118-0.033
			c0.041,0,0.087,0.014,0.139,0.047c0.051,0.034,0.109,0.075,0.175,0.124c0.064,0.05,0.14,0.104,0.224,0.163s0.18,0.113,0.286,0.163
			c0.107,0.05,0.229,0.092,0.366,0.124c0.137,0.033,0.291,0.049,0.461,0.049c0.215,0,0.405-0.029,0.573-0.09
			c0.168-0.059,0.31-0.142,0.427-0.248c0.115-0.107,0.204-0.237,0.268-0.386c0.062-0.148,0.094-0.313,0.094-0.497
			c0-0.202-0.047-0.366-0.138-0.496c-0.092-0.129-0.212-0.237-0.361-0.323c-0.149-0.087-0.32-0.161-0.514-0.222
			c-0.191-0.061-0.388-0.124-0.586-0.186c-0.2-0.064-0.395-0.139-0.587-0.222c-0.193-0.085-0.363-0.192-0.513-0.327
			c-0.15-0.135-0.269-0.301-0.361-0.501c-0.092-0.2-0.138-0.448-0.138-0.742c0-0.236,0.046-0.465,0.138-0.685
			c0.093-0.222,0.226-0.416,0.402-0.588c0.175-0.172,0.39-0.308,0.646-0.41c0.255-0.102,0.551-0.154,0.883-0.154
			c0.373,0,0.712,0.061,1.018,0.179c0.307,0.117,0.575,0.288,0.808,0.512L226.292,229.515z"/>
		<path fill="#211915" d="M231.165,235.147h-0.903v-6.675h0.903V235.147z"/>
		<path fill="#211915" d="M239.548,235.043c-0.38,0.119-0.797,0.179-1.25,0.179c-0.537,0-1.022-0.083-1.454-0.249
			c-0.431-0.165-0.801-0.398-1.106-0.699c-0.305-0.298-0.54-0.657-0.706-1.078c-0.165-0.418-0.245-0.88-0.245-1.383
			c0-0.51,0.078-0.974,0.238-1.393c0.161-0.42,0.387-0.779,0.683-1.08c0.296-0.297,0.655-0.531,1.078-0.695
			c0.421-0.165,0.892-0.248,1.415-0.248c0.263,0,0.509,0.02,0.736,0.061c0.227,0.038,0.435,0.094,0.628,0.166
			s0.371,0.163,0.538,0.266c0.161,0.104,0.316,0.223,0.46,0.353l-0.255,0.41c-0.044,0.063-0.093,0.101-0.159,0.12
			c-0.063,0.015-0.133,0-0.211-0.048c-0.074-0.04-0.16-0.096-0.257-0.157c-0.098-0.062-0.214-0.122-0.351-0.179
			c-0.14-0.059-0.303-0.106-0.49-0.146c-0.188-0.041-0.409-0.061-0.669-0.061c-0.375,0-0.715,0.062-1.02,0.183
			c-0.305,0.123-0.563,0.299-0.779,0.527c-0.213,0.229-0.378,0.504-0.493,0.828c-0.113,0.326-0.172,0.69-0.172,1.094
			c0,0.418,0.061,0.793,0.181,1.124c0.118,0.331,0.288,0.612,0.512,0.843c0.223,0.231,0.492,0.409,0.808,0.529
			c0.318,0.122,0.673,0.183,1.066,0.183c0.157,0,0.303-0.011,0.436-0.028c0.137-0.019,0.267-0.045,0.39-0.076
			c0.124-0.032,0.245-0.074,0.359-0.122s0.229-0.104,0.349-0.165v-1.471h-1.037c-0.061,0-0.108-0.018-0.145-0.054
			c-0.034-0.033-0.053-0.076-0.053-0.125v-0.512h2.05v2.562C240.288,234.742,239.929,234.925,239.548,235.043z"/>
		<path fill="#211915" d="M244.902,228.479c0.029,0.006,0.055,0.013,0.076,0.023c0.021,0.009,0.044,0.026,0.065,0.046
			s0.045,0.046,0.069,0.076l3.861,5.026c-0.006-0.079-0.012-0.157-0.015-0.235c-0.005-0.074-0.008-0.148-0.008-0.216v-4.728h0.792
			v6.675h-0.451c-0.071,0-0.133-0.013-0.18-0.035c-0.049-0.025-0.096-0.069-0.143-0.128l-3.863-5.028
			c0.009,0.079,0.013,0.155,0.016,0.229c0.002,0.076,0.004,0.142,0.004,0.206v4.756h-0.792v-6.675h0.465
			C244.842,228.473,244.876,228.475,244.902,228.479z"/>
	</g>
</g>
</svg>
