<?xml version="1.0" encoding="UTF-8" standalone="no"?>
<!-- Generator: Adobe Illustrator 16.0.0, SVG Export Plug-In . SVG Version: 6.00 Build 0)  -->

<svg
   xmlns:dc="http://purl.org/dc/elements/1.1/"
   xmlns:cc="http://creativecommons.org/ns#"
   xmlns:rdf="http://www.w3.org/1999/02/22-rdf-syntax-ns#"
   xmlns:svg="http://www.w3.org/2000/svg"
   xmlns="http://www.w3.org/2000/svg"
   xmlns:sodipodi="http://sodipodi.sourceforge.net/DTD/sodipodi-0.dtd"
   xmlns:inkscape="http://www.inkscape.org/namespaces/inkscape"
   version="1.1"
   id="Capa_1"
   x="0px"
   y="0px"
   width="58.224155"
   height="11"
   viewBox="0 0 58.224155 11"
   enable-background="new 0 0 81.875 15"
   xml:space="preserve"
   inkscape:version="0.48.5 r10040"
   sodipodi:docname="behance-name.svg"><metadata
     id="metadata41"><rdf:RDF><cc:Work
         rdf:about=""><dc:format>image/svg+xml</dc:format><dc:type
           rdf:resource="http://purl.org/dc/dcmitype/StillImage" /></cc:Work></rdf:RDF></metadata><defs
     id="defs39" /><sodipodi:namedview
     pagecolor="#ffffff"
     bordercolor="#666666"
     borderopacity="1"
     objecttolerance="10"
     gridtolerance="10"
     guidetolerance="10"
     inkscape:pageopacity="0"
     inkscape:pageshadow="2"
     inkscape:window-width="1366"
     inkscape:window-height="718"
     id="namedview37"
     showgrid="false"
     fit-margin-top="0"
     fit-margin-left="0"
     fit-margin-right="0"
     fit-margin-bottom="0"
     inkscape:zoom="8.8183206"
     inkscape:cx="37.31999"
     inkscape:cy="4.2144839"
     inkscape:window-x="-3"
     inkscape:window-y="27"
     inkscape:window-maximized="1"
     inkscape:current-layer="Capa_1" /><g
     id="g3"
     transform="scale(0.73327449,0.73327449)"><rect
       width="3.3570001"
       height="14.638"
       id="rect5"
       x="0"
       y="0"
       style="fill:#9f9ea4" /><rect
       x="3.233"
       width="4.3829999"
       height="2.6029999"
       id="rect7"
       y="0"
       style="fill:#9f9ea4" /><rect
       x="3.233"
       y="12.037"
       width="4.3829999"
       height="2.6010001"
       id="rect9"
       style="fill:#9f9ea4" /><rect
       x="3.233"
       y="5.869"
       width="4.3829999"
       height="2.2550001"
       id="rect11"
       style="fill:#9f9ea4" /><path
       d="m 7.616,14.638 c 0,0 4.653,0.146 4.653,-4.319 0,0 0.2,-3.636 -2.743,-3.636 0,0 2.234,-0.165 2.234,-2.785 C 11.76,1.278 9.931,0 7.616,0 5.304,0 5.424,1.301 5.424,1.301 l 1.645,1.302 h 0.546 c 0,0 1.037,0 1.037,1.523 0,1.521 -0.608,1.744 -1.299,1.744 -0.689,0 -0.955,1.127 -0.955,1.127 l 1.216,1.128 c 0,0 1.547,-0.02 1.547,2.011 0,2.031 -1.626,1.902 -2.033,1.902 -0.407,0 -0.283,1.041 -0.283,1.041 l 0.771,1.559 z"
       id="path13"
       inkscape:connector-curvature="0"
       style="fill:#9f9ea4" /><path
       d="m 18.465,3.726 c -5.625,0 -5.622,5.623 -5.622,5.623 0,0 -0.384,5.594 5.622,5.594 0,0 5.013,0.286 5.013,-3.894 h -2.576 c 0,0 0.085,1.575 -2.346,1.575 0,0 -2.579,0.175 -2.579,-2.547 h 7.589 c 0.001,0 0.828,-6.351 -5.101,-6.351 z m -2.516,4.398 c 0,0 0.316,-2.255 2.579,-2.255 2.258,0 2.229,2.255 2.229,2.255 h -4.808 z"
       id="path15"
       inkscape:connector-curvature="0"
       style="fill:#9f9ea4" /><path
       d="m 74.262,3.726 c -5.625,0 -5.621,5.623 -5.621,5.623 0,0 -0.385,5.594 5.625,5.594 0,0 5.01,0.286 5.01,-3.894 h -2.578 c 0,0 0.086,1.575 -2.344,1.575 0,0 -2.578,0.175 -2.578,-2.547 h 7.588 c -0.001,0 0.827,-6.351 -5.102,-6.351 z m -2.516,4.398 c 0,0 0.314,-2.255 2.576,-2.255 2.262,0 2.232,2.255 2.232,2.255 h -4.808 z"
       id="path17"
       inkscape:connector-curvature="0"
       style="fill:#9f9ea4" /><rect
       x="15.319"
       y="0.861"
       width="6.0419998"
       height="1.8049999"
       id="rect19"
       style="fill:#9f9ea4" /><rect
       x="24.707001"
       width="2.9790001"
       height="14.63"
       id="rect21"
       y="0"
       style="fill:#9f9ea4" /><polygon
       points="31.605,14.63 34.523,14.63 34.523,7.188 31.605,7.188 31.605,7.647 "
       id="polygon23"
       style="fill:#9f9ea4" /><path
       d="m 31.568,7.188 c 0,0 0,-1.118 -1.852,-1.118 -1.718,0 -2.031,1.347 -2.031,2.636 0,1.288 -0.203,-2.836 -0.203,-2.836 0,0 0.941,-2.144 3.461,-2.144 2.523,0 3.579,1.818 3.579,3.607 0,1.788 -1.01,0.925 -1.01,0.925 L 31.567,7.797 V 7.188 z"
       id="path25"
       inkscape:connector-curvature="0"
       style="fill:#9f9ea4" /><rect
       x="46.838001"
       y="3.881"
       width="2.9790001"
       height="10.749"
       id="rect27"
       style="fill:#9f9ea4" /><polygon
       points="53.738,14.63 56.654,14.63 56.654,7.188 53.738,7.188 53.738,7.647 "
       id="polygon29"
       style="fill:#9f9ea4" /><path
       d="m 53.701,7.188 c 0,0 0,-1.118 -1.854,-1.118 -1.719,0 -2.031,1.347 -2.031,2.636 0,1.288 -0.203,-2.836 -0.203,-2.836 0,0 0.949,-2.144 3.465,-2.144 2.52,0 3.576,1.818 3.576,3.607 0,1.788 -1.01,0.925 -1.01,0.925 L 53.701,7.797 V 7.188 z"
       id="path31"
       inkscape:connector-curvature="0"
       style="fill:#9f9ea4" /><path
       d="m 45.844,14.63 c 0,0 -0.555,-0.284 -0.555,-2.023 0,-1.738 0,-6.269 0,-6.269 0,0 0.352,-2.612 -4.356,-2.612 -4.71,0 -5.015,2.359 -5.041,3.77 h 3.15 c 0,0 -0.127,-1.866 1.863,-1.866 0,0 1.687,-0.135 1.687,1.558 0,0 0,1.111 -1.532,1.213 -1.541,0.102 -5.442,0.076 -5.442,3.25 0,0 -0.102,3.35 3.484,3.35 0,0 2.458,0.051 3.491,-1.461 v 1.091 h 3.251 z m -3.276,-3.308 c 0,0 -0.252,1.613 -2.393,1.613 0,0 -1.766,0.073 -1.766,-1.436 0,0 -0.147,-1.159 2.32,-1.537 0.983,-0.076 1.435,-0.142 1.838,-0.601 v 1.961 z"
       id="path33"
       inkscape:connector-curvature="0"
       style="fill:#9f9ea4" /><path
       d="m 68.176,10.487 h -3.08 c 0,0 0.074,2.169 -1.943,2.169 -2.014,0 -2.547,-2.16 -2.547,-3.401 0,-1.239 0.416,-3.332 2.586,-3.332 2.168,0 2.09,1.863 2.09,1.863 h 2.703 c 0,0 0.188,-4.061 -4.752,-4.061 -4.947,0 -5.479,4.001 -5.479,5.61 0,1.608 0.836,5.664 5.398,5.664 4.565,10e-4 5.024,-3.674 5.024,-4.512 z"
       id="path35"
       inkscape:connector-curvature="0"
       style="fill:#9f9ea4" /></g></svg>