<svg xmlns="http://www.w3.org/2000/svg" width="53.921" height="11" viewBox="0 0 53.920994 11" enable-background="new 0 0 81.875 15"><g><path d="M3.844 0c-.35.008-.715.025-1.063.063-.6.067-1.09.4-1.374.968-.187.365-.238.753-.25 1.157-.01.392 0 .79 0 1.188-.004.2-.05.22-.25.22-.254 0-.495.003-.75 0-.102-.003-.158.04-.156.155.002.507.004.993 0 1.5 0 .115.045.158.156.156.264-.004.52.01.78 0 .147-.004.23.043.22.188-.005.06 0 .126 0 .187 0 1.634-.027 3.274-.03 4.907 0 .163.057.22.218.22.59-.01 1.192-.007 1.78 0 .16 0 .197-.053.188-.22-.016-.362 0-.704 0-1.062-.003-1.335.005-2.698 0-4.03 0-.16.064-.223.22-.22.37.004.72.02 1.093.03.157.006.207-.08.22-.218.013-.203.04-.39.06-.593.036-.32.06-.666.095-1-.078-.005-.127 0-.188 0-.437 0-.874-.007-1.312 0-.15.002-.19-.053-.188-.188.01-.355.01-.707.032-1.062.015-.26.116-.402.375-.47.137-.033.293-.056.436-.062.24-.008.478-.002.72 0 .087 0 .124-.03.124-.125-.002-.523.007-1.038 0-1.562C4.998.082 4.914 0 4.875 0c-.35.008-.68-.008-1.03 0zM27.5.22c-.63.1-1.276.208-1.906.31-.09.017-.13.06-.125.157.003.185 0 .38 0 .563v9.188c0 .052-.02.115 0 .156.02.05.077.115.124.125.254.044.493.094.75.124.526.053 1.063.098 1.593.125.384.02.768-.017 1.157-.033.468-.013.937-.085 1.375-.25.746-.28 1.22-.806 1.374-1.593.084-.434.137-.87.156-1.313.017-.5.017-1 0-1.5-.02-.448-.07-.904-.156-1.343-.112-.596-.474-1.02-1.063-1.218-.938-.313-1.87-.27-2.81-.033-.336.085-.345.07-.345-.28.002-.996 0-1.975 0-2.97 0-.07.005-.14 0-.218-.055.005-.09-.008-.125 0zm21.844 0c-.594.1-1.187.21-1.782.31-.296.052-.312.044-.312.345v9.751c0 .257.03.28.28.28.57 0 1.12-.005 1.69 0 .163.006.22-.045.218-.217-.01-.976 0-1.957 0-2.938 0-.045-.012-.112 0-.156.004-.032.036-.06.062-.063.025-.005.075.005.094.032.05.065.084.147.125.22.59.98 1.192 1.956 1.78 2.937.073.118.16.188.313.186.638-.01 1.265 0 1.906 0 .054 0 .106-.025.186-.03-.036-.076-.033-.11-.062-.157-.667-1.11-1.328-2.24-2-3.345-.1-.166-.138-.31 0-.47.073-.08.128-.187.187-.28.56-.883 1.104-1.74 1.657-2.625.077-.12.136-.24.22-.375-.06-.01-.07-.03-.094-.03-.697 0-1.398-.01-2.094 0-.07 0-.148.06-.19.124-.382.59-.776 1.216-1.155 1.81-.245.384-.47.747-.72 1.126-.033.054-.102.087-.155.125-.015-.06-.063-.125-.063-.186-.004-2.064 0-4.124 0-6.188V.22c-.05 0-.073-.007-.093 0zM15.03 3.5c-.374.016-.755.055-1.124.156-.638.176-1.166.53-1.53 1.094-.31.482-.43 1.03-.438 1.594-.01.512.007 1.02 0 1.53-.007.406.038.804.156 1.19.16.522.425.978.875 1.31.575.428 1.24.55 1.936.595.827.052 1.63-.052 2.438-.22.106-.02.158-.067.156-.188-.007-.493.003-1.005 0-1.5 0-.04-.022-.054-.03-.093-.295.044-.57.08-.845.124-.587.098-1.187.135-1.78.062-.447-.06-.703-.328-.72-.78-.03-.695-.024-1.4-.03-2.095 0-.06-.012-.125 0-.186.088-.497.342-.718.842-.782.608-.08 1.183-.002 1.782.094l.78.125c.005-.082 0-.163 0-.218 0-.45-.01-.894 0-1.343.002-.157-.04-.202-.188-.22-.385-.056-.772-.138-1.156-.188-.378-.05-.75-.078-1.125-.062zm6.47 0c-.458-.004-.917.04-1.375.156-.76.193-1.323.636-1.625 1.375-.165.395-.217.824-.22 1.25-.003.576-.01 1.144 0 1.72.004.254.047.5.095.75.15.802.554 1.457 1.28 1.844.563.296 1.188.402 1.814.406.4.002.79-.024 1.186-.063.535-.05 1.062-.117 1.594-.187.126-.02.158-.102.156-.22-.006-.474 0-.934 0-1.405V8.97c-.54.057-1.066.126-1.593.155-.546.026-1.11.034-1.657 0-.344-.023-.58-.232-.656-.594-.032-.14-.053-.292-.063-.436-.01-.21.036-.25.25-.25h3.75c.08 0 .16.007.157-.094-.016-.705.022-1.428-.063-2.125-.12-.98-.696-1.646-1.655-1.938-.455-.138-.917-.183-1.375-.187zm14.594 0c-.49-.006-.98.058-1.47.188-.644.165-1.165.507-1.5 1.093-.278.484-.362 1.044-.374 1.595-.007.538-.012 1.056 0 1.594.004.258.016.523.063.78.167.938.643 1.638 1.562 1.97.916.324 1.874.345 2.813.124 1.234-.29 1.85-1.015 2-2.28.053-.446.03-.896.03-1.345.02 0 .012-.002.032 0-.02-.484.003-.964-.063-1.44-.136-.993-.654-1.702-1.624-2.03-.484-.163-.98-.244-1.47-.25zm6.78 0c-.197.015-.394.06-.593.094-.54.096-1.022.284-1.436.656-.51.462-.777 1.05-.813 1.72C39.993 6.65 40 7.316 40 8c0 .276.038.573.094.844.182.936.714 1.59 1.625 1.906.853.292 1.747.308 2.624.125 1.295-.27 1.936-.977 2.125-2.28.063-.45.042-.89.06-1.345h-.06c0-.444.038-.902 0-1.344-.097-1.136-.74-1.915-1.814-2.218-.583-.165-1.188-.232-1.78-.188zm-36.843.094c-.13 0-.176.07-.186.187l-.157 1.626c.396 0 .78-.006 1.157 0 .46.006.915.007 1.375.032.33.016.616.235.624.593.006.203.017.395.03.595.008.112-.04.156-.155.156-.597.007-1.19.014-1.783.032-.202.008-.397.02-.593.063-.545.12-1.015.37-1.25.906-.234.53-.252 1.1-.125 1.657.203.9.77 1.43 1.686 1.532.757.082 1.5-.04 2.188-.376.316-.154.318-.18.375.156.02.132.096.158.217.156.49-.005.98.018 1.47.03.164.004.187-.057.187-.217-.017-1.584-.01-3.168-.03-4.75-.002-.27-.037-.552-.095-.814-.085-.383-.252-.742-.564-1-.537-.438-1.19-.535-1.844-.562-.838-.037-1.69.006-2.53 0zm15.314 1.53c.105-.005.212-.01.312 0 .692.1.788.654.75 1.19-.008.11-.072.12-.156.123-.272.003-.542.003-.813 0-.266 0-.545-.004-.812 0-.128 0-.196-.063-.188-.187.01-.14.013-.27.032-.406.063-.49.428-.704.874-.72zm7.562.19c.532.015.875.335.875.873.003.64.003 1.3 0 1.938 0 .673-.358 1.057-1.03 1.063-.304.002-.6-.007-.906 0-.14.006-.2-.054-.188-.188.002-.01 0-.022 0-.03V7.374c0-.526.002-1.037 0-1.563-.002-.136.03-.225.157-.28.35-.15.703-.23 1.093-.22zm7.157-.002c.127.007.252.036.374.063.372.082.586.37.594.75.017.766.018 1.516 0 2.28-.005.35-.283.65-.686.72-.24.04-.48.045-.72 0-.473-.095-.702-.424-.718-.938V7.25c0-.323-.01-.648 0-.97.01-.508.28-.86.782-.936.123-.02.247-.038.374-.032zm7.093 0c.144 0 .27.005.407.032.5.103.772.428.78.937.003.318 0 .62 0 .94h-.03c0 .374.023.78 0 1.155-.025.42-.26.652-.657.75-.253.065-.532.062-.78 0-.478-.12-.678-.413-.688-.938-.012-.645-.012-1.293 0-1.937.007-.568.402-.94.968-.938zM8.22 8.25c.167 0 .332.007.5 0 .12-.004.158.032.155.156-.005.195.01.4 0 .594-.004.058-.048.134-.094.156-.323.16-.657.288-1.03.28-.563-.006-.677-.387-.625-.78.024-.19.148-.35.344-.375.242-.024.506-.013.75-.03z" fill="#9f9ea4" fill-rule="evenodd"/></g></svg>