<?xml version="1.0" encoding="UTF-8" standalone="no"?>
<!-- Generator: Adobe Illustrator 16.0.0, SVG Export Plug-In . SVG Version: 6.00 Build 0)  -->

<svg
   xmlns:dc="http://purl.org/dc/elements/1.1/"
   xmlns:cc="http://creativecommons.org/ns#"
   xmlns:rdf="http://www.w3.org/1999/02/22-rdf-syntax-ns#"
   xmlns:svg="http://www.w3.org/2000/svg"
   xmlns="http://www.w3.org/2000/svg"
   xmlns:sodipodi="http://sodipodi.sourceforge.net/DTD/sodipodi-0.dtd"
   xmlns:inkscape="http://www.inkscape.org/namespaces/inkscape"
   version="1.1"
   id="Capa_1"
   x="0px"
   y="0px"
   width="53.920994"
   height="11"
   viewBox="0 0 53.920994 11"
   enable-background="new 0 0 81.875 15"
   xml:space="preserve"
   inkscape:version="0.48.5 r10040"
   sodipodi:docname="facebook-name.svg"><metadata
     id="metadata25"><rdf:RDF><cc:Work
         rdf:about=""><dc:format>image/svg+xml</dc:format><dc:type
           rdf:resource="http://purl.org/dc/dcmitype/StillImage" /></cc:Work></rdf:RDF></metadata><defs
     id="defs23" /><sodipodi:namedview
     pagecolor="#ffffff"
     bordercolor="#666666"
     borderopacity="1"
     objecttolerance="10"
     gridtolerance="10"
     guidetolerance="10"
     inkscape:pageopacity="0"
     inkscape:pageshadow="2"
     inkscape:window-width="1366"
     inkscape:window-height="718"
     id="namedview21"
     showgrid="false"
     inkscape:zoom="8.8183206"
     inkscape:cx="22.429957"
     inkscape:cy="10.085819"
     inkscape:window-x="-3"
     inkscape:window-y="27"
     inkscape:window-maximized="1"
     inkscape:current-layer="Capa_1"
     fit-margin-top="0"
     fit-margin-left="0"
     fit-margin-right="0"
     fit-margin-bottom="0" /><g
     id="g3"
     transform="matrix(0.7332698,0,0,0.7332698,0,5.1999871e-6)"><path
       clip-rule="evenodd"
       d="m 37.662,0.289 c 0.007,0.107 0.018,0.202 0.018,0.299 0,1.356 -0.004,2.715 -0.007,4.072 0,0.478 0.013,0.478 0.469,0.363 1.285,-0.325 2.571,-0.395 3.852,0.03 0.803,0.269 1.291,0.854 1.444,1.667 0.116,0.598 0.157,1.213 0.183,1.825 0.023,0.681 0.023,1.365 0,2.048 -0.026,0.602 -0.064,1.211 -0.179,1.802 -0.208,1.073 -0.87,1.79 -1.889,2.174 -0.597,0.224 -1.22,0.347 -1.858,0.366 -0.53,0.021 -1.062,0.061 -1.585,0.034 -0.723,-0.036 -1.446,-0.128 -2.163,-0.201 -0.35,-0.04 -0.703,-0.092 -1.05,-0.154 -0.064,-0.013 -0.126,-0.101 -0.155,-0.17 -0.025,-0.055 -0.004,-0.132 -0.004,-0.203 0,-4.185 0,-8.369 0,-12.556 0,-0.25 -0.004,-0.5 -0.01,-0.751 -0.006,-0.132 0.06,-0.187 0.183,-0.209 0.859,-0.141 1.716,-0.28 2.574,-0.419 0.047,-0.009 0.102,-0.009 0.177,-0.017 z m 0.046,9.788 c 0,0.712 0,1.426 0,2.14 0,0.012 0.003,0.028 0,0.043 -0.017,0.183 0.057,0.263 0.247,0.254 0.418,-0.009 0.832,0 1.247,-0.003 0.916,-0.008 1.432,-0.531 1.433,-1.449 0.003,-0.871 0.003,-1.742 0,-2.613 C 40.634,7.714 40.167,7.268 39.442,7.245 38.91,7.229 38.425,7.36 37.948,7.563 c -0.173,0.076 -0.243,0.171 -0.24,0.357 0.003,0.717 0,1.44 0,2.157 z"
       id="path5"
       inkscape:connector-curvature="0"
       style="fill:#9f9ea4;fill-rule:evenodd" /><path
       clip-rule="evenodd"
       d="m 67.427,0.283 c 0,0.11 0,0.189 0,0.273 0,2.814 0,5.626 0.006,8.441 0,0.084 0.035,0.168 0.056,0.252 0.072,-0.052 0.174,-0.086 0.221,-0.159 0.34,-0.517 0.668,-1.046 1.002,-1.568 0.517,-0.812 1.027,-1.626 1.55,-2.434 0.056,-0.087 0.184,-0.18 0.276,-0.18 0.949,-0.012 1.896,-0.006 2.846,-0.006 0.035,0 0.069,0.009 0.151,0.023 -0.113,0.183 -0.207,0.349 -0.312,0.511 -0.755,1.205 -1.516,2.409 -2.276,3.613 -0.081,0.127 -0.147,0.27 -0.247,0.38 -0.188,0.218 -0.15,0.409 -0.014,0.636 0.917,1.507 1.823,3.021 2.732,4.533 0.04,0.063 0.066,0.133 0.116,0.235 -0.11,0.008 -0.189,0.02 -0.265,0.02 -0.874,0 -1.748,-0.006 -2.619,0.006 -0.206,0.003 -0.316,-0.079 -0.415,-0.242 -0.802,-1.337 -1.609,-2.673 -2.416,-4.009 -0.056,-0.099 -0.119,-0.193 -0.188,-0.281 -0.026,-0.038 -0.088,-0.076 -0.122,-0.068 -0.035,0.004 -0.067,0.072 -0.073,0.115 -0.015,0.061 -0.009,0.121 -0.009,0.183 0,1.338 -0.003,2.673 0.009,4.004 0.003,0.235 -0.075,0.302 -0.299,0.296 -0.774,-0.009 -1.55,-0.003 -2.325,-0.003 -0.344,0 -0.354,-0.006 -0.354,-0.356 0,-2.541 0,-5.082 0,-7.623 0,-1.895 0,-3.792 0,-5.687 0,-0.411 0,-0.411 0.405,-0.48 0.811,-0.137 1.625,-0.276 2.435,-0.414 0.027,-0.008 0.059,-0.008 0.129,-0.011 z"
       id="path7"
       inkscape:connector-curvature="0"
       style="fill:#9f9ea4;fill-rule:evenodd" /><path
       clip-rule="evenodd"
       d="m 33.277,12.237 c 0,0.062 0.01,0.128 0.01,0.194 10e-4,0.643 -0.004,1.287 0.004,1.935 0.003,0.159 -0.038,0.255 -0.21,0.281 -0.725,0.096 -1.45,0.218 -2.179,0.288 -0.542,0.052 -1.089,0.052 -1.635,0.049 -0.853,-0.006 -1.691,-0.146 -2.457,-0.55 -0.992,-0.527 -1.564,-1.387 -1.77,-2.481 -0.065,-0.339 -0.1,-0.691 -0.104,-1.037 C 24.92,10.13 24.927,9.337 24.933,8.553 24.936,7.971 25.012,7.397 25.237,6.86 c 0.412,-1.008 1.182,-1.613 2.218,-1.876 1.25,-0.313 2.501,-0.322 3.743,0.055 1.308,0.398 2.085,1.301 2.249,2.637 0.115,0.95 0.061,1.919 0.082,2.881 0.003,0.138 -0.084,0.158 -0.193,0.158 -0.266,0 -0.533,0 -0.798,0 -1.449,0 -2.896,0 -4.341,0 -0.292,0 -0.354,0.058 -0.339,0.344 0.013,0.197 0.041,0.394 0.085,0.588 0.102,0.494 0.45,0.772 0.92,0.803 0.747,0.047 1.499,0.05 2.243,0.014 0.719,-0.039 1.436,-0.148 2.171,-0.227 z M 29.215,8.762 c 0,0.003 0,0.003 0,0.003 0.369,0.003 0.742,0.003 1.113,0 C 30.443,8.762 30.566,8.751 30.577,8.599 30.629,7.87 30.487,7.13 29.543,6.995 29.406,6.978 29.261,6.974 29.117,6.982 28.509,7.003 28.01,7.287 27.922,7.955 27.896,8.141 27.895,8.331 27.884,8.52 c -0.012,0.169 0.067,0.248 0.241,0.248 0.364,-0.006 0.727,-0.006 1.09,-0.006 z"
       id="path9"
       inkscape:connector-curvature="0"
       style="fill:#9f9ea4;fill-rule:evenodd" /><path
       clip-rule="evenodd"
       d="m 53.473,9.845 c 0,0.613 0.063,1.234 -0.01,1.84 -0.202,1.727 -1.068,2.7 -2.752,3.097 -1.28,0.302 -2.566,0.277 -3.815,-0.167 -1.253,-0.451 -1.924,-1.393 -2.153,-2.672 -0.063,-0.35 -0.088,-0.707 -0.094,-1.061 -0.016,-0.734 -0.014,-1.47 -0.004,-2.204 0.017,-0.752 0.145,-1.482 0.526,-2.14 0.456,-0.799 1.161,-1.295 2.04,-1.521 1.337,-0.354 2.682,-0.366 4.002,0.078 1.324,0.447 2.047,1.423 2.233,2.779 0.089,0.647 0.073,1.313 0.102,1.972 -0.027,-10e-4 -0.05,-10e-4 -0.075,-10e-4 z m -5.875,0.026 c 0,0.417 0,0.832 0,1.249 0,0.017 0,0.028 0,0.046 0.021,0.7 0.327,1.136 0.973,1.266 0.324,0.062 0.678,0.062 1.006,0.006 0.55,-0.096 0.929,-0.487 0.938,-0.962 C 50.538,10.433 50.54,9.39 50.518,8.345 50.507,7.827 50.199,7.447 49.692,7.335 49.359,7.261 49,7.236 48.664,7.29 47.98,7.396 47.616,7.858 47.603,8.553 47.588,8.991 47.598,9.43 47.598,9.871 z"
       id="path11"
       inkscape:connector-curvature="0"
       style="fill:#9f9ea4;fill-rule:evenodd" /><path
       clip-rule="evenodd"
       d="m 63.451,9.871 c -0.026,0.621 0.002,1.249 -0.086,1.861 -0.257,1.778 -1.143,2.718 -2.909,3.087 C 59.26,15.068 58.067,15.038 56.902,14.64 55.66,14.211 54.925,13.337 54.677,12.06 54.601,11.691 54.57,11.306 54.57,10.93 54.567,9.998 54.558,9.063 54.611,8.131 54.66,7.22 54.99,6.406 55.686,5.776 56.251,5.269 56.93,5.015 57.669,4.884 c 1.082,-0.186 2.157,-0.168 3.218,0.131 1.466,0.414 2.357,1.487 2.488,3.037 0.054,0.602 0.009,1.212 0.009,1.818 0.022,0.001 0.046,0.001 0.067,0.001 z M 60.446,9.862 c 0.013,0 0.021,0 0.033,0 0,-0.433 0.003,-0.863 0,-1.295 C 60.467,7.873 60.11,7.426 59.429,7.285 59.241,7.249 59.035,7.252 58.839,7.252 58.067,7.249 57.528,7.76 57.518,8.534 c -0.016,0.878 -0.016,1.755 0,2.635 0.014,0.715 0.318,1.109 0.969,1.273 0.34,0.084 0.684,0.08 1.029,-0.008 0.543,-0.133 0.89,-0.458 0.924,-1.029 0.032,-0.511 0.006,-1.031 0.006,-1.543 z"
       id="path13"
       inkscape:connector-curvature="0"
       style="fill:#9f9ea4;fill-rule:evenodd" /><path
       clip-rule="evenodd"
       d="M 7.754,7.388 C 7.828,6.61 7.895,5.874 7.965,5.138 7.979,4.977 8.042,4.903 8.223,4.903 c 1.147,0.009 2.291,-0.031 3.435,0.019 0.89,0.037 1.783,0.164 2.516,0.762 0.425,0.352 0.653,0.828 0.767,1.351 0.08,0.357 0.134,0.731 0.134,1.096 0.03,2.159 0.033,4.319 0.056,6.478 0,0.218 -0.052,0.291 -0.277,0.287 -0.668,-0.018 -1.334,-0.01 -2.002,-0.003 -0.166,0.003 -0.231,-0.035 -0.26,-0.215 -0.077,-0.46 -0.093,-0.457 -0.524,-0.248 -0.938,0.457 -1.94,0.653 -2.972,0.54 C 7.847,14.83 7.072,14.093 6.793,12.866 6.62,12.104 6.647,11.346 6.966,10.624 7.287,9.892 7.907,9.546 8.65,9.384 8.917,9.325 9.199,9.296 9.475,9.286 c 0.809,-0.025 1.619,-0.037 2.431,-0.045 0.158,0 0.218,-0.056 0.209,-0.209 C 12.096,8.759 12.083,8.489 12.074,8.214 12.063,7.725 11.653,7.458 11.203,7.436 10.576,7.403 9.948,7.396 9.32,7.388 c -0.513,-0.009 -1.027,0 -1.566,0 z m 3.443,3.865 c 0,-0.006 0,-0.013 0,-0.021 -0.331,0.023 -0.662,0.032 -0.994,0.067 -0.267,0.032 -0.468,0.227 -0.501,0.486 -0.071,0.536 0.112,1.079 0.88,1.089 0.508,0.009 0.962,-0.169 1.404,-0.388 0.063,-0.03 0.116,-0.138 0.121,-0.217 0.015,-0.263 0,-0.529 0.007,-0.795 0.004,-0.169 -0.07,-0.229 -0.234,-0.224 -0.227,0.009 -0.454,0.003 -0.683,0.003 z"
       id="path15"
       inkscape:connector-curvature="0"
       style="fill:#9f9ea4;fill-rule:evenodd" /><path
       clip-rule="evenodd"
       d="M 6.84,4.921 C 6.794,5.377 6.749,5.811 6.702,6.247 6.674,6.526 6.64,6.805 6.621,7.083 6.605,7.269 6.537,7.362 6.323,7.356 5.816,7.341 5.306,7.356 4.8,7.35 4.588,7.346 4.501,7.426 4.501,7.644 c 0.006,1.818 10e-4,3.641 0.006,5.461 0,0.488 0.003,0.981 0.026,1.476 0.012,0.227 -0.074,0.278 -0.289,0.275 -0.803,-0.009 -1.606,-0.009 -2.412,0.003 -0.219,0.003 -0.28,-0.066 -0.28,-0.287 0.006,-2.228 0.006,-4.458 0.006,-6.685 0,-0.084 -0.007,-0.171 0,-0.252 C 1.571,7.437 1.485,7.368 1.287,7.374 0.931,7.387 0.577,7.373 0.217,7.379 0.065,7.382 0,7.322 0,7.165 0.006,6.474 0.006,5.786 0.003,5.095 0,4.94 0.07,4.9 0.209,4.903 c 0.348,0.006 0.698,0 1.045,0 0.271,0 0.298,-0.026 0.304,-0.299 0,-0.543 -0.012,-1.08 0,-1.614 C 1.574,2.438 1.664,1.9 1.919,1.404 2.308,0.629 2.979,0.195 3.801,0.103 4.749,0.001 5.709,0.021 6.661,0 6.714,-0.001 6.814,0.104 6.817,0.163 6.827,0.877 6.82,1.587 6.823,2.301 6.823,2.429 6.76,2.469 6.64,2.469 6.312,2.466 5.985,2.462 5.66,2.474 5.465,2.481 5.268,2.499 5.079,2.545 4.726,2.636 4.561,2.833 4.54,3.188 4.511,3.673 4.516,4.161 4.502,4.645 4.5,4.829 4.574,4.915 4.777,4.912 5.375,4.903 5.975,4.909 6.571,4.909 c 0.082,0 0.163,0.006 0.269,0.012 z"
       id="path17"
       inkscape:connector-curvature="0"
       style="fill:#9f9ea4;fill-rule:evenodd" /><path
       clip-rule="evenodd"
       d="M 23.853,7.525 C 23.489,7.467 23.153,7.418 22.818,7.365 22.002,7.234 21.182,7.15 20.353,7.258 19.67,7.345 19.363,7.638 19.241,8.316 19.227,8.4 19.206,8.482 19.206,8.565 c 0.01,0.948 0,1.896 0.041,2.843 0.023,0.618 0.404,0.979 1.012,1.06 0.81,0.099 1.616,0.056 2.417,-0.078 0.377,-0.06 0.761,-0.118 1.162,-0.18 0.012,0.054 0.028,0.11 0.028,0.164 0.004,0.675 -0.001,1.352 0.008,2.025 0.003,0.165 -0.065,0.231 -0.21,0.258 -1.102,0.229 -2.212,0.394 -3.339,0.322 -0.948,-0.061 -1.853,-0.269 -2.639,-0.851 -0.613,-0.454 -0.984,-1.057 -1.201,-1.771 -0.16,-0.525 -0.213,-1.067 -0.204,-1.619 0.01,-0.695 -0.007,-1.393 0.007,-2.092 0.01,-0.768 0.176,-1.504 0.598,-2.162 0.498,-0.77 1.211,-1.241 2.082,-1.481 1.006,-0.277 2.032,-0.295 3.063,-0.157 0.524,0.068 1.045,0.17 1.571,0.247 0.201,0.025 0.274,0.115 0.271,0.327 -0.012,0.613 -0.004,1.227 -0.004,1.841 -0.001,0.075 -0.009,0.151 -0.016,0.264 z"
       id="path19"
       inkscape:connector-curvature="0"
       style="fill:#9f9ea4;fill-rule:evenodd" /></g></svg>