<?xml version="1.0" encoding="UTF-8" standalone="no"?>
<!-- Generator: Adobe Illustrator 16.0.0, SVG Export Plug-In . SVG Version: 6.00 Build 0)  -->

<svg
   xmlns:dc="http://purl.org/dc/elements/1.1/"
   xmlns:cc="http://creativecommons.org/ns#"
   xmlns:rdf="http://www.w3.org/1999/02/22-rdf-syntax-ns#"
   xmlns:svg="http://www.w3.org/2000/svg"
   xmlns="http://www.w3.org/2000/svg"
   xmlns:sodipodi="http://sodipodi.sourceforge.net/DTD/sodipodi-0.dtd"
   xmlns:inkscape="http://www.inkscape.org/namespaces/inkscape"
   version="1.1"
   id="Capa_1"
   x="0px"
   y="0px"
   width="59.036732"
   height="11"
   viewBox="0 0 59.036732 11"
   enable-background="new 0 0 81.875 15"
   xml:space="preserve"
   inkscape:version="0.48.5 r10040"
   sodipodi:docname="twitter-name.svg"><metadata
     id="metadata31"><rdf:RDF><cc:Work
         rdf:about=""><dc:format>image/svg+xml</dc:format><dc:type
           rdf:resource="http://purl.org/dc/dcmitype/StillImage" /></cc:Work></rdf:RDF></metadata><defs
     id="defs29" /><sodipodi:namedview
     pagecolor="#ffffff"
     bordercolor="#666666"
     borderopacity="1"
     objecttolerance="10"
     gridtolerance="10"
     guidetolerance="10"
     inkscape:pageopacity="0"
     inkscape:pageshadow="2"
     inkscape:window-width="1366"
     inkscape:window-height="718"
     id="namedview27"
     showgrid="false"
     fit-margin-top="0"
     fit-margin-left="0"
     fit-margin-right="0"
     fit-margin-bottom="0"
     inkscape:zoom="4.4091603"
     inkscape:cx="40.9375"
     inkscape:cy="7.5"
     inkscape:window-x="-3"
     inkscape:window-y="27"
     inkscape:window-maximized="1"
     inkscape:current-layer="Capa_1" /><g
     id="g3"
     transform="scale(0.73321161,0.73321161)"><path
       clip-rule="evenodd"
       d="M 23.072,8.215 C 23.072,7.649 23.087,7.084 23.071,6.52 23.048,5.772 22.526,5.271 21.776,5.248 20.919,5.222 20.357,5.794 20.341,6.733 20.329,7.677 20.353,8.616 20.335,9.555 20.317,10.52 19.308,11.139 18.431,10.746 17.806,10.468 17.604,9.934 17.592,9.305 17.58,8.431 17.592,7.56 17.588,6.686 17.583,5.783 17.061,5.242 16.211,5.248 15.405,5.252 14.858,5.823 14.85,6.677 c -0.007,0.916 0.009,1.827 -0.007,2.74 -0.01,0.815 -0.607,1.456 -1.326,1.464 C 12.725,10.891 12.108,10.247 12.103,9.39 12.096,8.504 12.105,7.616 12.096,6.73 12.091,5.807 11.553,5.237 10.706,5.248 9.87,5.258 9.365,5.802 9.363,6.718 9.36,7.698 9.343,8.678 9.365,9.66 c 0.031,1.409 0.674,2.522 1.839,3.269 1.576,1.007 3.181,0.924 4.721,-0.132 0.203,-0.137 0.338,-0.185 0.561,-0.019 0.912,0.676 1.931,0.92 3.073,0.788 1.855,-0.211 3.463,-1.904 3.514,-3.779 0.013,-0.526 0.002,-1.049 -0.001,-1.572 z m 26.006,1.955 c 0,0 0,-0.004 0,-0.007 0.752,0 1.508,0.016 2.258,-0.005 0.682,-0.017 1,-0.352 1.025,-1.035 C 52.416,7.76 51.803,6.741 50.705,6 49.557,5.231 48.262,5.148 46.939,5.296 c -0.813,0.091 -1.578,0.338 -2.194,0.918 -1.024,0.96 -1.396,2.154 -1.264,3.537 0.186,1.876 1.478,3.395 3.305,3.744 1.393,0.27 2.814,0.16 4.223,0.096 0.744,-0.037 1.092,-0.56 1.031,-1.316 -0.053,-0.631 -0.461,-0.976 -1.191,-0.979 -0.809,-0.004 -1.615,0.027 -2.42,-0.012 -0.623,-0.029 -1.281,-0.018 -1.756,-0.549 -0.109,-0.122 -0.234,-0.247 -0.164,-0.424 0.07,-0.174 0.246,-0.141 0.389,-0.141 0.729,-0.003 1.454,0 2.18,0 z M 35.908,6.389 c 0,0.995 -0.01,1.99 0.005,2.986 0.021,1.66 0.862,2.861 2.242,3.673 1.18,0.691 2.498,0.682 3.806,0.505 0.702,-0.097 1.129,-0.679 1.129,-1.409 0,-0.729 -0.434,-1.267 -1.128,-1.418 C 41.402,10.603 40.84,10.673 40.274,10.66 39.572,10.638 39.051,10.226 38.873,9.545 38.792,9.228 38.829,8.905 38.808,8.586 38.79,8.245 38.941,8.136 39.265,8.144 c 0.741,0.013 1.481,0.014 2.22,-0.003 0.731,-0.016 1.257,-0.559 1.28,-1.29 C 42.788,6.014 42.217,5.441 41.312,5.418 40.626,5.4 39.939,5.402 39.253,5.417 38.918,5.423 38.799,5.291 38.808,4.965 38.823,4.414 38.815,3.861 38.811,3.311 38.804,2.401 38.254,1.854 37.353,1.857 36.455,1.859 35.914,2.403 35.91,3.328 35.905,4.348 35.908,5.369 35.908,6.389 z m -7.741,-0.015 0,0 c 0,1.009 -0.032,2.019 0.003,3.027 0.059,1.624 0.853,2.84 2.233,3.646 1.195,0.7 2.521,0.68 3.84,0.5 0.701,-0.099 1.092,-0.649 1.099,-1.384 C 35.343,11.417 34.931,10.884 34.238,10.73 33.665,10.602 33.086,10.679 32.51,10.657 32.004,10.637 31.613,10.426 31.327,10.002 31.057,9.595 31.062,9.139 31.064,8.68 31.068,8.176 31.089,8.148 31.585,8.148 32.295,8.143 33.008,8.157 33.72,8.143 34.492,8.127 35,7.595 35.018,6.83 35.035,6.007 34.482,5.445 33.589,5.419 32.893,5.396 32.191,5.404 31.495,5.415 31.183,5.419 31.054,5.303 31.062,4.987 31.074,4.493 31.067,3.993 31.064,3.497 31.062,3.255 31.085,3.013 30.998,2.779 30.728,2.069 30.134,1.746 29.311,1.868 28.65,1.961 28.178,2.503 28.169,3.227 28.154,4.277 28.167,5.323 28.167,6.374 z m 27.749,4.694 h 0.004 c 0,-0.47 -0.016,-0.941 0.006,-1.409 0.039,-0.96 0.613,-1.509 1.568,-1.512 0.631,-0.005 1.26,0.009 1.893,-0.005 0.688,-0.016 1.24,-0.523 1.285,-1.15 C 60.735,6.176 60.358,5.6 59.609,5.486 58.681,5.343 57.742,5.383 56.8,5.481 c -1.686,0.174 -3.172,1.472 -3.455,3.135 -0.219,1.303 -0.104,2.628 -0.057,3.94 0.025,0.621 0.721,1.107 1.361,1.068 0.693,-0.04 1.242,-0.564 1.264,-1.228 0.015,-0.439 0.003,-0.882 0.003,-1.328 z m -28.81,-1.628 0,0 c 0,-0.874 0,-1.745 0,-2.619 0,-0.026 0,-0.054 0,-0.081 -0.063,-1.242 -1.272,-1.901 -2.307,-1.259 -0.55,0.342 -0.654,0.899 -0.662,1.475 -0.011,1.652 -0.009,3.305 -0.001,4.955 0.001,0.407 0.066,0.807 0.343,1.137 0.394,0.486 1.004,0.684 1.545,0.505 0.635,-0.212 1.063,-0.747 1.074,-1.413 0.018,-0.9 0.008,-1.8 0.008,-2.7 z M 25.621,1.533 c -0.872,0 -1.444,0.575 -1.459,1.462 -0.014,0.748 0.705,1.437 1.494,1.436 0.771,0 1.45,-0.663 1.437,-1.437 C 27.085,2.176 26.453,1.45 25.621,1.533 z"
       id="path5"
       inkscape:connector-curvature="0"
       style="fill:#9f9ea4;fill-rule:evenodd" /><path
       clip-rule="evenodd"
       d="m 74.154,0 c 0.02,0.207 -0.182,0.319 -0.234,0.535 0.324,-0.034 0.611,-0.173 0.924,-0.129 0.117,0.017 0.26,10e-4 0.293,0.155 0.033,0.141 -0.076,0.219 -0.184,0.281 -0.291,0.18 -0.619,0.26 -0.943,0.346 -0.16,0.039 -0.338,0.047 -0.518,0.241 0.467,0.04 0.877,0.042 1.273,0.181 1.615,0.564 2.604,1.724 3.078,3.319 0.154,0.508 0.365,0.754 0.891,0.781 0.471,0.027 0.938,0.035 1.406,-0.063 0.09,-0.017 0.219,-0.118 0.283,0.017 0.051,0.109 -0.072,0.191 -0.145,0.263 -0.33,0.344 -0.754,0.506 -1.211,0.602 -0.205,0.044 -0.41,0.083 -0.617,0.177 0.656,0.257 1.326,0.34 2.068,0.281 -0.072,0.206 -0.232,0.292 -0.379,0.389 -0.525,0.334 -1.113,0.46 -1.721,0.519 -0.211,0.019 -0.342,0.091 -0.412,0.31 -0.971,3.064 -3.188,4.888 -6.076,6.024 -1.459,0.569 -2.98,0.818 -4.541,0.767 -3.162,-0.102 -5.848,-1.279 -7.947,-3.694 -0.031,-0.038 -0.053,-0.087 -0.096,-0.16 0.18,-0.034 0.273,0.081 0.375,0.146 2.203,1.431 4.973,1.243 6.957,-0.474 0.076,-0.067 0.207,-0.13 0.178,-0.245 C 66.823,10.437 66.67,10.5 66.575,10.471 66.393,10.416 66.206,10.39 66.034,10.315 65.446,10.055 65.339,9.41 65.802,8.967 65.9,8.875 66.009,8.798 66.154,8.681 65.697,8.581 65.252,8.584 64.847,8.405 64.454,8.229 64.144,7.975 63.882,7.636 63.652,7.339 63.743,7.159 64.038,7.001 64.296,6.862 64.577,6.793 64.862,6.668 64.555,6.522 64.245,6.386 63.936,6.229 63.409,5.958 63.069,5.527 62.86,4.979 62.735,4.647 62.842,4.498 63.178,4.453 63.401,4.426 63.623,4.381 63.912,4.334 63.537,4.057 63.211,3.809 62.93,3.508 62.559,3.115 62.328,2.65 62.233,2.126 c -0.064,-0.36 0.055,-0.454 0.396,-0.321 1.799,0.71 3.6,1.433 5.289,2.39 0.447,0.251 0.82,0.604 1.195,0.952 0.25,0.231 0.365,0.195 0.488,-0.135 0.502,-1.308 1.061,-2.591 1.955,-3.691 0.271,-0.335 0.566,-0.647 0.918,-0.9 C 72.54,0.374 72.603,0.286 72.683,0.319 72.796,0.374 72.658,0.491 72.74,0.6 73.115,0.303 73.57,0.194 73.992,0 74.047,0 74.1,0 74.154,0 z"
       id="path7"
       inkscape:connector-curvature="0"
       style="fill:#9f9ea4;fill-rule:evenodd" /><path
       clip-rule="evenodd"
       d="M 0,2.904 C 0.332,2.168 0.86,1.767 1.71,1.853 c 0.631,0.065 1.17,0.578 1.189,1.213 0.018,0.618 0.021,1.237 0,1.856 -0.011,0.362 0.12,0.5 0.493,0.497 C 4.59,5.4 5.784,5.404 6.979,5.415 7.875,5.425 8.444,5.94 8.471,6.726 8.499,7.574 7.974,8.135 7.123,8.143 5.925,8.153 4.729,8.147 3.534,8.148 c -0.567,0 -0.64,0.062 -0.623,0.619 0.018,0.494 0.042,0.993 0.417,1.392 0.313,0.336 0.668,0.514 1.139,0.503 0.844,-0.018 1.69,-0.01 2.539,-0.001 0.228,0.001 0.455,0.028 0.679,0.074 0.7,0.139 1.111,0.679 1.108,1.424 -10e-4,0.736 -0.4,1.245 -1.087,1.396 -0.146,0.03 -0.294,0.07 -0.44,0.068 C 6.138,13.604 5.01,13.69 3.884,13.564 1.945,13.349 0.379,11.872 0.081,9.949 0.064,9.857 0.026,9.771 0,9.683 0,7.423 0,5.163 0,2.904 z"
       id="path9"
       inkscape:connector-curvature="0"
       style="fill:#9f9ea4;fill-rule:evenodd" /><path
       clip-rule="evenodd"
       d="m 23.075,8.215 c 0,0.523 0.012,1.046 -0.003,1.571 -0.051,1.875 -1.658,3.568 -3.514,3.779 -1.142,0.132 -2.162,-0.112 -3.073,-0.788 -0.222,-0.166 -0.357,-0.118 -0.561,0.019 -1.54,1.056 -3.145,1.139 -4.721,0.132 C 10.038,12.182 9.395,11.069 9.364,9.659 9.343,8.678 9.359,7.697 9.362,6.717 9.364,5.801 9.869,5.258 10.705,5.247 c 0.847,-0.01 1.385,0.559 1.39,1.482 0.009,0.885 0,1.774 0.007,2.66 0.005,0.857 0.622,1.501 1.414,1.491 0.719,-0.008 1.316,-0.648 1.326,-1.464 0.016,-0.913 0,-1.824 0.007,-2.74 0.009,-0.854 0.555,-1.425 1.361,-1.429 0.851,-0.005 1.372,0.536 1.377,1.438 0.004,0.874 -0.008,1.745 0.004,2.619 0.012,0.63 0.213,1.163 0.839,1.441 0.876,0.393 1.886,-0.227 1.904,-1.191 0.018,-0.938 -0.005,-1.878 0.006,-2.822 0.016,-0.939 0.578,-1.511 1.435,-1.485 0.75,0.023 1.272,0.524 1.295,1.272 0.016,0.565 0.002,1.129 0.005,1.696 z"
       id="path11"
       inkscape:connector-curvature="0"
       style="fill:#9f9ea4;fill-rule:evenodd" /><path
       clip-rule="evenodd"
       d="m 49.078,10.17 c -0.727,0 -1.451,-0.003 -2.18,10e-4 -0.143,0 -0.318,-0.033 -0.389,0.141 -0.07,0.177 0.055,0.302 0.164,0.424 0.475,0.531 1.133,0.52 1.756,0.549 0.805,0.039 1.611,0.008 2.42,0.012 0.73,0.004 1.139,0.349 1.191,0.979 0.061,0.757 -0.287,1.279 -1.031,1.316 -1.408,0.064 -2.83,0.174 -4.223,-0.096 -1.828,-0.35 -3.12,-1.868 -3.305,-3.744 -0.133,-1.383 0.239,-2.576 1.264,-3.537 0.616,-0.58 1.381,-0.827 2.194,-0.918 1.323,-0.148 2.618,-0.065 3.766,0.703 1.098,0.74 1.711,1.759 1.656,3.123 -0.025,0.684 -0.344,1.019 -1.025,1.035 -0.75,0.021 -1.506,0.005 -2.258,0.005 0,0.003 0,0.007 0,0.007 z M 47.961,8.315 c 0.375,0 0.748,0.001 1.123,-10e-4 0.115,0 0.26,0.025 0.318,-0.112 C 49.461,8.077 49.379,7.966 49.298,7.88 49.2,7.772 49.097,7.657 48.972,7.593 c -0.666,-0.353 -1.34,-0.319 -2.008,0 -0.158,0.075 -0.285,0.198 -0.367,0.355 -0.113,0.218 -0.088,0.366 0.201,0.367 0.388,0 0.774,0 1.163,0 z"
       id="path13"
       inkscape:connector-curvature="0"
       style="fill:#9f9ea4;fill-rule:evenodd" /><path
       clip-rule="evenodd"
       d="m 35.908,6.389 c 0,-1.021 -0.002,-2.042 10e-4,-3.063 0.004,-0.925 0.545,-1.468 1.443,-1.471 0.901,-0.003 1.451,0.543 1.458,1.454 0.004,0.55 0.012,1.103 -0.003,1.654 -0.009,0.325 0.109,0.458 0.445,0.452 0.686,-0.015 1.373,-0.017 2.059,0.001 0.905,0.023 1.477,0.596 1.453,1.433 -0.023,0.731 -0.549,1.274 -1.28,1.29 -0.738,0.017 -1.479,0.016 -2.22,0.003 -0.324,-0.008 -0.475,0.102 -0.457,0.442 0.021,0.319 -0.016,0.642 0.065,0.959 0.178,0.682 0.699,1.093 1.401,1.115 0.566,0.014 1.128,-0.057 1.688,0.066 0.694,0.151 1.128,0.688 1.128,1.418 0,0.73 -0.427,1.313 -1.129,1.409 -1.308,0.177 -2.626,0.187 -3.806,-0.505 C 36.774,12.234 35.933,11.033 35.912,9.373 35.897,8.379 35.908,7.384 35.908,6.389 z"
       id="path15"
       inkscape:connector-curvature="0"
       style="fill:#9f9ea4;fill-rule:evenodd" /><path
       clip-rule="evenodd"
       d="m 28.167,6.374 c 0,-1.051 -0.013,-2.096 0.003,-3.146 0.009,-0.725 0.481,-1.267 1.142,-1.359 0.823,-0.122 1.417,0.201 1.687,0.911 0.087,0.234 0.063,0.476 0.066,0.718 0.003,0.497 0.009,0.996 -0.002,1.49 -0.008,0.316 0.121,0.432 0.433,0.428 0.696,-0.011 1.398,-0.02 2.094,0.004 0.894,0.026 1.446,0.587 1.429,1.411 C 35,7.595 34.492,8.127 33.72,8.143 c -0.712,0.014 -1.425,0 -2.135,0.005 -0.496,0 -0.517,0.028 -0.521,0.532 -0.002,0.459 -0.007,0.915 0.263,1.322 0.285,0.424 0.676,0.636 1.183,0.655 0.576,0.022 1.155,-0.055 1.728,0.073 0.693,0.153 1.105,0.687 1.104,1.433 -0.006,0.734 -0.398,1.285 -1.099,1.384 -1.319,0.18 -2.646,0.2 -3.84,-0.5 C 29.023,12.24 28.229,11.025 28.17,9.401 28.135,8.393 28.167,7.383 28.167,6.374 l 0,0 z"
       id="path17"
       inkscape:connector-curvature="0"
       style="fill:#9f9ea4;fill-rule:evenodd" /><path
       clip-rule="evenodd"
       d="m 55.916,11.068 c 0,0.445 0.012,0.889 -0.002,1.329 -0.021,0.663 -0.57,1.188 -1.264,1.228 -0.641,0.039 -1.336,-0.447 -1.361,-1.068 -0.047,-1.313 -0.162,-2.638 0.057,-3.94 0.283,-1.663 1.77,-2.96 3.455,-3.135 0.941,-0.097 1.881,-0.138 2.809,0.005 0.748,0.114 1.125,0.689 1.063,1.506 -0.045,0.626 -0.598,1.134 -1.285,1.15 -0.633,0.014 -1.262,0 -1.893,0.005 -0.955,0.003 -1.529,0.552 -1.568,1.512 -0.021,0.468 -0.006,0.939 -0.006,1.409 h -0.005 z"
       id="path19"
       inkscape:connector-curvature="0"
       style="fill:#9f9ea4;fill-rule:evenodd" /><path
       clip-rule="evenodd"
       d="m 27.106,9.44 c 0,0.899 0.01,1.8 -0.008,2.699 -0.012,0.666 -0.439,1.201 -1.074,1.413 -0.541,0.179 -1.151,-0.019 -1.545,-0.505 -0.277,-0.33 -0.342,-0.729 -0.343,-1.137 -0.008,-1.649 -0.009,-3.303 0.001,-4.955 0.008,-0.576 0.112,-1.133 0.662,-1.475 1.035,-0.642 2.244,0.017 2.307,1.259 0,0.027 0,0.054 0,0.081 0,0.875 0,1.746 0,2.62 l 0,0 z"
       id="path21"
       inkscape:connector-curvature="0"
       style="fill:#9f9ea4;fill-rule:evenodd" /><path
       clip-rule="evenodd"
       d="M 25.621,1.533 C 26.453,1.45 27.085,2.176 27.093,2.993 27.106,3.767 26.427,4.43 25.656,4.43 24.867,4.431 24.148,3.742 24.162,2.994 24.177,2.108 24.75,1.533 25.621,1.533 z"
       id="path23"
       inkscape:connector-curvature="0"
       style="fill:#9f9ea4;fill-rule:evenodd" /><path
       clip-rule="evenodd"
       d="m 47.961,8.315 c -0.389,0 -0.775,0 -1.162,0 -0.289,-10e-4 -0.314,-0.149 -0.201,-0.367 0.082,-0.157 0.209,-0.28 0.367,-0.355 0.668,-0.319 1.342,-0.353 2.008,0 0.125,0.064 0.229,0.179 0.326,0.287 0.08,0.086 0.162,0.197 0.104,0.322 C 49.344,8.34 49.2,8.314 49.085,8.314 48.709,8.316 48.336,8.315 47.961,8.315 z"
       id="path25"
       inkscape:connector-curvature="0"
       style="fill:#9f9ea4;fill-rule:evenodd" /></g></svg>